<?xml version="1.0" encoding="iso-8859-1"?>
<!-- Uploaded to: SVG Repo, www.svgrepo.com, Generator: SVG Repo Mixer Tools -->
<svg fill="#000000" version="1.1" id="Layer_1" xmlns="http://www.w3.org/2000/svg" xmlns:xlink="http://www.w3.org/1999/xlink" 
	 viewBox="0 0 496 496" xml:space="preserve">
<g>
	<g>
		<g>
			<path d="M208,0c-20.856,0-38.592,13.384-45.2,32H120v26.208c-3.44,1.296-6.872,2.736-10.296,4.296L91.152,43.952L11.96,123.144
				l18.552,18.552c-1.568,3.432-3.008,6.864-4.304,10.304H0v112h26.208c1.296,3.44,2.736,6.872,4.296,10.296l-18.552,18.552
				l79.192,79.2l18.552-18.552c3.424,1.56,6.856,3,10.296,4.296V384h40v64c0,26.472,21.528,48,48,48h288v-16h-16.016
				c-8.544,0-16.584-3.328-22.632-9.376c-6.048-6.048-9.368-14.088-9.368-22.64c0.008-17.632,14.36-31.984,32-31.984H496v-8v-8V0
				H208z M136,368v-21.624l-5.472-1.824c-6.272-2.096-12.632-4.744-18.896-7.88l-5.152-2.576l-15.328,15.328l-56.568-56.568
				l15.328-15.328l-2.576-5.16c-3.144-6.264-5.792-12.624-7.88-18.896L37.624,248H16v-80h21.624l1.824-5.472
				c2.096-6.272,4.744-12.632,7.88-18.896l2.576-5.152l-15.328-15.328l56.568-56.568l15.328,15.328l5.152-2.576
				c6.264-3.144,12.624-5.792,18.896-7.88l5.48-1.832V48h24h16h40v21.624l5.472,1.824c6.272,2.096,12.632,4.744,18.896,7.88
				l5.16,2.576l15.328-15.328l56.568,56.568l-15.328,15.328l2.576,5.152c3.144,6.264,5.792,12.624,7.88,18.896l1.824,5.48H336v80
				h-21.624l-1.824,5.472c-2.096,6.272-4.744,12.632-7.88,18.896l-2.576,5.16l15.328,15.328l-56.568,56.568l-15.328-15.328
				l-5.16,2.576c-6.264,3.144-12.624,5.792-18.896,7.88L216,346.376V368H136z M325.792,152c-1.296-3.44-2.736-6.872-4.296-10.296
				l18.552-18.552L304.896,88H448v136h-96v-72H325.792z M444.2,480H208c-17.648,0-32-14.352-32-32s14.352-32,32-32h236.232
				c-7.608,8.496-12.24,19.712-12.248,31.984C431.976,459.912,436.296,471.184,444.2,480z M480,400H208
				c-12.304,0-23.496,4.688-32,12.328V384h56v-26.208c3.44-1.296,6.872-2.736,10.296-4.296l18.552,18.552l79.2-79.2l-18.552-18.552
				c1.56-3.424,3-6.856,4.296-10.296H352v-24h112V72H288.896l-28.048-28.048l-18.552,18.552c-3.424-1.56-6.856-2.992-10.296-4.296
				V32h-51.552C186,22.48,196.208,16,208,16h272V400z"/>
			<path d="M219.968,293.248c6.44-3.336,12.464-7.352,17.96-12.008l11.616,11.616l11.312-11.312l-11.616-11.616
				c4.648-5.488,8.664-11.512,12.008-17.96l15.168,6.28l6.128-14.784l-15.112-6.256c2.168-6.776,3.56-13.88,4.168-21.208H288v-16
				h-16.408c-0.608-7.328-2-14.44-4.168-21.208l15.112-6.256l-6.128-14.784l-15.168,6.28c-3.336-6.44-7.352-12.464-12.008-17.96
				l11.616-11.616l-11.312-11.312L237.92,134.76c-5.488-4.648-11.512-8.664-17.96-12.008l6.28-15.168l-14.784-6.128l-6.256,15.112
				c-6.776-2.168-13.88-3.56-21.208-4.168V96h-16v16.408c-7.328,0.608-14.44,2-21.208,4.168l-6.256-15.112l-14.784,6.128
				l6.28,15.168c-6.44,3.336-12.464,7.352-17.96,12.008l-11.616-11.616l-11.312,11.312l11.616,11.616
				c-4.648,5.488-8.664,11.512-12.008,17.96l-15.168-6.28l-6.128,14.784L84.56,178.8c-2.168,6.776-3.56,13.88-4.168,21.208H64v16
				h16.408c0.608,7.328,2,14.44,4.168,21.208l-15.112,6.256l6.128,14.784l15.168-6.28c3.336,6.44,7.352,12.464,12.008,17.96
				l-11.616,11.616l11.312,11.312l11.616-11.616c5.488,4.648,11.512,8.664,17.96,12.008l-6.28,15.168l14.784,6.128l6.248-15.128
				c6.776,2.168,13.88,3.56,21.208,4.168V320h16v-16.408c7.328-0.608,14.432-2,21.208-4.168l6.256,15.12l14.784-6.128
				L219.968,293.248z M176,288c-44.112,0-80-35.888-80-80s35.888-80,80-80s80,35.888,80,80S220.112,288,176,288z"/>
			<rect x="192" y="440" width="192" height="16"/>
			<rect x="400" y="440" width="16" height="16"/>
		</g>
	</g>
</g>
</svg>