<?xml version="1.0" encoding="UTF-8"?><svg id="Layer_2" xmlns="http://www.w3.org/2000/svg" viewBox="0 0 301.172 353.15"><g id="VIVI_Panels"><g><g><polygon points="0 182.252 72.655 224.2 72.655 44.686 0 2.739 0 182.252" fill="#aa7552"/><g><g><g><g><path d="M63.401,171.627h0c.9,.52,1.63-.032,1.63-1.232v-7.999c0-1.2-.73-2.595-1.63-3.115h0c-.9-.52-1.63,.032-1.63,1.232v7.999c0,1.2,.73,2.595,1.63,3.115Z" fill="#e8b185"/><path d="M68.031,168.127h0c0-1.2-.73-2.595-1.63-3.115l-6-3.464c-.9-.52-1.63,.032-1.63,1.232h0c0,1.2,.73,2.595,1.63,3.115l6,3.464c.9,.52,1.63-.032,1.63-1.232Z" fill="#e8b185"/></g><g><path d="M49.574,163.643h0c.9,.52,1.63-.032,1.63-1.232v-7.999c0-1.2-.73-2.595-1.63-3.115h0c-.9-.52-1.63,.032-1.63,1.232v7.999c0,1.2,.73,2.595,1.63,3.115Z" fill="#e8b185"/><path d="M54.204,160.144h0c0-1.2-.73-2.595-1.63-3.115l-6-3.464c-.9-.52-1.63,.032-1.63,1.232h0c0,1.2,.73,2.595,1.63,3.115l6,3.464c.9,.52,1.63-.032,1.63-1.232Z" fill="#e8b185"/></g><g><path d="M35.746,155.66h0c.9,.52,1.63-.032,1.63-1.232v-7.999c0-1.2-.73-2.595-1.63-3.115h0c-.9-.52-1.63,.032-1.63,1.232v7.999c0,1.2,.73,2.595,1.63,3.115Z" fill="#e8b185"/><path d="M40.376,152.16h0c0-1.2-.73-2.595-1.63-3.115l-6-3.464c-.9-.52-1.63,.032-1.63,1.232h0c0,1.2,.73,2.595,1.63,3.115l6,3.464c.9,.52,1.63-.032,1.63-1.232Z" fill="#e8b185"/></g></g><g><g><path d="M63.401,190.237h0c.9,.52,1.63-.032,1.63-1.232v-7.999c0-1.2-.73-2.595-1.63-3.115h0c-.9-.52-1.63,.032-1.63,1.232v7.999c0,1.2,.73,2.595,1.63,3.115Z" fill="#e8b185"/><path d="M68.031,186.738h0c0-1.2-.73-2.595-1.63-3.115l-6-3.464c-.9-.52-1.63,.032-1.63,1.232h0c0,1.2,.73,2.595,1.63,3.115l6,3.464c.9,.52,1.63-.032,1.63-1.232Z" fill="#e8b185"/></g><g><path d="M49.574,182.254h0c.9,.52,1.63-.032,1.63-1.232v-7.999c0-1.2-.73-2.595-1.63-3.115h0c-.9-.52-1.63,.032-1.63,1.232v7.999c0,1.2,.73,2.595,1.63,3.115Z" fill="#e8b185"/><path d="M54.204,178.754h0c0-1.2-.73-2.595-1.63-3.115l-6-3.464c-.9-.52-1.63,.032-1.63,1.232h0c0,1.2,.73,2.595,1.63,3.115l6,3.464c.9,.52,1.63-.032,1.63-1.232Z" fill="#e8b185"/></g><g><path d="M35.746,174.271h0c.9,.52,1.63-.032,1.63-1.232v-7.999c0-1.2-.73-2.595-1.63-3.115h0c-.9-.52-1.63,.032-1.63,1.232v7.999c0,1.2,.73,2.595,1.63,3.115Z" fill="#e8b185"/><path d="M40.376,170.771h0c0-1.2-.73-2.595-1.63-3.115l-6-3.464c-.9-.52-1.63,.032-1.63,1.232h0c0,1.2,.73,2.595,1.63,3.115l6,3.464c.9,.52,1.63-.032,1.63-1.232Z" fill="#e8b185"/></g></g><g><g><path d="M63.401,208.848h0c.9,.52,1.63-.032,1.63-1.232v-7.999c0-1.2-.73-2.595-1.63-3.115h0c-.9-.52-1.63,.032-1.63,1.232v7.999c0,1.2,.73,2.595,1.63,3.115Z" fill="#e8b185"/><path d="M68.031,205.348h0c0-1.2-.73-2.595-1.63-3.115l-6-3.464c-.9-.52-1.63,.032-1.63,1.232h0c0,1.2,.73,2.595,1.63,3.115l6,3.464c.9,.52,1.63-.032,1.63-1.232Z" fill="#e8b185"/></g><g><path d="M49.574,200.865h0c.9,.52,1.63-.032,1.63-1.232v-7.999c0-1.2-.73-2.595-1.63-3.115h0c-.9-.52-1.63,.032-1.63,1.232v7.999c0,1.2,.73,2.595,1.63,3.115Z" fill="#e8b185"/><path d="M54.204,197.365h0c0-1.2-.73-2.595-1.63-3.115l-6-3.464c-.9-.52-1.63,.032-1.63,1.232h0c0,1.2,.73,2.595,1.63,3.115l6,3.464c.9,.52,1.63-.032,1.63-1.232Z" fill="#e8b185"/></g><g><path d="M35.746,192.881h0c.9,.52,1.63-.032,1.63-1.232v-7.999c0-1.2-.73-2.595-1.63-3.115h0c-.9-.52-1.63,.032-1.63,1.232v7.999c0,1.2,.73,2.595,1.63,3.115Z" fill="#e8b185"/><path d="M40.376,189.382h0c0-1.2-.73-2.595-1.63-3.115l-6-3.464c-.9-.52-1.63,.032-1.63,1.232h0c0,1.2,.73,2.595,1.63,3.115l6,3.464c.9,.52,1.63-.032,1.63-1.232Z" fill="#e8b185"/></g></g></g><g><g><g><path d="M63.401,116.663h0c.9,.52,1.63-.032,1.63-1.232v-7.999c0-1.2-.73-2.595-1.63-3.115h0c-.9-.52-1.63,.032-1.63,1.232v7.999c0,1.2,.73,2.595,1.63,3.115Z" fill="#e8b185"/><path d="M68.031,113.164h0c0-1.2-.73-2.595-1.63-3.115l-6-3.464c-.9-.52-1.63,.032-1.63,1.232h0c0,1.2,.73,2.595,1.63,3.115l6,3.464c.9,.52,1.63-.032,1.63-1.232Z" fill="#e8b185"/></g><g><path d="M49.574,108.68h0c.9,.52,1.63-.032,1.63-1.232v-7.999c0-1.2-.73-2.595-1.63-3.115h0c-.9-.52-1.63,.032-1.63,1.232v7.999c0,1.2,.73,2.595,1.63,3.115Z" fill="#e8b185"/><path d="M54.204,105.18h0c0-1.2-.73-2.595-1.63-3.115l-6-3.464c-.9-.52-1.63,.032-1.63,1.232h0c0,1.2,.73,2.595,1.63,3.115l6,3.464c.9,.52,1.63-.032,1.63-1.232Z" fill="#e8b185"/></g><g><path d="M35.746,100.697h0c.9,.52,1.63-.032,1.63-1.232v-7.999c0-1.2-.73-2.595-1.63-3.115h0c-.9-.52-1.63,.032-1.63,1.232v7.999c0,1.2,.73,2.595,1.63,3.115Z" fill="#e8b185"/><path d="M40.376,97.197h0c0-1.2-.73-2.595-1.63-3.115l-6-3.464c-.9-.52-1.63,.032-1.63,1.232h0c0,1.2,.73,2.595,1.63,3.115l6,3.464c.9,.52,1.63-.032,1.63-1.232Z" fill="#e8b185"/></g></g><g><g><path d="M63.401,135.274h0c.9,.52,1.63-.032,1.63-1.232v-7.999c0-1.2-.73-2.595-1.63-3.115h0c-.9-.52-1.63,.032-1.63,1.232v7.999c0,1.2,.73,2.595,1.63,3.115Z" fill="#e8b185"/><path d="M68.031,131.774h0c0-1.2-.73-2.595-1.63-3.115l-6-3.464c-.9-.52-1.63,.032-1.63,1.232h0c0,1.2,.73,2.595,1.63,3.115l6,3.464c.9,.52,1.63-.032,1.63-1.232Z" fill="#e8b185"/></g><g><path d="M49.574,127.291h0c.9,.52,1.63-.032,1.63-1.232v-7.999c0-1.2-.73-2.595-1.63-3.115h0c-.9-.52-1.63,.032-1.63,1.232v7.999c0,1.2,.73,2.595,1.63,3.115Z" fill="#e8b185"/><path d="M54.204,123.791h0c0-1.2-.73-2.595-1.63-3.115l-6-3.464c-.9-.52-1.63,.032-1.63,1.232h0c0,1.2,.73,2.595,1.63,3.115l6,3.464c.9,.52,1.63-.032,1.63-1.232Z" fill="#e8b185"/></g><g><path d="M35.746,119.307h0c.9,.52,1.63-.032,1.63-1.232v-7.999c0-1.2-.73-2.595-1.63-3.115h0c-.9-.52-1.63,.032-1.63,1.232v7.999c0,1.2,.73,2.595,1.63,3.115Z" fill="#e8b185"/><path d="M40.376,115.808h0c0-1.2-.73-2.595-1.63-3.115l-6-3.464c-.9-.52-1.63,.032-1.63,1.232h0c0,1.2,.73,2.595,1.63,3.115l6,3.464c.9,.52,1.63-.032,1.63-1.232Z" fill="#e8b185"/></g></g><g><g><path d="M63.401,153.885h0c.9,.52,1.63-.032,1.63-1.232v-7.999c0-1.2-.73-2.595-1.63-3.115h0c-.9-.52-1.63,.032-1.63,1.232v7.999c0,1.2,.73,2.595,1.63,3.115Z" fill="#e8b185"/><path d="M68.031,150.385h0c0-1.2-.73-2.595-1.63-3.115l-6-3.464c-.9-.52-1.63,.032-1.63,1.232h0c0,1.2,.73,2.595,1.63,3.115l6,3.464c.9,.52,1.63-.032,1.63-1.232Z" fill="#e8b185"/></g><g><path d="M49.574,145.901h0c.9,.52,1.63-.032,1.63-1.232v-7.999c0-1.2-.73-2.595-1.63-3.115h0c-.9-.52-1.63,.032-1.63,1.232v7.999c0,1.2,.73,2.595,1.63,3.115Z" fill="#e8b185"/><path d="M54.204,142.402h0c0-1.2-.73-2.595-1.63-3.115l-6-3.464c-.9-.52-1.63,.032-1.63,1.232h0c0,1.2,.73,2.595,1.63,3.115l6,3.464c.9,.52,1.63-.032,1.63-1.232Z" fill="#e8b185"/></g><g><path d="M35.746,137.918h0c.9,.52,1.63-.032,1.63-1.232v-7.999c0-1.2-.73-2.595-1.63-3.115h0c-.9-.52-1.63,.032-1.63,1.232v7.999c0,1.2,.73,2.595,1.63,3.115Z" fill="#e8b185"/><path d="M40.376,134.418h0c0-1.2-.73-2.595-1.63-3.115l-6-3.464c-.9-.52-1.63,.032-1.63,1.232h0c0,1.2,.73,2.595,1.63,3.115l6,3.464c.9,.52,1.63-.032,1.63-1.232Z" fill="#e8b185"/></g></g></g><g><g><g><path d="M63.401,61.7h0c.9,.52,1.63-.032,1.63-1.232v-7.999c0-1.2-.73-2.595-1.63-3.115h0c-.9-.52-1.63,.032-1.63,1.232v7.999c0,1.2,.73,2.595,1.63,3.115Z" fill="#e8b185"/><path d="M68.031,58.2h0c0-1.2-.73-2.595-1.63-3.115l-6-3.464c-.9-.52-1.63,.032-1.63,1.232h0c0,1.2,.73,2.595,1.63,3.115l6,3.464c.9,.52,1.63-.032,1.63-1.232Z" fill="#e8b185"/></g><g><path d="M49.574,53.716h0c.9,.52,1.63-.032,1.63-1.232v-7.999c0-1.2-.73-2.595-1.63-3.115h0c-.9-.52-1.63,.032-1.63,1.232v7.999c0,1.2,.73,2.595,1.63,3.115Z" fill="#e8b185"/><path d="M54.204,50.217h0c0-1.2-.73-2.595-1.63-3.115l-6-3.464c-.9-.52-1.63,.032-1.63,1.232h0c0,1.2,.73,2.595,1.63,3.115l6,3.464c.9,.52,1.63-.032,1.63-1.232Z" fill="#e8b185"/></g><g><path d="M35.746,45.733h0c.9,.52,1.63-.032,1.63-1.232v-7.999c0-1.2-.73-2.595-1.63-3.115h0c-.9-.52-1.63,.032-1.63,1.232v7.999c0,1.2,.73,2.595,1.63,3.115Z" fill="#e8b185"/><path d="M40.376,42.233h0c0-1.2-.73-2.595-1.63-3.115l-6-3.464c-.9-.52-1.63,.032-1.63,1.232h0c0,1.2,.73,2.595,1.63,3.115l6,3.464c.9,.52,1.63-.032,1.63-1.232Z" fill="#e8b185"/></g></g><g><g><path d="M63.401,80.31h0c.9,.52,1.63-.032,1.63-1.232v-7.999c0-1.2-.73-2.595-1.63-3.115h0c-.9-.52-1.63,.032-1.63,1.232v7.999c0,1.2,.73,2.595,1.63,3.115Z" fill="#e8b185"/><path d="M68.031,76.811h0c0-1.2-.73-2.595-1.63-3.115l-6-3.464c-.9-.52-1.63,.032-1.63,1.232h0c0,1.2,.73,2.595,1.63,3.115l6,3.464c.9,.52,1.63-.032,1.63-1.232Z" fill="#e8b185"/></g><g><path d="M49.574,72.327h0c.9,.52,1.63-.032,1.63-1.232v-7.999c0-1.2-.73-2.595-1.63-3.115h0c-.9-.52-1.63,.032-1.63,1.232v7.999c0,1.2,.73,2.595,1.63,3.115Z" fill="#e8b185"/><path d="M54.204,68.827h0c0-1.2-.73-2.595-1.63-3.115l-6-3.464c-.9-.52-1.63,.032-1.63,1.232h0c0,1.2,.73,2.595,1.63,3.115l6,3.464c.9,.52,1.63-.032,1.63-1.232Z" fill="#e8b185"/></g><g><path d="M35.746,64.344h0c.9,.52,1.63-.032,1.63-1.232v-7.999c0-1.2-.73-2.595-1.63-3.115h0c-.9-.52-1.63,.032-1.63,1.232v7.999c0,1.2,.73,2.595,1.63,3.115Z" fill="#e8b185"/><path d="M40.376,60.844h0c0-1.2-.73-2.595-1.63-3.115l-6-3.464c-.9-.52-1.63,.032-1.63,1.232h0c0,1.2,.73,2.595,1.63,3.115l6,3.464c.9,.52,1.63-.032,1.63-1.232Z" fill="#e8b185"/></g></g><g><g><path d="M63.401,98.921h0c.9,.52,1.63-.032,1.63-1.232v-7.999c0-1.2-.73-2.595-1.63-3.115h0c-.9-.52-1.63,.032-1.63,1.232v7.999c0,1.2,.73,2.595,1.63,3.115Z" fill="#e8b185"/><path d="M68.031,95.421h0c0-1.2-.73-2.595-1.63-3.115l-6-3.464c-.9-.52-1.63,.032-1.63,1.232h0c0,1.2,.73,2.595,1.63,3.115l6,3.464c.9,.52,1.63-.032,1.63-1.232Z" fill="#e8b185"/></g><g><path d="M49.574,90.938h0c.9,.52,1.63-.032,1.63-1.232v-7.999c0-1.2-.73-2.595-1.63-3.115h0c-.9-.52-1.63,.032-1.63,1.232v7.999c0,1.2,.73,2.595,1.63,3.115Z" fill="#e8b185"/><path d="M54.204,87.438h0c0-1.2-.73-2.595-1.63-3.115l-6-3.464c-.9-.52-1.63,.032-1.63,1.232h0c0,1.2,.73,2.595,1.63,3.115l6,3.464c.9,.52,1.63-.032,1.63-1.232Z" fill="#e8b185"/></g><g><path d="M35.746,82.954h0c.9,.52,1.63-.032,1.63-1.232v-7.999c0-1.2-.73-2.595-1.63-3.115h0c-.9-.52-1.63,.032-1.63,1.232v7.999c0,1.2,.73,2.595,1.63,3.115Z" fill="#e8b185"/><path d="M40.376,79.455h0c0-1.2-.73-2.595-1.63-3.115l-6-3.464c-.9-.52-1.63,.032-1.63,1.232h0c0,1.2,.73,2.595,1.63,3.115l6,3.464c.9,.52,1.63-.032,1.63-1.232Z" fill="#e8b185"/></g></g></g><g><g><path d="M22.209,37.916h0c.9,.52,1.63-.032,1.63-1.232v-7.999c0-1.2-.73-2.595-1.63-3.115h0c-.9-.52-1.63,.032-1.63,1.232v7.999c0,1.2,.73,2.595,1.63,3.115Z" fill="#e8b185"/><path d="M26.839,34.416h0c0-1.2-.73-2.595-1.63-3.115l-6-3.464c-.9-.52-1.63,.032-1.63,1.232h0c0,1.2,.73,2.595,1.63,3.115l6,3.464c.9,.52,1.63-.032,1.63-1.232Z" fill="#e8b185"/></g><g><path d="M8.381,29.932h0c.9,.52,1.63-.032,1.63-1.232v-7.999c0-1.2-.73-2.595-1.63-3.115h0c-.9-.52-1.63,.032-1.63,1.232v7.999c0,1.2,.73,2.595,1.63,3.115Z" fill="#e8b185"/><path d="M13.011,26.433h0c0-1.2-.73-2.595-1.63-3.115l-6-3.464c-.9-.52-1.63,.032-1.63,1.232h0c0,1.2,.73,2.595,1.63,3.115l6,3.464c.9,.52,1.63-.032,1.63-1.232Z" fill="#e8b185"/></g></g><g><g><path d="M22.209,56.526h0c.9,.52,1.63-.032,1.63-1.232v-7.999c0-1.2-.73-2.595-1.63-3.115h0c-.9-.52-1.63,.032-1.63,1.232v7.999c0,1.2,.73,2.595,1.63,3.115Z" fill="#e8b185"/><path d="M26.839,53.027h0c0-1.2-.73-2.595-1.63-3.115l-6-3.464c-.9-.52-1.63,.032-1.63,1.232h0c0,1.2,.73,2.595,1.63,3.115l6,3.464c.9,.52,1.63-.032,1.63-1.232Z" fill="#e8b185"/></g><g><path d="M8.381,48.543h0c.9,.52,1.63-.032,1.63-1.232v-7.999c0-1.2-.73-2.595-1.63-3.115h0c-.9-.52-1.63,.032-1.63,1.232v7.999c0,1.2,.73,2.595,1.63,3.115Z" fill="#e8b185"/><path d="M13.011,45.043h0c0-1.2-.73-2.595-1.63-3.115l-6-3.464c-.9-.52-1.63,.032-1.63,1.232h0c0,1.2,.73,2.595,1.63,3.115l6,3.464c.9,.52,1.63-.032,1.63-1.232Z" fill="#e8b185"/></g></g><g><g><path d="M22.209,75.137h0c.9,.52,1.63-.032,1.63-1.232v-7.999c0-1.2-.73-2.595-1.63-3.115h0c-.9-.52-1.63,.032-1.63,1.232v7.999c0,1.2,.73,2.595,1.63,3.115Z" fill="#e8b185"/><path d="M26.839,71.637h0c0-1.2-.73-2.595-1.63-3.115l-6-3.464c-.9-.52-1.63,.032-1.63,1.232h0c0,1.2,.73,2.595,1.63,3.115l6,3.464c.9,.52,1.63-.032,1.63-1.232Z" fill="#e8b185"/></g><g><path d="M8.381,67.154h0c.9,.52,1.63-.032,1.63-1.232v-7.999c0-1.2-.73-2.595-1.63-3.115h0c-.9-.52-1.63,.032-1.63,1.232v7.999c0,1.2,.73,2.595,1.63,3.115Z" fill="#e8b185"/><path d="M13.011,63.654h0c0-1.2-.73-2.595-1.63-3.115l-6-3.464c-.9-.52-1.63,.032-1.63,1.232h0c0,1.2,.73,2.595,1.63,3.115l6,3.464c.9,.52,1.63-.032,1.63-1.232Z" fill="#e8b185"/></g></g><g><g><g><path d="M22.209,147.843h0c.9,.52,1.63-.032,1.63-1.232v-7.999c0-1.2-.73-2.595-1.63-3.115h0c-.9-.52-1.63,.032-1.63,1.232v7.999c0,1.2,.73,2.595,1.63,3.115Z" fill="#e8b185"/><path d="M26.839,144.343h0c0-1.2-.73-2.595-1.63-3.115l-6-3.464c-.9-.52-1.63,.032-1.63,1.232h0c0,1.2,.73,2.595,1.63,3.115l6,3.464c.9,.52,1.63-.032,1.63-1.232Z" fill="#e8b185"/></g><g><path d="M8.381,139.859h0c.9,.52,1.63-.032,1.63-1.232v-7.999c0-1.2-.73-2.595-1.63-3.115h0c-.9-.52-1.63,.032-1.63,1.232v7.999c0,1.2,.73,2.595,1.63,3.115Z" fill="#e8b185"/><path d="M13.011,136.36h0c0-1.2-.73-2.595-1.63-3.115l-6-3.464c-.9-.52-1.63,.032-1.63,1.232h0c0,1.2,.73,2.595,1.63,3.115l6,3.464c.9,.52,1.63-.032,1.63-1.232Z" fill="#e8b185"/></g></g><g><g><path d="M22.209,166.453h0c.9,.52,1.63-.032,1.63-1.232v-7.999c0-1.2-.73-2.595-1.63-3.115h0c-.9-.52-1.63,.032-1.63,1.232v7.999c0,1.2,.73,2.595,1.63,3.115Z" fill="#e8b185"/><path d="M26.839,162.954h0c0-1.2-.73-2.595-1.63-3.115l-6-3.464c-.9-.52-1.63,.032-1.63,1.232h0c0,1.2,.73,2.595,1.63,3.115l6,3.464c.9,.52,1.63-.032,1.63-1.232Z" fill="#e8b185"/></g><g><path d="M8.381,158.47h0c.9,.52,1.63-.032,1.63-1.232v-7.999c0-1.2-.73-2.595-1.63-3.115h0c-.9-.52-1.63,.032-1.63,1.232v7.999c0,1.2,.73,2.595,1.63,3.115Z" fill="#e8b185"/><path d="M13.011,154.97h0c0-1.2-.73-2.595-1.63-3.115l-6-3.464c-.9-.52-1.63,.032-1.63,1.232h0c0,1.2,.73,2.595,1.63,3.115l6,3.464c.9,.52,1.63-.032,1.63-1.232Z" fill="#e8b185"/></g></g><g><g><path d="M22.209,185.064h0c.9,.52,1.63-.032,1.63-1.232v-7.999c0-1.2-.73-2.595-1.63-3.115h0c-.9-.52-1.63,.032-1.63,1.232v7.999c0,1.2,.73,2.595,1.63,3.115Z" fill="#e8b185"/><path d="M26.839,181.564h0c0-1.2-.73-2.595-1.63-3.115l-6-3.464c-.9-.52-1.63,.032-1.63,1.232h0c0,1.2,.73,2.595,1.63,3.115l6,3.464c.9,.52,1.63-.032,1.63-1.232Z" fill="#e8b185"/></g><g><path d="M8.381,177.08h0c.9,.52,1.63-.032,1.63-1.232v-7.999c0-1.2-.73-2.595-1.63-3.115h0c-.9-.52-1.63,.032-1.63,1.232v7.999c0,1.2,.73,2.595,1.63,3.115Z" fill="#e8b185"/><path d="M13.011,173.581h0c0-1.2-.73-2.595-1.63-3.115l-6-3.464c-.9-.52-1.63,.032-1.63,1.232h0c0,1.2,.73,2.595,1.63,3.115l6,3.464c.9,.52,1.63-.032,1.63-1.232Z" fill="#e8b185"/></g></g></g><g><g><g><path d="M22.209,92.879h0c.9,.52,1.63-.032,1.63-1.232v-7.999c0-1.2-.73-2.595-1.63-3.115h0c-.9-.52-1.63,.032-1.63,1.232v7.999c0,1.2,.73,2.595,1.63,3.115Z" fill="#e8b185"/><path d="M26.839,89.379h0c0-1.2-.73-2.595-1.63-3.115l-6-3.464c-.9-.52-1.63,.032-1.63,1.232h0c0,1.2,.73,2.595,1.63,3.115l6,3.464c.9,.52,1.63-.032,1.63-1.232Z" fill="#e8b185"/></g><g><path d="M8.381,84.896h0c.9,.52,1.63-.032,1.63-1.232v-7.999c0-1.2-.73-2.595-1.63-3.115h0c-.9-.52-1.63,.032-1.63,1.232v7.999c0,1.2,.73,2.595,1.63,3.115Z" fill="#e8b185"/><path d="M13.011,81.396h0c0-1.2-.73-2.595-1.63-3.115l-6-3.464c-.9-.52-1.63,.032-1.63,1.232h0c0,1.2,.73,2.595,1.63,3.115l6,3.464c.9,.52,1.63-.032,1.63-1.232Z" fill="#e8b185"/></g></g><g><g><path d="M22.209,111.49h0c.9,.52,1.63-.032,1.63-1.232v-7.999c0-1.2-.73-2.595-1.63-3.115h0c-.9-.52-1.63,.032-1.63,1.232v7.999c0,1.2,.73,2.595,1.63,3.115Z" fill="#e8b185"/><path d="M26.839,107.99h0c0-1.2-.73-2.595-1.63-3.115l-6-3.464c-.9-.52-1.63,.032-1.63,1.232h0c0,1.2,.73,2.595,1.63,3.115l6,3.464c.9,.52,1.63-.032,1.63-1.232Z" fill="#e8b185"/></g><g><path d="M8.381,103.506h0c.9,.52,1.63-.032,1.63-1.232v-7.999c0-1.2-.73-2.595-1.63-3.115h0c-.9-.52-1.63,.032-1.63,1.232v7.999c0,1.2,.73,2.595,1.63,3.115Z" fill="#e8b185"/><path d="M13.011,100.007h0c0-1.2-.73-2.595-1.63-3.115l-6-3.464c-.9-.52-1.63,.032-1.63,1.232h0c0,1.2,.73,2.595,1.63,3.115l6,3.464c.9,.52,1.63-.032,1.63-1.232Z" fill="#e8b185"/></g></g><g><g><path d="M22.209,130.1h0c.9,.52,1.63-.032,1.63-1.232v-7.999c0-1.2-.73-2.595-1.63-3.115h0c-.9-.52-1.63,.032-1.63,1.232v7.999c0,1.2,.73,2.595,1.63,3.115Z" fill="#e8b185"/><path d="M26.839,126.601h0c0-1.2-.73-2.595-1.63-3.115l-6-3.464c-.9-.52-1.63,.032-1.63,1.232h0c0,1.2,.73,2.595,1.63,3.115l6,3.464c.9,.52,1.63-.032,1.63-1.232Z" fill="#e8b185"/></g><g><path d="M8.381,122.117h0c.9,.52,1.63-.032,1.63-1.232v-7.999c0-1.2-.73-2.595-1.63-3.115h0c-.9-.52-1.63,.032-1.63,1.232v7.999c0,1.2,.73,2.595,1.63,3.115Z" fill="#e8b185"/><path d="M13.011,118.617h0c0-1.2-.73-2.595-1.63-3.115l-6-3.464c-.9-.52-1.63,.032-1.63,1.232h0c0,1.2,.73,2.595,1.63,3.115l6,3.464c.9,.52,1.63-.032,1.63-1.232Z" fill="#e8b185"/></g></g></g></g></g><polygon points="72.655 44.624 77.337 41.921 4.682 0 0 2.703 72.655 44.624" fill="#ffcfae"/><polygon points="72.655 44.624 77.337 41.921 77.337 221.473 72.655 224.176 72.655 44.624" fill="#e8b185"/></g><g><g><polygon points="75.302 225.006 147.957 266.953 147.957 87.439 75.302 45.492 75.302 225.006" fill="#aa7552"/><g><g><g><g><path d="M138.704,214.38h0c.9,.52,1.63-.032,1.63-1.232v-7.999c0-1.2-.73-2.595-1.63-3.115h0c-.9-.52-1.63,.032-1.63,1.232v7.999c0,1.2,.73,2.595,1.63,3.115Z" fill="#e8b185"/><path d="M143.334,210.881h0c0-1.2-.73-2.595-1.63-3.115l-6-3.464c-.9-.52-1.63,.032-1.63,1.232h0c0,1.2,.73,2.595,1.63,3.115l6,3.464c.9,.52,1.63-.032,1.63-1.232Z" fill="#e8b185"/></g><g><path d="M124.876,206.397h0c.9,.52,1.63-.032,1.63-1.232v-7.999c0-1.2-.73-2.595-1.63-3.115h0c-.9-.52-1.63,.032-1.63,1.232v7.999c0,1.2,.73,2.595,1.63,3.115Z" fill="#e8b185"/><path d="M129.506,202.897h0c0-1.2-.73-2.595-1.63-3.115l-6-3.464c-.9-.52-1.63,.032-1.63,1.232h0c0,1.2,.73,2.595,1.63,3.115l6,3.464c.9,.52,1.63-.032,1.63-1.232Z" fill="#e8b185"/></g><g><path d="M111.049,198.413h0c.9,.52,1.63-.032,1.63-1.232v-7.999c0-1.2-.73-2.595-1.63-3.115h0c-.9-.52-1.63,.032-1.63,1.232v7.999c0,1.2,.73,2.595,1.63,3.115Z" fill="#e8b185"/><path d="M115.679,194.914h0c0-1.2-.73-2.595-1.63-3.115l-6-3.464c-.9-.52-1.63,.032-1.63,1.232h0c0,1.2,.73,2.595,1.63,3.115l6,3.464c.9,.52,1.63-.032,1.63-1.232Z" fill="#e8b185"/></g></g><g><g><path d="M138.704,232.991h0c.9,.52,1.63-.032,1.63-1.232v-7.999c0-1.2-.73-2.595-1.63-3.115h0c-.9-.52-1.63,.032-1.63,1.232v7.999c0,1.2,.73,2.595,1.63,3.115Z" fill="#e8b185"/><path d="M143.334,229.491h0c0-1.2-.73-2.595-1.63-3.115l-6-3.464c-.9-.52-1.63,.032-1.63,1.232h0c0,1.2,.73,2.595,1.63,3.115l6,3.464c.9,.52,1.63-.032,1.63-1.232Z" fill="#e8b185"/></g><g><path d="M124.876,225.007h0c.9,.52,1.63-.032,1.63-1.232v-7.999c0-1.2-.73-2.595-1.63-3.115h0c-.9-.52-1.63,.032-1.63,1.232v7.999c0,1.2,.73,2.595,1.63,3.115Z" fill="#e8b185"/><path d="M129.506,221.508h0c0-1.2-.73-2.595-1.63-3.115l-6-3.464c-.9-.52-1.63,.032-1.63,1.232h0c0,1.2,.73,2.595,1.63,3.115l6,3.464c.9,.52,1.63-.032,1.63-1.232Z" fill="#e8b185"/></g><g><path d="M111.049,217.024h0c.9,.52,1.63-.032,1.63-1.232v-7.999c0-1.2-.73-2.595-1.63-3.115h0c-.9-.52-1.63,.032-1.63,1.232v7.999c0,1.2,.73,2.595,1.63,3.115Z" fill="#e8b185"/><path d="M115.679,213.524h0c0-1.2-.73-2.595-1.63-3.115l-6-3.464c-.9-.52-1.63,.032-1.63,1.232h0c0,1.2,.73,2.595,1.63,3.115l6,3.464c.9,.52,1.63-.032,1.63-1.232Z" fill="#e8b185"/></g></g><g><g><path d="M138.704,251.601h0c.9,.52,1.63-.032,1.63-1.232v-7.999c0-1.2-.73-2.595-1.63-3.115h0c-.9-.52-1.63,.032-1.63,1.232v7.999c0,1.2,.73,2.595,1.63,3.115Z" fill="#e8b185"/><path d="M143.334,248.102h0c0-1.2-.73-2.595-1.63-3.115l-6-3.464c-.9-.52-1.63,.032-1.63,1.232h0c0,1.2,.73,2.595,1.63,3.115l6,3.464c.9,.52,1.63-.032,1.63-1.232Z" fill="#e8b185"/></g><g><path d="M124.876,243.618h0c.9,.52,1.63-.032,1.63-1.232v-7.999c0-1.2-.73-2.595-1.63-3.115h0c-.9-.52-1.63,.032-1.63,1.232v7.999c0,1.2,.73,2.595,1.63,3.115Z" fill="#e8b185"/><path d="M129.506,240.118h0c0-1.2-.73-2.595-1.63-3.115l-6-3.464c-.9-.52-1.63,.032-1.63,1.232h0c0,1.2,.73,2.595,1.63,3.115l6,3.464c.9,.52,1.63-.032,1.63-1.232Z" fill="#e8b185"/></g><g><path d="M111.049,235.635h0c.9,.52,1.63-.032,1.63-1.232v-7.999c0-1.2-.73-2.595-1.63-3.115h0c-.9-.52-1.63,.032-1.63,1.232v7.999c0,1.2,.73,2.595,1.63,3.115Z" fill="#e8b185"/><path d="M115.679,232.135h0c0-1.2-.73-2.595-1.63-3.115l-6-3.464c-.9-.52-1.63,.032-1.63,1.232h0c0,1.2,.73,2.595,1.63,3.115l6,3.464c.9,.52,1.63-.032,1.63-1.232Z" fill="#e8b185"/></g></g></g><g><g><g><path d="M138.704,159.417h0c.9,.52,1.63-.032,1.63-1.232v-7.999c0-1.2-.73-2.595-1.63-3.115h0c-.9-.52-1.63,.032-1.63,1.232v7.999c0,1.2,.73,2.595,1.63,3.115Z" fill="#e8b185"/><path d="M143.334,155.917h0c0-1.2-.73-2.595-1.63-3.115l-6-3.464c-.9-.52-1.63,.032-1.63,1.232h0c0,1.2,.73,2.595,1.63,3.115l6,3.464c.9,.52,1.63-.032,1.63-1.232Z" fill="#e8b185"/></g><g><path d="M124.876,151.433h0c.9,.52,1.63-.032,1.63-1.232v-7.999c0-1.2-.73-2.595-1.63-3.115h0c-.9-.52-1.63,.032-1.63,1.232v7.999c0,1.2,.73,2.595,1.63,3.115Z" fill="#e8b185"/><path d="M129.506,147.934h0c0-1.2-.73-2.595-1.63-3.115l-6-3.464c-.9-.52-1.63,.032-1.63,1.232h0c0,1.2,.73,2.595,1.63,3.115l6,3.464c.9,.52,1.63-.032,1.63-1.232Z" fill="#e8b185"/></g><g><path d="M111.049,143.45h0c.9,.52,1.63-.032,1.63-1.232v-7.999c0-1.2-.73-2.595-1.63-3.115h0c-.9-.52-1.63,.032-1.63,1.232v7.999c0,1.2,.73,2.595,1.63,3.115Z" fill="#e8b185"/><path d="M115.679,139.95h0c0-1.2-.73-2.595-1.63-3.115l-6-3.464c-.9-.52-1.63,.032-1.63,1.232h0c0,1.2,.73,2.595,1.63,3.115l6,3.464c.9,.52,1.63-.032,1.63-1.232Z" fill="#e8b185"/></g></g><g><g><path d="M138.704,178.027h0c.9,.52,1.63-.032,1.63-1.232v-7.999c0-1.2-.73-2.595-1.63-3.115h0c-.9-.52-1.63,.032-1.63,1.232v7.999c0,1.2,.73,2.595,1.63,3.115Z" fill="#e8b185"/><path d="M143.334,174.528h0c0-1.2-.73-2.595-1.63-3.115l-6-3.464c-.9-.52-1.63,.032-1.63,1.232h0c0,1.2,.73,2.595,1.63,3.115l6,3.464c.9,.52,1.63-.032,1.63-1.232Z" fill="#e8b185"/></g><g><path d="M124.876,170.044h0c.9,.52,1.63-.032,1.63-1.232v-7.999c0-1.2-.73-2.595-1.63-3.115h0c-.9-.52-1.63,.032-1.63,1.232v7.999c0,1.2,.73,2.595,1.63,3.115Z" fill="#e8b185"/><path d="M129.506,166.544h0c0-1.2-.73-2.595-1.63-3.115l-6-3.464c-.9-.52-1.63,.032-1.63,1.232h0c0,1.2,.73,2.595,1.63,3.115l6,3.464c.9,.52,1.63-.032,1.63-1.232Z" fill="#e8b185"/></g><g><path d="M111.049,162.061h0c.9,.52,1.63-.032,1.63-1.232v-7.999c0-1.2-.73-2.595-1.63-3.115h0c-.9-.52-1.63,.032-1.63,1.232v7.999c0,1.2,.73,2.595,1.63,3.115Z" fill="#e8b185"/><path d="M115.679,158.561h0c0-1.2-.73-2.595-1.63-3.115l-6-3.464c-.9-.52-1.63,.032-1.63,1.232h0c0,1.2,.73,2.595,1.63,3.115l6,3.464c.9,.52,1.63-.032,1.63-1.232Z" fill="#e8b185"/></g></g><g><g><path d="M138.704,196.638h0c.9,.52,1.63-.032,1.63-1.232v-7.999c0-1.2-.73-2.595-1.63-3.115h0c-.9-.52-1.63,.032-1.63,1.232v7.999c0,1.2,.73,2.595,1.63,3.115Z" fill="#e8b185"/><path d="M143.334,193.138h0c0-1.2-.73-2.595-1.63-3.115l-6-3.464c-.9-.52-1.63,.032-1.63,1.232h0c0,1.2,.73,2.595,1.63,3.115l6,3.464c.9,.52,1.63-.032,1.63-1.232Z" fill="#e8b185"/></g><g><path d="M124.876,188.655h0c.9,.52,1.63-.032,1.63-1.232v-7.999c0-1.2-.73-2.595-1.63-3.115h0c-.9-.52-1.63,.032-1.63,1.232v7.999c0,1.2,.73,2.595,1.63,3.115Z" fill="#e8b185"/><path d="M129.506,185.155h0c0-1.2-.73-2.595-1.63-3.115l-6-3.464c-.9-.52-1.63,.032-1.63,1.232h0c0,1.2,.73,2.595,1.63,3.115l6,3.464c.9,.52,1.63-.032,1.63-1.232Z" fill="#e8b185"/></g><g><path d="M111.049,180.671h0c.9,.52,1.63-.032,1.63-1.232v-7.999c0-1.2-.73-2.595-1.63-3.115h0c-.9-.52-1.63,.032-1.63,1.232v7.999c0,1.2,.73,2.595,1.63,3.115Z" fill="#e8b185"/><path d="M115.679,177.172h0c0-1.2-.73-2.595-1.63-3.115l-6-3.464c-.9-.52-1.63,.032-1.63,1.232h0c0,1.2,.73,2.595,1.63,3.115l6,3.464c.9,.52,1.63-.032,1.63-1.232Z" fill="#e8b185"/></g></g></g><g><g><g><path d="M138.704,104.453h0c.9,.52,1.63-.032,1.63-1.232v-7.999c0-1.2-.73-2.595-1.63-3.115h0c-.9-.52-1.63,.032-1.63,1.232v7.999c0,1.2,.73,2.595,1.63,3.115Z" fill="#e8b185"/><path d="M143.334,100.954h0c0-1.2-.73-2.595-1.63-3.115l-6-3.464c-.9-.52-1.63,.032-1.63,1.232h0c0,1.2,.73,2.595,1.63,3.115l6,3.464c.9,.52,1.63-.032,1.63-1.232Z" fill="#e8b185"/></g><g><path d="M124.876,96.47h0c.9,.52,1.63-.032,1.63-1.232v-7.999c0-1.2-.73-2.595-1.63-3.115h0c-.9-.52-1.63,.032-1.63,1.232v7.999c0,1.2,.73,2.595,1.63,3.115Z" fill="#e8b185"/><path d="M129.506,92.97h0c0-1.2-.73-2.595-1.63-3.115l-6-3.464c-.9-.52-1.63,.032-1.63,1.232h0c0,1.2,.73,2.595,1.63,3.115l6,3.464c.9,.52,1.63-.032,1.63-1.232Z" fill="#e8b185"/></g><g><path d="M111.049,88.487h0c.9,.52,1.63-.032,1.63-1.232v-7.999c0-1.2-.73-2.595-1.63-3.115h0c-.9-.52-1.63,.032-1.63,1.232v7.999c0,1.2,.73,2.595,1.63,3.115Z" fill="#e8b185"/><path d="M115.679,84.987h0c0-1.2-.73-2.595-1.63-3.115l-6-3.464c-.9-.52-1.63,.032-1.63,1.232h0c0,1.2,.73,2.595,1.63,3.115l6,3.464c.9,.52,1.63-.032,1.63-1.232Z" fill="#e8b185"/></g></g><g><g><path d="M138.704,123.064h0c.9,.52,1.63-.032,1.63-1.232v-7.999c0-1.2-.73-2.595-1.63-3.115h0c-.9-.52-1.63,.032-1.63,1.232v7.999c0,1.2,.73,2.595,1.63,3.115Z" fill="#e8b185"/><path d="M143.334,119.564h0c0-1.2-.73-2.595-1.63-3.115l-6-3.464c-.9-.52-1.63,.032-1.63,1.232h0c0,1.2,.73,2.595,1.63,3.115l6,3.464c.9,.52,1.63-.032,1.63-1.232Z" fill="#e8b185"/></g><g><path d="M124.876,115.081h0c.9,.52,1.63-.032,1.63-1.232v-7.999c0-1.2-.73-2.595-1.63-3.115h0c-.9-.52-1.63,.032-1.63,1.232v7.999c0,1.2,.73,2.595,1.63,3.115Z" fill="#e8b185"/><path d="M129.506,111.581h0c0-1.2-.73-2.595-1.63-3.115l-6-3.464c-.9-.52-1.63,.032-1.63,1.232h0c0,1.2,.73,2.595,1.63,3.115l6,3.464c.9,.52,1.63-.032,1.63-1.232Z" fill="#e8b185"/></g><g><path d="M111.049,107.097h0c.9,.52,1.63-.032,1.63-1.232v-7.999c0-1.2-.73-2.595-1.63-3.115h0c-.9-.52-1.63,.032-1.63,1.232v7.999c0,1.2,.73,2.595,1.63,3.115Z" fill="#e8b185"/><path d="M115.679,103.598h0c0-1.2-.73-2.595-1.63-3.115l-6-3.464c-.9-.52-1.63,.032-1.63,1.232h0c0,1.2,.73,2.595,1.63,3.115l6,3.464c.9,.52,1.63-.032,1.63-1.232Z" fill="#e8b185"/></g></g><g><g><path d="M138.704,141.675h0c.9,.52,1.63-.032,1.63-1.232v-7.999c0-1.2-.73-2.595-1.63-3.115h0c-.9-.52-1.63,.032-1.63,1.232v7.999c0,1.2,.73,2.595,1.63,3.115Z" fill="#e8b185"/><path d="M143.334,138.175h0c0-1.2-.73-2.595-1.63-3.115l-6-3.464c-.9-.52-1.63,.032-1.63,1.232h0c0,1.2,.73,2.595,1.63,3.115l6,3.464c.9,.52,1.63-.032,1.63-1.232Z" fill="#e8b185"/></g><g><path d="M124.876,133.691h0c.9,.52,1.63-.032,1.63-1.232v-7.999c0-1.2-.73-2.595-1.63-3.115h0c-.9-.52-1.63,.032-1.63,1.232v7.999c0,1.2,.73,2.595,1.63,3.115Z" fill="#e8b185"/><path d="M129.506,130.192h0c0-1.2-.73-2.595-1.63-3.115l-6-3.464c-.9-.52-1.63,.032-1.63,1.232h0c0,1.2,.73,2.595,1.63,3.115l6,3.464c.9,.52,1.63-.032,1.63-1.232Z" fill="#e8b185"/></g><g><path d="M111.049,125.708h0c.9,.52,1.63-.032,1.63-1.232v-7.999c0-1.2-.73-2.595-1.63-3.115h0c-.9-.52-1.63,.032-1.63,1.232v7.999c0,1.2,.73,2.595,1.63,3.115Z" fill="#e8b185"/><path d="M115.679,122.208h0c0-1.2-.73-2.595-1.63-3.115l-6-3.464c-.9-.52-1.63,.032-1.63,1.232h0c0,1.2,.73,2.595,1.63,3.115l6,3.464c.9,.52,1.63-.032,1.63-1.232Z" fill="#e8b185"/></g></g></g><g><g><path d="M97.511,80.669h0c.9,.52,1.63-.032,1.63-1.232v-7.999c0-1.2-.73-2.595-1.63-3.115h0c-.9-.52-1.63,.032-1.63,1.232v7.999c0,1.2,.73,2.595,1.63,3.115Z" fill="#e8b185"/><path d="M102.141,77.169h0c0-1.2-.73-2.595-1.63-3.115l-6-3.464c-.9-.52-1.63,.032-1.63,1.232h0c0,1.2,.73,2.595,1.63,3.115l6,3.464c.9,.52,1.63-.032,1.63-1.232Z" fill="#e8b185"/></g><g><path d="M83.684,72.686h0c.9,.52,1.63-.032,1.63-1.232v-7.999c0-1.2-.73-2.595-1.63-3.115h0c-.9-.52-1.63,.032-1.63,1.232v7.999c0,1.2,.73,2.595,1.63,3.115Z" fill="#e8b185"/><path d="M88.314,69.186h0c0-1.2-.73-2.595-1.63-3.115l-6-3.464c-.9-.52-1.63,.032-1.63,1.232h0c0,1.2,.73,2.595,1.63,3.115l6,3.464c.9,.52,1.63-.032,1.63-1.232Z" fill="#e8b185"/></g></g><g><g><path d="M97.511,99.28h0c.9,.52,1.63-.032,1.63-1.232v-7.999c0-1.2-.73-2.595-1.63-3.115h0c-.9-.52-1.63,.032-1.63,1.232v7.999c0,1.2,.73,2.595,1.63,3.115Z" fill="#e8b185"/><path d="M102.141,95.78h0c0-1.2-.73-2.595-1.63-3.115l-6-3.464c-.9-.52-1.63,.032-1.63,1.232h0c0,1.2,.73,2.595,1.63,3.115l6,3.464c.9,.52,1.63-.032,1.63-1.232Z" fill="#e8b185"/></g><g><path d="M83.684,91.296h0c.9,.52,1.63-.032,1.63-1.232v-7.999c0-1.2-.73-2.595-1.63-3.115h0c-.9-.52-1.63,.032-1.63,1.232v7.999c0,1.2,.73,2.595,1.63,3.115Z" fill="#e8b185"/><path d="M88.314,87.797h0c0-1.2-.73-2.595-1.63-3.115l-6-3.464c-.9-.52-1.63,.032-1.63,1.232h0c0,1.2,.73,2.595,1.63,3.115l6,3.464c.9,.52,1.63-.032,1.63-1.232Z" fill="#e8b185"/></g></g><g><g><path d="M97.511,117.89h0c.9,.52,1.63-.032,1.63-1.232v-7.999c0-1.2-.73-2.595-1.63-3.115h0c-.9-.52-1.63,.032-1.63,1.232v7.999c0,1.2,.73,2.595,1.63,3.115Z" fill="#e8b185"/><path d="M102.141,114.391h0c0-1.2-.73-2.595-1.63-3.115l-6-3.464c-.9-.52-1.63,.032-1.63,1.232h0c0,1.2,.73,2.595,1.63,3.115l6,3.464c.9,.52,1.63-.032,1.63-1.232Z" fill="#e8b185"/></g><g><path d="M83.684,109.907h0c.9,.52,1.63-.032,1.63-1.232v-7.999c0-1.2-.73-2.595-1.63-3.115h0c-.9-.52-1.63,.032-1.63,1.232v7.999c0,1.2,.73,2.595,1.63,3.115Z" fill="#e8b185"/><path d="M88.314,106.407h0c0-1.2-.73-2.595-1.63-3.115l-6-3.464c-.9-.52-1.63,.032-1.63,1.232h0c0,1.2,.73,2.595,1.63,3.115l6,3.464c.9,.52,1.63-.032,1.63-1.232Z" fill="#e8b185"/></g></g><g><g><g><path d="M97.511,190.596h0c.9,.52,1.63-.032,1.63-1.232v-7.999c0-1.2-.73-2.595-1.63-3.115h0c-.9-.52-1.63,.032-1.63,1.232v7.999c0,1.2,.73,2.595,1.63,3.115Z" fill="#e8b185"/><path d="M102.141,187.096h0c0-1.2-.73-2.595-1.63-3.115l-6-3.464c-.9-.52-1.63,.032-1.63,1.232h0c0,1.2,.73,2.595,1.63,3.115l6,3.464c.9,.52,1.63-.032,1.63-1.232Z" fill="#e8b185"/></g><g><path d="M83.684,182.613h0c.9,.52,1.63-.032,1.63-1.232v-7.999c0-1.2-.73-2.595-1.63-3.115h0c-.9-.52-1.63,.032-1.63,1.232v7.999c0,1.2,.73,2.595,1.63,3.115Z" fill="#e8b185"/><path d="M88.314,179.113h0c0-1.2-.73-2.595-1.63-3.115l-6-3.464c-.9-.52-1.63,.032-1.63,1.232h0c0,1.2,.73,2.595,1.63,3.115l6,3.464c.9,.52,1.63-.032,1.63-1.232Z" fill="#e8b185"/></g></g><g><g><path d="M97.511,209.207h0c.9,.52,1.63-.032,1.63-1.232v-7.999c0-1.2-.73-2.595-1.63-3.115h0c-.9-.52-1.63,.032-1.63,1.232v7.999c0,1.2,.73,2.595,1.63,3.115Z" fill="#e8b185"/><path d="M102.141,205.707h0c0-1.2-.73-2.595-1.63-3.115l-6-3.464c-.9-.52-1.63,.032-1.63,1.232h0c0,1.2,.73,2.595,1.63,3.115l6,3.464c.9,.52,1.63-.032,1.63-1.232Z" fill="#e8b185"/></g><g><path d="M83.684,201.223h0c.9,.52,1.63-.032,1.63-1.232v-7.999c0-1.2-.73-2.595-1.63-3.115h0c-.9-.52-1.63,.032-1.63,1.232v7.999c0,1.2,.73,2.595,1.63,3.115Z" fill="#e8b185"/><path d="M88.314,197.724h0c0-1.2-.73-2.595-1.63-3.115l-6-3.464c-.9-.52-1.63,.032-1.63,1.232h0c0,1.2,.73,2.595,1.63,3.115l6,3.464c.9,.52,1.63-.032,1.63-1.232Z" fill="#e8b185"/></g></g><g><g><path d="M97.511,227.817h0c.9,.52,1.63-.032,1.63-1.232v-7.999c0-1.2-.73-2.595-1.63-3.115h0c-.9-.52-1.63,.032-1.63,1.232v7.999c0,1.2,.73,2.595,1.63,3.115Z" fill="#e8b185"/><path d="M102.141,224.318h0c0-1.2-.73-2.595-1.63-3.115l-6-3.464c-.9-.52-1.63,.032-1.63,1.232h0c0,1.2,.73,2.595,1.63,3.115l6,3.464c.9,.52,1.63-.032,1.63-1.232Z" fill="#e8b185"/></g><g><path d="M83.684,219.834h0c.9,.52,1.63-.032,1.63-1.232v-7.999c0-1.2-.73-2.595-1.63-3.115h0c-.9-.52-1.63,.032-1.63,1.232v7.999c0,1.2,.73,2.595,1.63,3.115Z" fill="#e8b185"/><path d="M88.314,216.334h0c0-1.2-.73-2.595-1.63-3.115l-6-3.464c-.9-.52-1.63,.032-1.63,1.232h0c0,1.2,.73,2.595,1.63,3.115l6,3.464c.9,.52,1.63-.032,1.63-1.232Z" fill="#e8b185"/></g></g></g><g><g><g><path d="M97.511,135.633h0c.9,.52,1.63-.032,1.63-1.232v-7.999c0-1.2-.73-2.595-1.63-3.115h0c-.9-.52-1.63,.032-1.63,1.232v7.999c0,1.2,.73,2.595,1.63,3.115Z" fill="#e8b185"/><path d="M102.141,132.133h0c0-1.2-.73-2.595-1.63-3.115l-6-3.464c-.9-.52-1.63,.032-1.63,1.232h0c0,1.2,.73,2.595,1.63,3.115l6,3.464c.9,.52,1.63-.032,1.63-1.232Z" fill="#e8b185"/></g><g><path d="M83.684,127.649h0c.9,.52,1.63-.032,1.63-1.232v-7.999c0-1.2-.73-2.595-1.63-3.115h0c-.9-.52-1.63,.032-1.63,1.232v7.999c0,1.2,.73,2.595,1.63,3.115Z" fill="#e8b185"/><path d="M88.314,124.15h0c0-1.2-.73-2.595-1.63-3.115l-6-3.464c-.9-.52-1.63,.032-1.63,1.232h0c0,1.2,.73,2.595,1.63,3.115l6,3.464c.9,.52,1.63-.032,1.63-1.232Z" fill="#e8b185"/></g></g><g><g><path d="M97.511,154.243h0c.9,.52,1.63-.032,1.63-1.232v-7.999c0-1.2-.73-2.595-1.63-3.115h0c-.9-.52-1.63,.032-1.63,1.232v7.999c0,1.2,.73,2.595,1.63,3.115Z" fill="#e8b185"/><path d="M102.141,150.744h0c0-1.2-.73-2.595-1.63-3.115l-6-3.464c-.9-.52-1.63,.032-1.63,1.232h0c0,1.2,.73,2.595,1.63,3.115l6,3.464c.9,.52,1.63-.032,1.63-1.232Z" fill="#e8b185"/></g><g><path d="M83.684,146.26h0c.9,.52,1.63-.032,1.63-1.232v-7.999c0-1.2-.73-2.595-1.63-3.115h0c-.9-.52-1.63,.032-1.63,1.232v7.999c0,1.2,.73,2.595,1.63,3.115Z" fill="#e8b185"/><path d="M88.314,142.76h0c0-1.2-.73-2.595-1.63-3.115l-6-3.464c-.9-.52-1.63,.032-1.63,1.232h0c0,1.2,.73,2.595,1.63,3.115l6,3.464c.9,.52,1.63-.032,1.63-1.232Z" fill="#e8b185"/></g></g><g><g><path d="M97.511,172.854h0c.9,.52,1.63-.032,1.63-1.232v-7.999c0-1.2-.73-2.595-1.63-3.115h0c-.9-.52-1.63,.032-1.63,1.232v7.999c0,1.2,.73,2.595,1.63,3.115Z" fill="#e8b185"/><path d="M102.141,169.354h0c0-1.2-.73-2.595-1.63-3.115l-6-3.464c-.9-.52-1.63,.032-1.63,1.232h0c0,1.2,.73,2.595,1.63,3.115l6,3.464c.9,.52,1.63-.032,1.63-1.232Z" fill="#e8b185"/></g><g><path d="M83.684,164.87h0c.9,.52,1.63-.032,1.63-1.232v-7.999c0-1.2-.73-2.595-1.63-3.115h0c-.9-.52-1.63,.032-1.63,1.232v7.999c0,1.2,.73,2.595,1.63,3.115Z" fill="#e8b185"/><path d="M88.314,161.371h0c0-1.2-.73-2.595-1.63-3.115l-6-3.464c-.9-.52-1.63,.032-1.63,1.232h0c0,1.2,.73,2.595,1.63,3.115l6,3.464c.9,.52,1.63-.032,1.63-1.232Z" fill="#e8b185"/></g></g></g></g></g><polygon points="147.957 87.377 152.639 84.674 79.984 42.753 75.302 45.456 147.957 87.377" fill="#ffcfae"/><polygon points="147.957 87.377 152.639 84.674 152.639 264.226 147.957 266.929 147.957 87.377" fill="#e8b185"/></g><g><g><polygon points="150.642 268.911 223.297 310.858 223.297 131.345 150.642 89.397 150.642 268.911" fill="#aa7552"/><g><g><g><g><path d="M214.043,258.285h0c.9,.52,1.63-.032,1.63-1.232v-7.999c0-1.2-.73-2.595-1.63-3.115h0c-.9-.52-1.63,.032-1.63,1.232v7.999c0,1.2,.73,2.595,1.63,3.115Z" fill="#e8b185"/><path d="M218.673,254.786h0c0-1.2-.73-2.595-1.63-3.115l-6-3.464c-.9-.52-1.63,.032-1.63,1.232h0c0,1.2,.73,2.595,1.63,3.115l6,3.464c.9,.52,1.63-.032,1.63-1.232Z" fill="#e8b185"/></g><g><path d="M200.215,250.302h0c.9,.52,1.63-.032,1.63-1.232v-7.999c0-1.2-.73-2.595-1.63-3.115h0c-.9-.52-1.63,.032-1.63,1.232v7.999c0,1.2,.73,2.595,1.63,3.115Z" fill="#e8b185"/><path d="M204.845,246.802h0c0-1.2-.73-2.595-1.63-3.115l-6-3.464c-.9-.52-1.63,.032-1.63,1.232h0c0,1.2,.73,2.595,1.63,3.115l6,3.464c.9,.52,1.63-.032,1.63-1.232Z" fill="#e8b185"/></g><g><path d="M186.388,242.319h0c.9,.52,1.63-.032,1.63-1.232v-7.999c0-1.2-.73-2.595-1.63-3.115h0c-.9-.52-1.63,.032-1.63,1.232v7.999c0,1.2,.73,2.595,1.63,3.115Z" fill="#e8b185"/><path d="M191.018,238.819h0c0-1.2-.73-2.595-1.63-3.115l-6-3.464c-.9-.52-1.63,.032-1.63,1.232h0c0,1.2,.73,2.595,1.63,3.115l6,3.464c.9,.52,1.63-.032,1.63-1.232Z" fill="#e8b185"/></g></g><g><g><path d="M214.043,276.896h0c.9,.52,1.63-.032,1.63-1.232v-7.999c0-1.2-.73-2.595-1.63-3.115h0c-.9-.52-1.63,.032-1.63,1.232v7.999c0,1.2,.73,2.595,1.63,3.115Z" fill="#e8b185"/><path d="M218.673,273.396h0c0-1.2-.73-2.595-1.63-3.115l-6-3.464c-.9-.52-1.63,.032-1.63,1.232h0c0,1.2,.73,2.595,1.63,3.115l6,3.464c.9,.52,1.63-.032,1.63-1.232Z" fill="#e8b185"/></g><g><path d="M200.215,268.913h0c.9,.52,1.63-.032,1.63-1.232v-7.999c0-1.2-.73-2.595-1.63-3.115h0c-.9-.52-1.63,.032-1.63,1.232v7.999c0,1.2,.73,2.595,1.63,3.115Z" fill="#e8b185"/><path d="M204.845,265.413h0c0-1.2-.73-2.595-1.63-3.115l-6-3.464c-.9-.52-1.63,.032-1.63,1.232h0c0,1.2,.73,2.595,1.63,3.115l6,3.464c.9,.52,1.63-.032,1.63-1.232Z" fill="#e8b185"/></g><g><path d="M186.388,260.929h0c.9,.52,1.63-.032,1.63-1.232v-7.999c0-1.2-.73-2.595-1.63-3.115h0c-.9-.52-1.63,.032-1.63,1.232v7.999c0,1.2,.73,2.595,1.63,3.115Z" fill="#e8b185"/><path d="M191.018,257.43h0c0-1.2-.73-2.595-1.63-3.115l-6-3.464c-.9-.52-1.63,.032-1.63,1.232h0c0,1.2,.73,2.595,1.63,3.115l6,3.464c.9,.52,1.63-.032,1.63-1.232Z" fill="#e8b185"/></g></g><g><g><path d="M214.043,295.507h0c.9,.52,1.63-.032,1.63-1.232v-7.999c0-1.2-.73-2.595-1.63-3.115h0c-.9-.52-1.63,.032-1.63,1.232v7.999c0,1.2,.73,2.595,1.63,3.115Z" fill="#e8b185"/><path d="M218.673,292.007h0c0-1.2-.73-2.595-1.63-3.115l-6-3.464c-.9-.52-1.63,.032-1.63,1.232h0c0,1.2,.73,2.595,1.63,3.115l6,3.464c.9,.52,1.63-.032,1.63-1.232Z" fill="#e8b185"/></g><g><path d="M200.215,287.523h0c.9,.52,1.63-.032,1.63-1.232v-7.999c0-1.2-.73-2.595-1.63-3.115h0c-.9-.52-1.63,.032-1.63,1.232v7.999c0,1.2,.73,2.595,1.63,3.115Z" fill="#e8b185"/><path d="M204.845,284.024h0c0-1.2-.73-2.595-1.63-3.115l-6-3.464c-.9-.52-1.63,.032-1.63,1.232h0c0,1.2,.73,2.595,1.63,3.115l6,3.464c.9,.52,1.63-.032,1.63-1.232Z" fill="#e8b185"/></g><g><path d="M186.388,279.54h0c.9,.52,1.63-.032,1.63-1.232v-7.999c0-1.2-.73-2.595-1.63-3.115h0c-.9-.52-1.63,.032-1.63,1.232v7.999c0,1.2,.73,2.595,1.63,3.115Z" fill="#e8b185"/><path d="M191.018,276.04h0c0-1.2-.73-2.595-1.63-3.115l-6-3.464c-.9-.52-1.63,.032-1.63,1.232h0c0,1.2,.73,2.595,1.63,3.115l6,3.464c.9,.52,1.63-.032,1.63-1.232Z" fill="#e8b185"/></g></g></g><g><g><g><path d="M214.043,203.322h0c.9,.52,1.63-.032,1.63-1.232v-7.999c0-1.2-.73-2.595-1.63-3.115h0c-.9-.52-1.63,.032-1.63,1.232v7.999c0,1.2,.73,2.595,1.63,3.115Z" fill="#e8b185"/><path d="M218.673,199.822h0c0-1.2-.73-2.595-1.63-3.115l-6-3.464c-.9-.52-1.63,.032-1.63,1.232h0c0,1.2,.73,2.595,1.63,3.115l6,3.464c.9,.52,1.63-.032,1.63-1.232Z" fill="#e8b185"/></g><g><path d="M200.215,195.338h0c.9,.52,1.63-.032,1.63-1.232v-7.999c0-1.2-.73-2.595-1.63-3.115h0c-.9-.52-1.63,.032-1.63,1.232v7.999c0,1.2,.73,2.595,1.63,3.115Z" fill="#e8b185"/><path d="M204.845,191.839h0c0-1.2-.73-2.595-1.63-3.115l-6-3.464c-.9-.52-1.63,.032-1.63,1.232h0c0,1.2,.73,2.595,1.63,3.115l6,3.464c.9,.52,1.63-.032,1.63-1.232Z" fill="#e8b185"/></g><g><path d="M186.388,187.355h0c.9,.52,1.63-.032,1.63-1.232v-7.999c0-1.2-.73-2.595-1.63-3.115h0c-.9-.52-1.63,.032-1.63,1.232v7.999c0,1.2,.73,2.595,1.63,3.115Z" fill="#e8b185"/><path d="M191.018,183.855h0c0-1.2-.73-2.595-1.63-3.115l-6-3.464c-.9-.52-1.63,.032-1.63,1.232h0c0,1.2,.73,2.595,1.63,3.115l6,3.464c.9,.52,1.63-.032,1.63-1.232Z" fill="#e8b185"/></g></g><g><g><path d="M214.043,221.932h0c.9,.52,1.63-.032,1.63-1.232v-7.999c0-1.2-.73-2.595-1.63-3.115h0c-.9-.52-1.63,.032-1.63,1.232v7.999c0,1.2,.73,2.595,1.63,3.115Z" fill="#e8b185"/><path d="M218.673,218.433h0c0-1.2-.73-2.595-1.63-3.115l-6-3.464c-.9-.52-1.63,.032-1.63,1.232h0c0,1.2,.73,2.595,1.63,3.115l6,3.464c.9,.52,1.63-.032,1.63-1.232Z" fill="#e8b185"/></g><g><path d="M200.215,213.949h0c.9,.52,1.63-.032,1.63-1.232v-7.999c0-1.2-.73-2.595-1.63-3.115h0c-.9-.52-1.63,.032-1.63,1.232v7.999c0,1.2,.73,2.595,1.63,3.115Z" fill="#e8b185"/><path d="M204.845,210.449h0c0-1.2-.73-2.595-1.63-3.115l-6-3.464c-.9-.52-1.63,.032-1.63,1.232h0c0,1.2,.73,2.595,1.63,3.115l6,3.464c.9,.52,1.63-.032,1.63-1.232Z" fill="#e8b185"/></g><g><path d="M186.388,205.966h0c.9,.52,1.63-.032,1.63-1.232v-7.999c0-1.2-.73-2.595-1.63-3.115h0c-.9-.52-1.63,.032-1.63,1.232v7.999c0,1.2,.73,2.595,1.63,3.115Z" fill="#e8b185"/><path d="M191.018,202.466h0c0-1.2-.73-2.595-1.63-3.115l-6-3.464c-.9-.52-1.63,.032-1.63,1.232h0c0,1.2,.73,2.595,1.63,3.115l6,3.464c.9,.52,1.63-.032,1.63-1.232Z" fill="#e8b185"/></g></g><g><g><path d="M214.043,240.543h0c.9,.52,1.63-.032,1.63-1.232v-7.999c0-1.2-.73-2.595-1.63-3.115h0c-.9-.52-1.63,.032-1.63,1.232v7.999c0,1.2,.73,2.595,1.63,3.115Z" fill="#e8b185"/><path d="M218.673,237.043h0c0-1.2-.73-2.595-1.63-3.115l-6-3.464c-.9-.52-1.63,.032-1.63,1.232h0c0,1.2,.73,2.595,1.63,3.115l6,3.464c.9,.52,1.63-.032,1.63-1.232Z" fill="#e8b185"/></g><g><path d="M200.215,232.56h0c.9,.52,1.63-.032,1.63-1.232v-7.999c0-1.2-.73-2.595-1.63-3.115h0c-.9-.52-1.63,.032-1.63,1.232v7.999c0,1.2,.73,2.595,1.63,3.115Z" fill="#e8b185"/><path d="M204.845,229.06h0c0-1.2-.73-2.595-1.63-3.115l-6-3.464c-.9-.52-1.63,.032-1.63,1.232h0c0,1.2,.73,2.595,1.63,3.115l6,3.464c.9,.52,1.63-.032,1.63-1.232Z" fill="#e8b185"/></g><g><path d="M186.388,224.576h0c.9,.52,1.63-.032,1.63-1.232v-7.999c0-1.2-.73-2.595-1.63-3.115h0c-.9-.52-1.63,.032-1.63,1.232v7.999c0,1.2,.73,2.595,1.63,3.115Z" fill="#e8b185"/><path d="M191.018,221.077h0c0-1.2-.73-2.595-1.63-3.115l-6-3.464c-.9-.52-1.63,.032-1.63,1.232h0c0,1.2,.73,2.595,1.63,3.115l6,3.464c.9,.52,1.63-.032,1.63-1.232Z" fill="#e8b185"/></g></g></g><g><g><g><path d="M214.043,148.358h0c.9,.52,1.63-.032,1.63-1.232v-7.999c0-1.2-.73-2.595-1.63-3.115h0c-.9-.52-1.63,.032-1.63,1.232v7.999c0,1.2,.73,2.595,1.63,3.115Z" fill="#e8b185"/><path d="M218.673,144.859h0c0-1.2-.73-2.595-1.63-3.115l-6-3.464c-.9-.52-1.63,.032-1.63,1.232h0c0,1.2,.73,2.595,1.63,3.115l6,3.464c.9,.52,1.63-.032,1.63-1.232Z" fill="#e8b185"/></g><g><path d="M200.215,140.375h0c.9,.52,1.63-.032,1.63-1.232v-7.999c0-1.2-.73-2.595-1.63-3.115h0c-.9-.52-1.63,.032-1.63,1.232v7.999c0,1.2,.73,2.595,1.63,3.115Z" fill="#e8b185"/><path d="M204.845,136.875h0c0-1.2-.73-2.595-1.63-3.115l-6-3.464c-.9-.52-1.63,.032-1.63,1.232h0c0,1.2,.73,2.595,1.63,3.115l6,3.464c.9,.52,1.63-.032,1.63-1.232Z" fill="#e8b185"/></g><g><path d="M186.388,132.392h0c.9,.52,1.63-.032,1.63-1.232v-7.999c0-1.2-.73-2.595-1.63-3.115h0c-.9-.52-1.63,.032-1.63,1.232v7.999c0,1.2,.73,2.595,1.63,3.115Z" fill="#e8b185"/><path d="M191.018,128.892h0c0-1.2-.73-2.595-1.63-3.115l-6-3.464c-.9-.52-1.63,.032-1.63,1.232h0c0,1.2,.73,2.595,1.63,3.115l6,3.464c.9,.52,1.63-.032,1.63-1.232Z" fill="#e8b185"/></g></g><g><g><path d="M214.043,166.969h0c.9,.52,1.63-.032,1.63-1.232v-7.999c0-1.2-.73-2.595-1.63-3.115h0c-.9-.52-1.63,.032-1.63,1.232v7.999c0,1.2,.73,2.595,1.63,3.115Z" fill="#e8b185"/><path d="M218.673,163.469h0c0-1.2-.73-2.595-1.63-3.115l-6-3.464c-.9-.52-1.63,.032-1.63,1.232h0c0,1.2,.73,2.595,1.63,3.115l6,3.464c.9,.52,1.63-.032,1.63-1.232Z" fill="#e8b185"/></g><g><path d="M200.215,158.986h0c.9,.52,1.63-.032,1.63-1.232v-7.999c0-1.2-.73-2.595-1.63-3.115h0c-.9-.52-1.63,.032-1.63,1.232v7.999c0,1.2,.73,2.595,1.63,3.115Z" fill="#e8b185"/><path d="M204.845,155.486h0c0-1.2-.73-2.595-1.63-3.115l-6-3.464c-.9-.52-1.63,.032-1.63,1.232h0c0,1.2,.73,2.595,1.63,3.115l6,3.464c.9,.52,1.63-.032,1.63-1.232Z" fill="#e8b185"/></g><g><path d="M186.388,151.002h0c.9,.52,1.63-.032,1.63-1.232v-7.999c0-1.2-.73-2.595-1.63-3.115h0c-.9-.52-1.63,.032-1.63,1.232v7.999c0,1.2,.73,2.595,1.63,3.115Z" fill="#e8b185"/><path d="M191.018,147.503h0c0-1.2-.73-2.595-1.63-3.115l-6-3.464c-.9-.52-1.63,.032-1.63,1.232h0c0,1.2,.73,2.595,1.63,3.115l6,3.464c.9,.52,1.63-.032,1.63-1.232Z" fill="#e8b185"/></g></g><g><g><path d="M214.043,185.58h0c.9,.52,1.63-.032,1.63-1.232v-7.999c0-1.2-.73-2.595-1.63-3.115h0c-.9-.52-1.63,.032-1.63,1.232v7.999c0,1.2,.73,2.595,1.63,3.115Z" fill="#e8b185"/><path d="M218.673,182.08h0c0-1.2-.73-2.595-1.63-3.115l-6-3.464c-.9-.52-1.63,.032-1.63,1.232h0c0,1.2,.73,2.595,1.63,3.115l6,3.464c.9,.52,1.63-.032,1.63-1.232Z" fill="#e8b185"/></g><g><path d="M200.215,177.596h0c.9,.52,1.63-.032,1.63-1.232v-7.999c0-1.2-.73-2.595-1.63-3.115h0c-.9-.52-1.63,.032-1.63,1.232v7.999c0,1.2,.73,2.595,1.63,3.115Z" fill="#e8b185"/><path d="M204.845,174.097h0c0-1.2-.73-2.595-1.63-3.115l-6-3.464c-.9-.52-1.63,.032-1.63,1.232h0c0,1.2,.73,2.595,1.63,3.115l6,3.464c.9,.52,1.63-.032,1.63-1.232Z" fill="#e8b185"/></g><g><path d="M186.388,169.613h0c.9,.52,1.63-.032,1.63-1.232v-7.999c0-1.2-.73-2.595-1.63-3.115h0c-.9-.52-1.63,.032-1.63,1.232v7.999c0,1.2,.73,2.595,1.63,3.115Z" fill="#e8b185"/><path d="M191.018,166.113h0c0-1.2-.73-2.595-1.63-3.115l-6-3.464c-.9-.52-1.63,.032-1.63,1.232h0c0,1.2,.73,2.595,1.63,3.115l6,3.464c.9,.52,1.63-.032,1.63-1.232Z" fill="#e8b185"/></g></g></g><g><g><path d="M172.85,124.574h0c.9,.52,1.63-.032,1.63-1.232v-7.999c0-1.2-.73-2.595-1.63-3.115h0c-.9-.52-1.63,.032-1.63,1.232v7.999c0,1.2,.73,2.595,1.63,3.115Z" fill="#e8b185"/><path d="M177.48,121.075h0c0-1.2-.73-2.595-1.63-3.115l-6-3.464c-.9-.52-1.63,.032-1.63,1.232h0c0,1.2,.73,2.595,1.63,3.115l6,3.464c.9,.52,1.63-.032,1.63-1.232Z" fill="#e8b185"/></g><g><path d="M159.023,116.591h0c.9,.52,1.63-.032,1.63-1.232v-7.999c0-1.2-.73-2.595-1.63-3.115h0c-.9-.52-1.63,.032-1.63,1.232v7.999c0,1.2,.73,2.595,1.63,3.115Z" fill="#e8b185"/><path d="M163.653,113.091h0c0-1.2-.73-2.595-1.63-3.115l-6-3.464c-.9-.52-1.63,.032-1.63,1.232h0c0,1.2,.73,2.595,1.63,3.115l6,3.464c.9,.52,1.63-.032,1.63-1.232Z" fill="#e8b185"/></g></g><g><g><path d="M172.85,143.185h0c.9,.52,1.63-.032,1.63-1.232v-7.999c0-1.2-.73-2.595-1.63-3.115h0c-.9-.52-1.63,.032-1.63,1.232v7.999c0,1.2,.73,2.595,1.63,3.115Z" fill="#e8b185"/><path d="M177.48,139.685h0c0-1.2-.73-2.595-1.63-3.115l-6-3.464c-.9-.52-1.63,.032-1.63,1.232h0c0,1.2,.73,2.595,1.63,3.115l6,3.464c.9,.52,1.63-.032,1.63-1.232Z" fill="#e8b185"/></g><g><path d="M159.023,135.202h0c.9,.52,1.63-.032,1.63-1.232v-7.999c0-1.2-.73-2.595-1.63-3.115h0c-.9-.52-1.63,.032-1.63,1.232v7.999c0,1.2,.73,2.595,1.63,3.115Z" fill="#e8b185"/><path d="M163.653,131.702h0c0-1.2-.73-2.595-1.63-3.115l-6-3.464c-.9-.52-1.63,.032-1.63,1.232h0c0,1.2,.73,2.595,1.63,3.115l6,3.464c.9,.52,1.63-.032,1.63-1.232Z" fill="#e8b185"/></g></g><g><g><path d="M172.85,161.795h0c.9,.52,1.63-.032,1.63-1.232v-7.999c0-1.2-.73-2.595-1.63-3.115h0c-.9-.52-1.63,.032-1.63,1.232v7.999c0,1.2,.73,2.595,1.63,3.115Z" fill="#e8b185"/><path d="M177.48,158.296h0c0-1.2-.73-2.595-1.63-3.115l-6-3.464c-.9-.52-1.63,.032-1.63,1.232h0c0,1.2,.73,2.595,1.63,3.115l6,3.464c.9,.52,1.63-.032,1.63-1.232Z" fill="#e8b185"/></g><g><path d="M159.023,153.812h0c.9,.52,1.63-.032,1.63-1.232v-7.999c0-1.2-.73-2.595-1.63-3.115h0c-.9-.52-1.63,.032-1.63,1.232v7.999c0,1.2,.73,2.595,1.63,3.115Z" fill="#e8b185"/><path d="M163.653,150.313h0c0-1.2-.73-2.595-1.63-3.115l-6-3.464c-.9-.52-1.63,.032-1.63,1.232h0c0,1.2,.73,2.595,1.63,3.115l6,3.464c.9,.52,1.63-.032,1.63-1.232Z" fill="#e8b185"/></g></g><g><g><g><path d="M172.85,234.501h0c.9,.52,1.63-.032,1.63-1.232v-7.999c0-1.2-.73-2.595-1.63-3.115h0c-.9-.52-1.63,.032-1.63,1.232v7.999c0,1.2,.73,2.595,1.63,3.115Z" fill="#e8b185"/><path d="M177.48,231.001h0c0-1.2-.73-2.595-1.63-3.115l-6-3.464c-.9-.52-1.63,.032-1.63,1.232h0c0,1.2,.73,2.595,1.63,3.115l6,3.464c.9,.52,1.63-.032,1.63-1.232Z" fill="#e8b185"/></g><g><path d="M159.023,226.518h0c.9,.52,1.63-.032,1.63-1.232v-7.999c0-1.2-.73-2.595-1.63-3.115h0c-.9-.52-1.63,.032-1.63,1.232v7.999c0,1.2,.73,2.595,1.63,3.115Z" fill="#e8b185"/><path d="M163.653,223.018h0c0-1.2-.73-2.595-1.63-3.115l-6-3.464c-.9-.52-1.63,.032-1.63,1.232h0c0,1.2,.73,2.595,1.63,3.115l6,3.464c.9,.52,1.63-.032,1.63-1.232Z" fill="#e8b185"/></g></g><g><g><path d="M172.85,253.112h0c.9,.52,1.63-.032,1.63-1.232v-7.999c0-1.2-.73-2.595-1.63-3.115h0c-.9-.52-1.63,.032-1.63,1.232v7.999c0,1.2,.73,2.595,1.63,3.115Z" fill="#e8b185"/><path d="M177.48,249.612h0c0-1.2-.73-2.595-1.63-3.115l-6-3.464c-.9-.52-1.63,.032-1.63,1.232h0c0,1.2,.73,2.595,1.63,3.115l6,3.464c.9,.52,1.63-.032,1.63-1.232Z" fill="#e8b185"/></g><g><path d="M159.023,245.128h0c.9,.52,1.63-.032,1.63-1.232v-7.999c0-1.2-.73-2.595-1.63-3.115h0c-.9-.52-1.63,.032-1.63,1.232v7.999c0,1.2,.73,2.595,1.63,3.115Z" fill="#e8b185"/><path d="M163.653,241.629h0c0-1.2-.73-2.595-1.63-3.115l-6-3.464c-.9-.52-1.63,.032-1.63,1.232h0c0,1.2,.73,2.595,1.63,3.115l6,3.464c.9,.52,1.63-.032,1.63-1.232Z" fill="#e8b185"/></g></g><g><g><path d="M172.85,271.722h0c.9,.52,1.63-.032,1.63-1.232v-7.999c0-1.2-.73-2.595-1.63-3.115h0c-.9-.52-1.63,.032-1.63,1.232v7.999c0,1.2,.73,2.595,1.63,3.115Z" fill="#e8b185"/><path d="M177.48,268.223h0c0-1.2-.73-2.595-1.63-3.115l-6-3.464c-.9-.52-1.63,.032-1.63,1.232h0c0,1.2,.73,2.595,1.63,3.115l6,3.464c.9,.52,1.63-.032,1.63-1.232Z" fill="#e8b185"/></g><g><path d="M159.023,263.739h0c.9,.52,1.63-.032,1.63-1.232v-7.999c0-1.2-.73-2.595-1.63-3.115h0c-.9-.52-1.63,.032-1.63,1.232v7.999c0,1.2,.73,2.595,1.63,3.115Z" fill="#e8b185"/><path d="M163.653,260.239h0c0-1.2-.73-2.595-1.63-3.115l-6-3.464c-.9-.52-1.63,.032-1.63,1.232h0c0,1.2,.73,2.595,1.63,3.115l6,3.464c.9,.52,1.63-.032,1.63-1.232Z" fill="#e8b185"/></g></g></g><g><g><g><path d="M172.85,179.538h0c.9,.52,1.63-.032,1.63-1.232v-7.999c0-1.2-.73-2.595-1.63-3.115h0c-.9-.52-1.63,.032-1.63,1.232v7.999c0,1.2,.73,2.595,1.63,3.115Z" fill="#e8b185"/><path d="M177.48,176.038h0c0-1.2-.73-2.595-1.63-3.115l-6-3.464c-.9-.52-1.63,.032-1.63,1.232h0c0,1.2,.73,2.595,1.63,3.115l6,3.464c.9,.52,1.63-.032,1.63-1.232Z" fill="#e8b185"/></g><g><path d="M159.023,171.554h0c.9,.52,1.63-.032,1.63-1.232v-7.999c0-1.2-.73-2.595-1.63-3.115h0c-.9-.52-1.63,.032-1.63,1.232v7.999c0,1.2,.73,2.595,1.63,3.115Z" fill="#e8b185"/><path d="M163.653,168.055h0c0-1.2-.73-2.595-1.63-3.115l-6-3.464c-.9-.52-1.63,.032-1.63,1.232h0c0,1.2,.73,2.595,1.63,3.115l6,3.464c.9,.52,1.63-.032,1.63-1.232Z" fill="#e8b185"/></g></g><g><g><path d="M172.85,198.148h0c.9,.52,1.63-.032,1.63-1.232v-7.999c0-1.2-.73-2.595-1.63-3.115h0c-.9-.52-1.63,.032-1.63,1.232v7.999c0,1.2,.73,2.595,1.63,3.115Z" fill="#e8b185"/><path d="M177.48,194.649h0c0-1.2-.73-2.595-1.63-3.115l-6-3.464c-.9-.52-1.63,.032-1.63,1.232h0c0,1.2,.73,2.595,1.63,3.115l6,3.464c.9,.52,1.63-.032,1.63-1.232Z" fill="#e8b185"/></g><g><path d="M159.023,190.165h0c.9,.52,1.63-.032,1.63-1.232v-7.999c0-1.2-.73-2.595-1.63-3.115h0c-.9-.52-1.63,.032-1.63,1.232v7.999c0,1.2,.73,2.595,1.63,3.115Z" fill="#e8b185"/><path d="M163.653,186.665h0c0-1.2-.73-2.595-1.63-3.115l-6-3.464c-.9-.52-1.63,.032-1.63,1.232h0c0,1.2,.73,2.595,1.63,3.115l6,3.464c.9,.52,1.63-.032,1.63-1.232Z" fill="#e8b185"/></g></g><g><g><path d="M172.85,216.759h0c.9,.52,1.63-.032,1.63-1.232v-7.999c0-1.2-.73-2.595-1.63-3.115h0c-.9-.52-1.63,.032-1.63,1.232v7.999c0,1.2,.73,2.595,1.63,3.115Z" fill="#e8b185"/><path d="M177.48,213.259h0c0-1.2-.73-2.595-1.63-3.115l-6-3.464c-.9-.52-1.63,.032-1.63,1.232h0c0,1.2,.73,2.595,1.63,3.115l6,3.464c.9,.52,1.63-.032,1.63-1.232Z" fill="#e8b185"/></g><g><path d="M159.023,208.776h0c.9,.52,1.63-.032,1.63-1.232v-7.999c0-1.2-.73-2.595-1.63-3.115h0c-.9-.52-1.63,.032-1.63,1.232v7.999c0,1.2,.73,2.595,1.63,3.115Z" fill="#e8b185"/><path d="M163.653,205.276h0c0-1.2-.73-2.595-1.63-3.115l-6-3.464c-.9-.52-1.63,.032-1.63,1.232h0c0,1.2,.73,2.595,1.63,3.115l6,3.464c.9,.52,1.63-.032,1.63-1.232Z" fill="#e8b185"/></g></g></g></g></g><polygon points="223.297 131.282 227.978 128.579 155.323 86.659 150.642 89.361 223.297 131.282" fill="#ffcfae"/><polygon points="223.297 131.282 227.978 128.579 227.978 308.131 223.297 310.834 223.297 131.282" fill="#e8b185"/></g><g><g><polygon points="223.836 311.203 296.491 353.15 296.491 173.637 223.836 131.689 223.836 311.203" fill="#aa7552"/><g><g><g><g><path d="M287.237,300.577h0c.9,.52,1.63-.032,1.63-1.232v-7.999c0-1.2-.73-2.595-1.63-3.115h0c-.9-.52-1.63,.032-1.63,1.232v7.999c0,1.2,.73,2.595,1.63,3.115Z" fill="#e8b185"/><path d="M291.867,297.078h0c0-1.2-.73-2.595-1.63-3.115l-6-3.464c-.9-.52-1.63,.032-1.63,1.232h0c0,1.2,.73,2.595,1.63,3.115l6,3.464c.9,.52,1.63-.032,1.63-1.232Z" fill="#e8b185"/></g><g><path d="M273.409,292.594h0c.9,.52,1.63-.032,1.63-1.232v-7.999c0-1.2-.73-2.595-1.63-3.115h0c-.9-.52-1.63,.032-1.63,1.232v7.999c0,1.2,.73,2.595,1.63,3.115Z" fill="#e8b185"/><path d="M278.04,289.094h0c0-1.2-.73-2.595-1.63-3.115l-6-3.464c-.9-.52-1.63,.032-1.63,1.232h0c0,1.2,.73,2.595,1.63,3.115l6,3.464c.9,.52,1.63-.032,1.63-1.232Z" fill="#e8b185"/></g><g><path d="M259.582,284.611h0c.9,.52,1.63-.032,1.63-1.232v-7.999c0-1.2-.73-2.595-1.63-3.115h0c-.9-.52-1.63,.032-1.63,1.232v7.999c0,1.2,.73,2.595,1.63,3.115Z" fill="#e8b185"/><path d="M264.212,281.111h0c0-1.2-.73-2.595-1.63-3.115l-6-3.464c-.9-.52-1.63,.032-1.63,1.232h0c0,1.2,.73,2.595,1.63,3.115l6,3.464c.9,.52,1.63-.032,1.63-1.232Z" fill="#e8b185"/></g></g><g><g><path d="M287.237,319.188h0c.9,.52,1.63-.032,1.63-1.232v-7.999c0-1.2-.73-2.595-1.63-3.115h0c-.9-.52-1.63,.032-1.63,1.232v7.999c0,1.2,.73,2.595,1.63,3.115Z" fill="#e8b185"/><path d="M291.867,315.688h0c0-1.2-.73-2.595-1.63-3.115l-6-3.464c-.9-.52-1.63,.032-1.63,1.232h0c0,1.2,.73,2.595,1.63,3.115l6,3.464c.9,.52,1.63-.032,1.63-1.232Z" fill="#e8b185"/></g><g><path d="M273.409,311.205h0c.9,.52,1.63-.032,1.63-1.232v-7.999c0-1.2-.73-2.595-1.63-3.115h0c-.9-.52-1.63,.032-1.63,1.232v7.999c0,1.2,.73,2.595,1.63,3.115Z" fill="#e8b185"/><path d="M278.04,307.705h0c0-1.2-.73-2.595-1.63-3.115l-6-3.464c-.9-.52-1.63,.032-1.63,1.232h0c0,1.2,.73,2.595,1.63,3.115l6,3.464c.9,.52,1.63-.032,1.63-1.232Z" fill="#e8b185"/></g><g><path d="M259.582,303.221h0c.9,.52,1.63-.032,1.63-1.232v-7.999c0-1.2-.73-2.595-1.63-3.115h0c-.9-.52-1.63,.032-1.63,1.232v7.999c0,1.2,.73,2.595,1.63,3.115Z" fill="#e8b185"/><path d="M264.212,299.722h0c0-1.2-.73-2.595-1.63-3.115l-6-3.464c-.9-.52-1.63,.032-1.63,1.232h0c0,1.2,.73,2.595,1.63,3.115l6,3.464c.9,.52,1.63-.032,1.63-1.232Z" fill="#e8b185"/></g></g><g><g><path d="M287.237,337.799h0c.9,.52,1.63-.032,1.63-1.232v-7.999c0-1.2-.73-2.595-1.63-3.115h0c-.9-.52-1.63,.032-1.63,1.232v7.999c0,1.2,.73,2.595,1.63,3.115Z" fill="#e8b185"/><path d="M291.867,334.299h0c0-1.2-.73-2.595-1.63-3.115l-6-3.464c-.9-.52-1.63,.032-1.63,1.232h0c0,1.2,.73,2.595,1.63,3.115l6,3.464c.9,.52,1.63-.032,1.63-1.232Z" fill="#e8b185"/></g><g><path d="M273.409,329.815h0c.9,.52,1.63-.032,1.63-1.232v-7.999c0-1.2-.73-2.595-1.63-3.115h0c-.9-.52-1.63,.032-1.63,1.232v7.999c0,1.2,.73,2.595,1.63,3.115Z" fill="#e8b185"/><path d="M278.04,326.316h0c0-1.2-.73-2.595-1.63-3.115l-6-3.464c-.9-.52-1.63,.032-1.63,1.232h0c0,1.2,.73,2.595,1.63,3.115l6,3.464c.9,.52,1.63-.032,1.63-1.232Z" fill="#e8b185"/></g><g><path d="M259.582,321.832h0c.9,.52,1.63-.032,1.63-1.232v-7.999c0-1.2-.73-2.595-1.63-3.115h0c-.9-.52-1.63,.032-1.63,1.232v7.999c0,1.2,.73,2.595,1.63,3.115Z" fill="#e8b185"/><path d="M264.212,318.332h0c0-1.2-.73-2.595-1.63-3.115l-6-3.464c-.9-.52-1.63,.032-1.63,1.232h0c0,1.2,.73,2.595,1.63,3.115l6,3.464c.9,.52,1.63-.032,1.63-1.232Z" fill="#e8b185"/></g></g></g><g><g><g><path d="M287.237,245.614h0c.9,.52,1.63-.032,1.63-1.232v-7.999c0-1.2-.73-2.595-1.63-3.115h0c-.9-.52-1.63,.032-1.63,1.232v7.999c0,1.2,.73,2.595,1.63,3.115Z" fill="#e8b185"/><path d="M291.867,242.114h0c0-1.2-.73-2.595-1.63-3.115l-6-3.464c-.9-.52-1.63,.032-1.63,1.232h0c0,1.2,.73,2.595,1.63,3.115l6,3.464c.9,.52,1.63-.032,1.63-1.232Z" fill="#e8b185"/></g><g><path d="M273.409,237.63h0c.9,.52,1.63-.032,1.63-1.232v-7.999c0-1.2-.73-2.595-1.63-3.115h0c-.9-.52-1.63,.032-1.63,1.232v7.999c0,1.2,.73,2.595,1.63,3.115Z" fill="#e8b185"/><path d="M278.04,234.131h0c0-1.2-.73-2.595-1.63-3.115l-6-3.464c-.9-.52-1.63,.032-1.63,1.232h0c0,1.2,.73,2.595,1.63,3.115l6,3.464c.9,.52,1.63-.032,1.63-1.232Z" fill="#e8b185"/></g><g><path d="M259.582,229.647h0c.9,.52,1.63-.032,1.63-1.232v-7.999c0-1.2-.73-2.595-1.63-3.115h0c-.9-.52-1.63,.032-1.63,1.232v7.999c0,1.2,.73,2.595,1.63,3.115Z" fill="#e8b185"/><path d="M264.212,226.147h0c0-1.2-.73-2.595-1.63-3.115l-6-3.464c-.9-.52-1.63,.032-1.63,1.232h0c0,1.2,.73,2.595,1.63,3.115l6,3.464c.9,.52,1.63-.032,1.63-1.232Z" fill="#e8b185"/></g></g><g><g><path d="M287.237,264.224h0c.9,.52,1.63-.032,1.63-1.232v-7.999c0-1.2-.73-2.595-1.63-3.115h0c-.9-.52-1.63,.032-1.63,1.232v7.999c0,1.2,.73,2.595,1.63,3.115Z" fill="#e8b185"/><path d="M291.867,260.725h0c0-1.2-.73-2.595-1.63-3.115l-6-3.464c-.9-.52-1.63,.032-1.63,1.232h0c0,1.2,.73,2.595,1.63,3.115l6,3.464c.9,.52,1.63-.032,1.63-1.232Z" fill="#e8b185"/></g><g><path d="M273.409,256.241h0c.9,.52,1.63-.032,1.63-1.232v-7.999c0-1.2-.73-2.595-1.63-3.115h0c-.9-.52-1.63,.032-1.63,1.232v7.999c0,1.2,.73,2.595,1.63,3.115Z" fill="#e8b185"/><path d="M278.04,252.741h0c0-1.2-.73-2.595-1.63-3.115l-6-3.464c-.9-.52-1.63,.032-1.63,1.232h0c0,1.2,.73,2.595,1.63,3.115l6,3.464c.9,.52,1.63-.032,1.63-1.232Z" fill="#e8b185"/></g><g><path d="M259.582,248.258h0c.9,.52,1.63-.032,1.63-1.232v-7.999c0-1.2-.73-2.595-1.63-3.115h0c-.9-.52-1.63,.032-1.63,1.232v7.999c0,1.2,.73,2.595,1.63,3.115Z" fill="#e8b185"/><path d="M264.212,244.758h0c0-1.2-.73-2.595-1.63-3.115l-6-3.464c-.9-.52-1.63,.032-1.63,1.232h0c0,1.2,.73,2.595,1.63,3.115l6,3.464c.9,.52,1.63-.032,1.63-1.232Z" fill="#e8b185"/></g></g><g><g><path d="M287.237,282.835h0c.9,.52,1.63-.032,1.63-1.232v-7.999c0-1.2-.73-2.595-1.63-3.115h0c-.9-.52-1.63,.032-1.63,1.232v7.999c0,1.2,.73,2.595,1.63,3.115Z" fill="#e8b185"/><path d="M291.867,279.335h0c0-1.2-.73-2.595-1.63-3.115l-6-3.464c-.9-.52-1.63,.032-1.63,1.232h0c0,1.2,.73,2.595,1.63,3.115l6,3.464c.9,.52,1.63-.032,1.63-1.232Z" fill="#e8b185"/></g><g><path d="M273.409,274.852h0c.9,.52,1.63-.032,1.63-1.232v-7.999c0-1.2-.73-2.595-1.63-3.115h0c-.9-.52-1.63,.032-1.63,1.232v7.999c0,1.2,.73,2.595,1.63,3.115Z" fill="#e8b185"/><path d="M278.04,271.352h0c0-1.2-.73-2.595-1.63-3.115l-6-3.464c-.9-.52-1.63,.032-1.63,1.232h0c0,1.2,.73,2.595,1.63,3.115l6,3.464c.9,.52,1.63-.032,1.63-1.232Z" fill="#e8b185"/></g><g><path d="M259.582,266.868h0c.9,.52,1.63-.032,1.63-1.232v-7.999c0-1.2-.73-2.595-1.63-3.115h0c-.9-.52-1.63,.032-1.63,1.232v7.999c0,1.2,.73,2.595,1.63,3.115Z" fill="#e8b185"/><path d="M264.212,263.369h0c0-1.2-.73-2.595-1.63-3.115l-6-3.464c-.9-.52-1.63,.032-1.63,1.232h0c0,1.2,.73,2.595,1.63,3.115l6,3.464c.9,.52,1.63-.032,1.63-1.232Z" fill="#e8b185"/></g></g></g><g><g><g><path d="M287.237,190.65h0c.9,.52,1.63-.032,1.63-1.232v-7.999c0-1.2-.73-2.595-1.63-3.115h0c-.9-.52-1.63,.032-1.63,1.232v7.999c0,1.2,.73,2.595,1.63,3.115Z" fill="#e8b185"/><path d="M291.867,187.151h0c0-1.2-.73-2.595-1.63-3.115l-6-3.464c-.9-.52-1.63,.032-1.63,1.232h0c0,1.2,.73,2.595,1.63,3.115l6,3.464c.9,.52,1.63-.032,1.63-1.232Z" fill="#e8b185"/></g><g><path d="M273.409,182.667h0c.9,.52,1.63-.032,1.63-1.232v-7.999c0-1.2-.73-2.595-1.63-3.115h0c-.9-.52-1.63,.032-1.63,1.232v7.999c0,1.2,.73,2.595,1.63,3.115Z" fill="#e8b185"/><path d="M278.04,179.167h0c0-1.2-.73-2.595-1.63-3.115l-6-3.464c-.9-.52-1.63,.032-1.63,1.232h0c0,1.2,.73,2.595,1.63,3.115l6,3.464c.9,.52,1.63-.032,1.63-1.232Z" fill="#e8b185"/></g><g><path d="M259.582,174.684h0c.9,.52,1.63-.032,1.63-1.232v-7.999c0-1.2-.73-2.595-1.63-3.115h0c-.9-.52-1.63,.032-1.63,1.232v7.999c0,1.2,.73,2.595,1.63,3.115Z" fill="#e8b185"/><path d="M264.212,171.184h0c0-1.2-.73-2.595-1.63-3.115l-6-3.464c-.9-.52-1.63,.032-1.63,1.232h0c0,1.2,.73,2.595,1.63,3.115l6,3.464c.9,.52,1.63-.032,1.63-1.232Z" fill="#e8b185"/></g></g><g><g><path d="M287.237,209.261h0c.9,.52,1.63-.032,1.63-1.232v-7.999c0-1.2-.73-2.595-1.63-3.115h0c-.9-.52-1.63,.032-1.63,1.232v7.999c0,1.2,.73,2.595,1.63,3.115Z" fill="#e8b185"/><path d="M291.867,205.761h0c0-1.2-.73-2.595-1.63-3.115l-6-3.464c-.9-.52-1.63,.032-1.63,1.232h0c0,1.2,.73,2.595,1.63,3.115l6,3.464c.9,.52,1.63-.032,1.63-1.232Z" fill="#e8b185"/></g><g><path d="M273.409,201.278h0c.9,.52,1.63-.032,1.63-1.232v-7.999c0-1.2-.73-2.595-1.63-3.115h0c-.9-.52-1.63,.032-1.63,1.232v7.999c0,1.2,.73,2.595,1.63,3.115Z" fill="#e8b185"/><path d="M278.04,197.778h0c0-1.2-.73-2.595-1.63-3.115l-6-3.464c-.9-.52-1.63,.032-1.63,1.232h0c0,1.2,.73,2.595,1.63,3.115l6,3.464c.9,.52,1.63-.032,1.63-1.232Z" fill="#e8b185"/></g><g><path d="M259.582,193.294h0c.9,.52,1.63-.032,1.63-1.232v-7.999c0-1.2-.73-2.595-1.63-3.115h0c-.9-.52-1.63,.032-1.63,1.232v7.999c0,1.2,.73,2.595,1.63,3.115Z" fill="#e8b185"/><path d="M264.212,189.795h0c0-1.2-.73-2.595-1.63-3.115l-6-3.464c-.9-.52-1.63,.032-1.63,1.232h0c0,1.2,.73,2.595,1.63,3.115l6,3.464c.9,.52,1.63-.032,1.63-1.232Z" fill="#e8b185"/></g></g><g><g><path d="M287.237,227.872h0c.9,.52,1.63-.032,1.63-1.232v-7.999c0-1.2-.73-2.595-1.63-3.115h0c-.9-.52-1.63,.032-1.63,1.232v7.999c0,1.2,.73,2.595,1.63,3.115Z" fill="#e8b185"/><path d="M291.867,224.372h0c0-1.2-.73-2.595-1.63-3.115l-6-3.464c-.9-.52-1.63,.032-1.63,1.232h0c0,1.2,.73,2.595,1.63,3.115l6,3.464c.9,.52,1.63-.032,1.63-1.232Z" fill="#e8b185"/></g><g><path d="M273.409,219.888h0c.9,.52,1.63-.032,1.63-1.232v-7.999c0-1.2-.73-2.595-1.63-3.115h0c-.9-.52-1.63,.032-1.63,1.232v7.999c0,1.2,.73,2.595,1.63,3.115Z" fill="#e8b185"/><path d="M278.04,216.389h0c0-1.2-.73-2.595-1.63-3.115l-6-3.464c-.9-.52-1.63,.032-1.63,1.232h0c0,1.2,.73,2.595,1.63,3.115l6,3.464c.9,.52,1.63-.032,1.63-1.232Z" fill="#e8b185"/></g><g><path d="M259.582,211.905h0c.9,.52,1.63-.032,1.63-1.232v-7.999c0-1.2-.73-2.595-1.63-3.115h0c-.9-.52-1.63,.032-1.63,1.232v7.999c0,1.2,.73,2.595,1.63,3.115Z" fill="#e8b185"/><path d="M264.212,208.405h0c0-1.2-.73-2.595-1.63-3.115l-6-3.464c-.9-.52-1.63,.032-1.63,1.232h0c0,1.2,.73,2.595,1.63,3.115l6,3.464c.9,.52,1.63-.032,1.63-1.232Z" fill="#e8b185"/></g></g></g><g><g><path d="M246.044,166.866h0c.9,.52,1.63-.032,1.63-1.232v-7.999c0-1.2-.73-2.595-1.63-3.115h0c-.9-.52-1.63,.032-1.63,1.232v7.999c0,1.2,.73,2.595,1.63,3.115Z" fill="#e8b185"/><path d="M250.675,163.367h0c0-1.2-.73-2.595-1.63-3.115l-6-3.464c-.9-.52-1.63,.032-1.63,1.232h0c0,1.2,.73,2.595,1.63,3.115l6,3.464c.9,.52,1.63-.032,1.63-1.232Z" fill="#e8b185"/></g><g><path d="M232.217,158.883h0c.9,.52,1.63-.032,1.63-1.232v-7.999c0-1.2-.73-2.595-1.63-3.115h0c-.9-.52-1.63,.032-1.63,1.232v7.999c0,1.2,.73,2.595,1.63,3.115Z" fill="#e8b185"/><path d="M236.847,155.383h0c0-1.2-.73-2.595-1.63-3.115l-6-3.464c-.9-.52-1.63,.032-1.63,1.232h0c0,1.2,.73,2.595,1.63,3.115l6,3.464c.9,.52,1.63-.032,1.63-1.232Z" fill="#e8b185"/></g></g><g><g><path d="M246.044,185.477h0c.9,.52,1.63-.032,1.63-1.232v-7.999c0-1.2-.73-2.595-1.63-3.115h0c-.9-.52-1.63,.032-1.63,1.232v7.999c0,1.2,.73,2.595,1.63,3.115Z" fill="#e8b185"/><path d="M250.675,181.977h0c0-1.2-.73-2.595-1.63-3.115l-6-3.464c-.9-.52-1.63,.032-1.63,1.232h0c0,1.2,.73,2.595,1.63,3.115l6,3.464c.9,.52,1.63-.032,1.63-1.232Z" fill="#e8b185"/></g><g><path d="M232.217,177.494h0c.9,.52,1.63-.032,1.63-1.232v-7.999c0-1.2-.73-2.595-1.63-3.115h0c-.9-.52-1.63,.032-1.63,1.232v7.999c0,1.2,.73,2.595,1.63,3.115Z" fill="#e8b185"/><path d="M236.847,173.994h0c0-1.2-.73-2.595-1.63-3.115l-6-3.464c-.9-.52-1.63,.032-1.63,1.232h0c0,1.2,.73,2.595,1.63,3.115l6,3.464c.9,.52,1.63-.032,1.63-1.232Z" fill="#e8b185"/></g></g><g><g><path d="M246.044,204.087h0c.9,.52,1.63-.032,1.63-1.232v-7.999c0-1.2-.73-2.595-1.63-3.115h0c-.9-.52-1.63,.032-1.63,1.232v7.999c0,1.2,.73,2.595,1.63,3.115Z" fill="#e8b185"/><path d="M250.675,200.588h0c0-1.2-.73-2.595-1.63-3.115l-6-3.464c-.9-.52-1.63,.032-1.63,1.232h0c0,1.2,.73,2.595,1.63,3.115l6,3.464c.9,.52,1.63-.032,1.63-1.232Z" fill="#e8b185"/></g><g><path d="M232.217,196.104h0c.9,.52,1.63-.032,1.63-1.232v-7.999c0-1.2-.73-2.595-1.63-3.115h0c-.9-.52-1.63,.032-1.63,1.232v7.999c0,1.2,.73,2.595,1.63,3.115Z" fill="#e8b185"/><path d="M236.847,192.605h0c0-1.2-.73-2.595-1.63-3.115l-6-3.464c-.9-.52-1.63,.032-1.63,1.232h0c0,1.2,.73,2.595,1.63,3.115l6,3.464c.9,.52,1.63-.032,1.63-1.232Z" fill="#e8b185"/></g></g><g><g><g><path d="M246.044,276.793h0c.9,.52,1.63-.032,1.63-1.232v-7.999c0-1.2-.73-2.595-1.63-3.115h0c-.9-.52-1.63,.032-1.63,1.232v7.999c0,1.2,.73,2.595,1.63,3.115Z" fill="#e8b185"/><path d="M250.675,273.293h0c0-1.2-.73-2.595-1.63-3.115l-6-3.464c-.9-.52-1.63,.032-1.63,1.232h0c0,1.2,.73,2.595,1.63,3.115l6,3.464c.9,.52,1.63-.032,1.63-1.232Z" fill="#e8b185"/></g><g><path d="M232.217,268.81h0c.9,.52,1.63-.032,1.63-1.232v-7.999c0-1.2-.73-2.595-1.63-3.115h0c-.9-.52-1.63,.032-1.63,1.232v7.999c0,1.2,.73,2.595,1.63,3.115Z" fill="#e8b185"/><path d="M236.847,265.31h0c0-1.2-.73-2.595-1.63-3.115l-6-3.464c-.9-.52-1.63,.032-1.63,1.232h0c0,1.2,.73,2.595,1.63,3.115l6,3.464c.9,.52,1.63-.032,1.63-1.232Z" fill="#e8b185"/></g></g><g><g><path d="M246.044,295.404h0c.9,.52,1.63-.032,1.63-1.232v-7.999c0-1.2-.73-2.595-1.63-3.115h0c-.9-.52-1.63,.032-1.63,1.232v7.999c0,1.2,.73,2.595,1.63,3.115Z" fill="#e8b185"/><path d="M250.675,291.904h0c0-1.2-.73-2.595-1.63-3.115l-6-3.464c-.9-.52-1.63,.032-1.63,1.232h0c0,1.2,.73,2.595,1.63,3.115l6,3.464c.9,.52,1.63-.032,1.63-1.232Z" fill="#e8b185"/></g><g><path d="M232.217,287.42h0c.9,.52,1.63-.032,1.63-1.232v-7.999c0-1.2-.73-2.595-1.63-3.115h0c-.9-.52-1.63,.032-1.63,1.232v7.999c0,1.2,.73,2.595,1.63,3.115Z" fill="#e8b185"/><path d="M236.847,283.921h0c0-1.2-.73-2.595-1.63-3.115l-6-3.464c-.9-.52-1.63,.032-1.63,1.232h0c0,1.2,.73,2.595,1.63,3.115l6,3.464c.9,.52,1.63-.032,1.63-1.232Z" fill="#e8b185"/></g></g><g><g><path d="M246.044,314.014h0c.9,.52,1.63-.032,1.63-1.232v-7.999c0-1.2-.73-2.595-1.63-3.115h0c-.9-.52-1.63,.032-1.63,1.232v7.999c0,1.2,.73,2.595,1.63,3.115Z" fill="#e8b185"/><path d="M250.675,310.515h0c0-1.2-.73-2.595-1.63-3.115l-6-3.464c-.9-.52-1.63,.032-1.63,1.232h0c0,1.2,.73,2.595,1.63,3.115l6,3.464c.9,.52,1.63-.032,1.63-1.232Z" fill="#e8b185"/></g><g><path d="M232.217,306.031h0c.9,.52,1.63-.032,1.63-1.232v-7.999c0-1.2-.73-2.595-1.63-3.115h0c-.9-.52-1.63,.032-1.63,1.232v7.999c0,1.2,.73,2.595,1.63,3.115Z" fill="#e8b185"/><path d="M236.847,302.531h0c0-1.2-.73-2.595-1.63-3.115l-6-3.464c-.9-.52-1.63,.032-1.63,1.232h0c0,1.2,.73,2.595,1.63,3.115l6,3.464c.9,.52,1.63-.032,1.63-1.232Z" fill="#e8b185"/></g></g></g><g><g><g><path d="M246.044,221.83h0c.9,.52,1.63-.032,1.63-1.232v-7.999c0-1.2-.73-2.595-1.63-3.115h0c-.9-.52-1.63,.032-1.63,1.232v7.999c0,1.2,.73,2.595,1.63,3.115Z" fill="#e8b185"/><path d="M250.675,218.33h0c0-1.2-.73-2.595-1.63-3.115l-6-3.464c-.9-.52-1.63,.032-1.63,1.232h0c0,1.2,.73,2.595,1.63,3.115l6,3.464c.9,.52,1.63-.032,1.63-1.232Z" fill="#e8b185"/></g><g><path d="M232.217,213.846h0c.9,.52,1.63-.032,1.63-1.232v-7.999c0-1.2-.73-2.595-1.63-3.115h0c-.9-.52-1.63,.032-1.63,1.232v7.999c0,1.2,.73,2.595,1.63,3.115Z" fill="#e8b185"/><path d="M236.847,210.347h0c0-1.2-.73-2.595-1.63-3.115l-6-3.464c-.9-.52-1.63,.032-1.63,1.232h0c0,1.2,.73,2.595,1.63,3.115l6,3.464c.9,.52,1.63-.032,1.63-1.232Z" fill="#e8b185"/></g></g><g><g><path d="M246.044,240.44h0c.9,.52,1.63-.032,1.63-1.232v-7.999c0-1.2-.73-2.595-1.63-3.115h0c-.9-.52-1.63,.032-1.63,1.232v7.999c0,1.2,.73,2.595,1.63,3.115Z" fill="#e8b185"/><path d="M250.675,236.941h0c0-1.2-.73-2.595-1.63-3.115l-6-3.464c-.9-.52-1.63,.032-1.63,1.232h0c0,1.2,.73,2.595,1.63,3.115l6,3.464c.9,.52,1.63-.032,1.63-1.232Z" fill="#e8b185"/></g><g><path d="M232.217,232.457h0c.9,.52,1.63-.032,1.63-1.232v-7.999c0-1.2-.73-2.595-1.63-3.115h0c-.9-.52-1.63,.032-1.63,1.232v7.999c0,1.2,.73,2.595,1.63,3.115Z" fill="#e8b185"/><path d="M236.847,228.957h0c0-1.2-.73-2.595-1.63-3.115l-6-3.464c-.9-.52-1.63,.032-1.63,1.232h0c0,1.2,.73,2.595,1.63,3.115l6,3.464c.9,.52,1.63-.032,1.63-1.232Z" fill="#e8b185"/></g></g><g><g><path d="M246.044,259.051h0c.9,.52,1.63-.032,1.63-1.232v-7.999c0-1.2-.73-2.595-1.63-3.115h0c-.9-.52-1.63,.032-1.63,1.232v7.999c0,1.2,.73,2.595,1.63,3.115Z" fill="#e8b185"/><path d="M250.675,255.551h0c0-1.2-.73-2.595-1.63-3.115l-6-3.464c-.9-.52-1.63,.032-1.63,1.232h0c0,1.2,.73,2.595,1.63,3.115l6,3.464c.9,.52,1.63-.032,1.63-1.232Z" fill="#e8b185"/></g><g><path d="M232.217,251.068h0c.9,.52,1.63-.032,1.63-1.232v-7.999c0-1.2-.73-2.595-1.63-3.115h0c-.9-.52-1.63,.032-1.63,1.232v7.999c0,1.2,.73,2.595,1.63,3.115Z" fill="#e8b185"/><path d="M236.847,247.568h0c0-1.2-.73-2.595-1.63-3.115l-6-3.464c-.9-.52-1.63,.032-1.63,1.232h0c0,1.2,.73,2.595,1.63,3.115l6,3.464c.9,.52,1.63-.032,1.63-1.232Z" fill="#e8b185"/></g></g></g></g></g><polygon points="296.491 173.574 301.172 170.871 228.517 128.951 223.836 131.653 296.491 173.574" fill="#ffcfae"/><polygon points="296.491 173.574 301.172 170.871 301.172 350.423 296.491 353.126 296.491 173.574" fill="#e8b185"/></g></g></svg>