<?xml version="1.0" encoding="UTF-8"?><svg id="Layer_2" xmlns="http://www.w3.org/2000/svg" viewBox="0 0 176.132 294.095"><g id="Fridge"><g><path d="M176.132,23.465V251.19c0,1.488-.5,2.933-1.419,4.103l-27.147,34.55L146.761,.399l26.393,17.527c1.859,1.23,2.978,3.31,2.978,5.54Z" fill="#4e4e4e"/><rect x="7.524" y="289.214" width="133.428" height="4.882" rx="1.302" ry="1.302" fill="#4e4e4e"/><rect width="148.476" height="290.794" rx="3.254" ry="3.254" fill="#707070"/><rect x="0" y="107.982" width="148.477" height="3.905" fill="#4e4e4e"/><rect y="111.886" width="148.476" height=".684" fill="#999"/><rect x="0" y="107.982" width="148.477" height=".682" fill="#333"/></g><path d="M50.583,112.57l-7.615,10.218c-.814,1.089-2.105,1.737-3.464,1.737H21.572c-1.358,0-2.65-.648-3.46-1.737l-7.618-10.218h1.242l7.173,9.624c.628,.84,1.614,1.335,2.663,1.335h17.933c1.049,0,2.036-.495,2.663-1.335l7.173-9.624h1.242Z" fill="#999"/><path d="M49.341,112.57l-7.173,9.624c-.628,.84-1.614,1.335-2.663,1.335H21.572c-1.049,0-2.036-.495-2.663-1.335l-7.173-9.624H49.341Z" fill="#4e4e4e"/><polygon points="51.135 110.163 49.849 111.886 49.341 112.57 11.736 112.57 11.228 111.886 9.943 110.163 51.135 110.163" fill="#4e4e4e"/><g opacity=".05"><polygon points="148.476 56.073 148.476 102.415 0 279.689 0 233.347 148.476 56.073" fill="#fff"/><path d="M148.476,145.324v142.216c0,1.8-1.455,3.254-3.254,3.254H26.637l121.839-145.47Z" fill="#fff"/><polygon points="114.516 0 0 136.73 0 90.39 75.706 0 114.516 0" fill="#fff"/><polygon points="57.418 0 0 68.552 0 49.345 41.328 0 57.418 0" fill="#fff"/></g></g></svg>