<?xml version="1.0" encoding="UTF-8"?><svg id="Layer_2" xmlns="http://www.w3.org/2000/svg" xmlns:xlink="http://www.w3.org/1999/xlink" viewBox="0 2 3830 2146.169"><defs><clipPath id="clippath"><rect width="3845.997" height="2149.169" fill="none"/></clipPath><linearGradient id="linear-gradient" x1="1919.068" y1="1076.456" x2="1919.068" y2="-74.323" gradientUnits="userSpaceOnUse"><stop offset="0" stop-color="#c2e0fc"/><stop offset="1" stop-color="#29aae1"/></linearGradient></defs><g id="Layer_4"><g clip-path="url(#clippath)"><rect x="-64.939" y="-74.323" width="3968.013" height="1150.779" fill="url(#linear-gradient)"/><rect x="-64.939" y="1076.456" width="3968.013" height="1103.32" fill="#4bbf3a"/><polygon points="3903.077 1286.361 3903.077 2279.78 -64.943 2279.78 -64.943 1628.121 1161.927 1286.361 3903.077 1286.361" fill="#c9c9c9"/><g><g><path d="M132.101,756.686c-1.308,30.234-1.795,60.867-9.879,90.03-17.212,62.097-70.864,112.606-133.886,126.041,.334,11.702,.669,23.403,1.003,35.105,24.992,1.873,49.355-8.122,71.296-20.234,105.86-58.438,177.879-173.924,183.78-294.698,.954-19.517,.327-39.309,4.873-58.313-5.055-.45-10.111-.9-15.166-1.351-3.534,71.1-28.614,140.988-71.095,198.111-9.359-17.921-3.585-39.596,1.468-59.172,7.942-30.776,13.619-62.135,16.977-93.741,.923-8.687,2.621-18.076,2.188-26.785-12.635-.141-30.839,1.126-39.547,11.777-4.117,5.036-5.872,11.561-6.811,17.878-1.684,11.337-2.101,22.987-2.894,34.415-.947,13.634-1.716,27.281-2.307,40.936Z" fill="#917709"/><path d="M-69.454,675.933c15.377,25.462,35.637,50.069,63.738,59.819,32.353,11.226,70.025-.46,94.332-24.582,24.307-24.123,36.197-58.83,37.541-93.049-13.801-1.165-27.603-2.329-41.404-3.494,1.292,29.393-11.228,59.101-33.167,78.704-4.88,4.361-11.42,8.46-17.587,6.27-7.917-2.811-9.142-13.389-8.471-21.763,2.212-27.608,10.13-54.745,23.11-79.211-12.982-3.043-25.349-8.685-36.158-16.494,.973,28.719-5.457,57.658-18.498,83.263-1.388,2.725-3.112,5.642-6.017,6.599-5.582,1.838-10.21-4.508-12.531-9.907-12.296-28.604-19.623-59.337-21.555-90.413-10.153,3.52-20.306,7.04-30.459,10.561-5.355,1.857-14.903,3.075-16.975,9.337-2.618,7.909-.671,18.959,.725,26.956,1.669,9.562,4.593,18.877,8.268,27.849,4.198,10.251,9.386,20.079,15.109,29.555Z" fill="#917709"/><path d="M15.426,1424.075c2.85-1.591,5.772-3.463,7.211-6.392,1.638-3.334,1.007-7.274,.523-10.957-2.453-18.684-.105-37.621,1.996-56.348,24.028-214.176-11.05-366.059,7.461-636.196-12.223-.49-69.578-25.104-70.511-21.12-15.92,68.009-50.863,284.852-50.346,354.697,.936,126.446,1.873,252.893,2.809,379.339,0,0,72.296,12.921,100.857-3.024Z" fill="#917709"/></g><g><path d="M255.739,244.464c3.76,.079,7.481,.99,10.925,2.454-3.721-.079-7.402-.91-10.925-2.454Z" fill="none" stroke="#07838d" stroke-miterlimit="10" stroke-width="3.958"/><path d="M556.064,407.709c-1.979,5.7-4.315,11.321-7.006,16.784-16.625,33.647-46.511,60.841-83.166,66.383-22.167,3.365-46.67-2.098-61.988-18.525-13.894-14.963-17.457-39.703-6.413-56.407-8.906,10.252-21.494,17.575-35.032,17.971-15.478,.475-31.469-9.579-35.309-24.582-17.219,12.231-41.088,14.448-60.247,5.542-19.198-8.906-32.894-28.58-34.636-49.638-11.875,55.616-66.185,99-123.027,98.248-56.843-.752-110.004-45.561-120.415-101.415-5.898-31.588,2.455-67.531,27.709-87.442-31.311,15.596-66.541,25.967-101.137,20.861-21.89-3.246-43.305-13.775-58.426-29.649,8.471,29.292,.791,63.889-21.059,85.858-30.955,31.073-83.602,35.269-121.563,13.34,17.14,12.786,17.061,42.553-.158,55.259-17.18,12.707-45.641,4.038-52.845-16.071,2.019,26.363-18.525,51.262-43.819,58.862-25.334,7.64-53.518,.158-75.21-14.963-19.753-13.736-34.082-34.24-41.959-56.843-5.582-16.19-8.511-34.518-7.521-51.934,18.644-5.819,39.861-3.682,56.565,6.571,15.953,9.777,29.688,26.719,45.72,34.438,6.571,3.167,13.498,4.79,21.099,3.761-12.47-23.949-19.634-52.212-11.875-78.1,7.758-25.848,33.844-47.224,60.524-42.83,23.276,3.84,39.624,31.984,31.588,52.766,9.659-13.934,25.096-23.869,41.92-26.482-19.515-4.552-22.84-34.042-9.421-48.886,10.529-11.638,26.204-16.111,42.157-17.655-12.271-3.325-22.563-16.982-21.019-30.401,2.098-18.09,19.555-31.43,37.565-34.24,17.971-2.85,36.18,2.613,53.201,9.105-4.632-8.59-5.067-19.317-1.108-28.263-11.598,6.175-27.234,3.562-36.141-6.056-8.946-9.659-10.41-25.413-3.364-36.496-8.194,7.125-16.863,14.488-27.511,16.744-10.609,2.256-23.592-2.731-26.324-13.261-3.483-13.379,9.817-23.197,23.552-28.699-25.73,5.225-53.992-23.236-48.767-50.509,5.74-30.123,41.603-47.976,71.37-40.732,15.873,3.879,30.361,13.973,39.03,27.669,.91-8.431,7.917-17.417,16.982-17.694,14.567-.515,25.888,13.577,29.174,27.788C-113.185-1.829-100.083-23.996-78.51-25.975c26.68-2.454,45.087,30.678,38.793,56.685-6.294,26.046-27.947,45.047-48.411,62.305,18.882-12.231,43.582-15.042,64.72-7.283,8.154-28.184,49.836-39.228,70.895-18.723C36.681,35.618,60.392-2.7,93.286-7.054c27.67-3.681,55.26,17.457,62.068,43.938,3.167-16.744,20.425-31.509,38.278-30.123,23.355,1.86,41.089,25.611,40.97,49.045-.158,23.434-14.923,44.968-34.082,58.426,12.667-4.354,28.145,2.731,33.132,15.2,4.948,12.429-1.346,28.224-13.538,33.805,19.436-7.046,42.118-7.165,59.93,3.286,17.853,10.411,29.252,32.499,23.949,52.489-4.315,16.229-21.059,28.421-37.328,27.907,10.925,4.75,19.317,15.715,19.871,27.709,.713,15.754-12.191,30.994-27.867,32.855,22.326-.356,45.957-.435,65.235,10.886,19.238,11.361,31.073,38.436,18.367,56.803,21.534-20.346,55.616-26.205,82.731-14.171,27.115,11.994,45.68,41.128,45.086,70.777,17.734-22.88,48.689-37.961,76.2-28.857,3.483,1.148,6.729,2.771,9.777,4.79Z" fill="#46b072"/><path d="M726.395,459.802c-11.875-15.121-30.282-24.028-49.045-28.224-12.548-2.811-25.532-3.681-38.357-2.652-24.463,1.9-48.372,10.569-68.045,25.176-2.257-12.746-10.767-23.038-21.89-29.609-16.625,33.647-46.511,60.841-83.166,66.383-22.167,3.365-46.67-2.098-61.988-18.525-13.894-14.963-17.457-39.703-6.413-56.407-8.906,10.252-21.494,17.575-35.032,17.971-15.478,.475-31.469-9.579-35.309-24.582-17.219,12.231-41.088,14.448-60.247,5.542-19.198-8.906-32.894-28.58-34.636-49.638-11.875,55.616-66.185,99-123.027,98.248-56.843-.752-110.004-45.561-120.415-101.415-5.898-31.588,2.455-67.531,27.709-87.442-31.311,15.596-66.541,25.967-101.137,20.861-21.89-3.246-43.305-13.775-58.426-29.649,8.471,29.292,.791,63.889-21.059,85.858-30.955,31.073-83.602,35.269-121.563,13.34,17.14,12.786,17.061,42.553-.158,55.259-17.18,12.707-45.641,4.038-52.845-16.071,2.019,26.363-18.525,51.262-43.819,58.862-25.334,7.64-53.518,.158-75.21-14.963-19.753-13.736-34.082-34.24-41.959-56.843-5.582-16.19-8.511-34.518-7.521-51.934,18.644-5.819,39.861-3.682,56.565,6.571,15.953,9.777,29.688,26.719,45.72,34.438,4.552-32.538-10.331-67.966-38.317-85.779-35.309-22.444-86.333-14.686-114.082,16.625-27.709,31.272-29.649,82.098-5.146,115.982-30.717-19.475-71.686-21.415-104.225-5.225-1.465,.712-2.89,1.465-4.315,2.256-13.578,7.6-26.047,19.198-29.569,34.399-6.215,26.719,19,52.489,45.996,57.397,21.534,3.919,43.147-1.544,64.047-8.788-20.584,8.55-39.742,20.623-56.249,35.586-7.204,6.492-14.29,14.329-15.081,23.988-1.663,19.911,22.563,31.034,42.355,33.33,29.252,3.444,59.178,.713,87.362-7.798,7.759-3.642,16.111-6.373,24.186-8.946-7.877,3.444-15.953,6.452-24.186,8.946-8.867,4.077-16.981,9.302-23.236,16.744-11.677,13.973-12.786,38.397,2.573,48.253,9.381,5.977,21.494,4.869,32.42,2.811,48.293-9.104,93.814-32.459,129.361-66.343,4.869,39.466,40.138,72.954,79.801,75.764,38.595,2.731,77.189-23.948,88.748-60.801-2.811,12.113,4.116,25.413,14.408,32.776,11.163,7.956,25.334,10.292,39.03,11.163,15.675,1.029,32.736-.079,44.927-10.015,12.153-9.975,15.359-31.588,2.534-40.732,32.657,2.929,66.066-2.811,95.873-16.467,7.323,29.292,25.927,55.655,51.103,72.36,14.132,9.381,31.548,15.913,48.016,11.915,11.875-2.89,22.325-12.904,25.254-24.305-1.306-4.315-1.543-8.906-.237-13.577,1.425,4.513,1.425,9.144,.237,13.577,3.76,12.469,16.586,23.038,29.055,29.292,33.884,17.021,73.508,22.444,110.717,15.161,15.121-2.929,30.757-8.55,40.099-20.821,5.027-6.611,7.323-15.596,6.294-23.751-4.513-4.988-8.036-10.767-10.094-17.219,5.938,3.879,9.223,10.252,10.094,17.219,8.827,9.896,21.494,16.704,34.597,19.673,19.673,4.473,40.296,1.504,60.01-2.969,11.044-2.494,23.196-6.413,28.422-16.467,1.86-3.602,1.86-7.996,.593-11.875-5.225-3.048-10.292-6.294-15.2-9.777,6.69-2.731,12.944,2.811,15.2,9.777,41.999,24.423,92.627,33.963,140.603,25.928,11.163-1.861,23.434-5.581,28.699-15.596,6.333-12.073-1.465-27.669-13.221-34.597-1.702-.99-3.404-1.861-5.186-2.613-11.677-.316-23.276-2.058-34.517-5.186,11.678,.277,23.869,.712,34.517,5.186,32.776,.95,65.987-8.906,92.469-28.342-10.371-11.123-24.146-18.802-38.911-22.207-8.827,0-17.655-.475-26.442-1.425,8.827-1.108,17.813-.594,26.442,1.425,26.838-.04,53.636-4.513,79.01-13.3,16.229-5.661,32.934-13.973,41.207-29.055,9.223-16.903,5.146-38.99-6.769-54.111Zm-1316.688,47.343c5.146-2.137,10.411-4.037,15.715-5.74-5.185,1.94-10.411,3.919-15.715,5.74Z" fill="#0f5962"/><path d="M612.947,556.268c-8.827,0-17.655-.475-26.442-1.425,8.827-1.108,17.813-.594,26.442,1.425Z" fill="none" stroke="#07838d" stroke-miterlimit="10" stroke-width="3.958"/><path d="M638.993,428.926c-.673,2.296-1.385,4.552-2.138,6.769-8.55,25.65-21.613,50.945-43.305,67.095-21.692,16.15-53.478,20.9-75.803,5.621-9.659,24.542-49.203,29.134-64.206,7.402-15.2,11.282-34.953,16.269-53.676,13.538,20.109,7.323,11.717,41.722-8.788,47.976-20.465,6.254-41.801-5.146-60.049-16.309,6.689,16.348-1.029,37.209-16.745,45.284-15.715,8.115-37.169,2.217-46.59-12.746-15.2,26.403-55.418,33.884-79.09,14.686-23.711-19.198-24.7-60.089-2.019-80.435-28.302,9.5-60.247,7.719-87.362-4.869,18.011,10.648,18.565,39.228,4.354,54.547-14.211,15.359-37.724,18.842-58.189,14.409-22.523-4.829-45.007-21.296-46.947-44.295-6.888,20.465-34.953,28.857-53.636,18.09-18.724-10.727-26.324-35.824-20.069-56.487,5.344-17.813,19.396-32.024,36.101-40.495-39.07,15.2-86.888,6.254-117.288-22.88-21.573,32.617-62.504,51.341-101.296,46.314,17.774,14.607,17.971,45.007,1.742,61.355-16.229,16.309-44.69,17.298-63.374,3.84-18.684-13.458-26.957-38.951-22.048-61.474-28.342,23.83-71.648,27.946-103.988,9.896-1.741,33.211-40.574,59.851-71.053,46.591-29.174-12.746-34.557-59.851-9.382-77.902-24.185,14.923-54.151,21.257-81.582,13.934-28.738-7.64-53.478-31.628-58.506-60.959-.317-1.781-.554-3.642-.713-5.463,32.539-16.19,73.508-14.25,104.225,5.225-24.502-33.884-22.563-84.71,5.146-115.982,27.749-31.311,78.773-39.07,114.082-16.625,27.986,17.813,42.869,53.241,38.317,85.779-16.032-7.719-29.767-24.661-45.72-34.438-16.704-10.252-37.921-12.39-56.565-6.571-.99,17.417,1.94,35.744,7.521,51.934,7.877,22.602,22.206,43.107,41.959,56.843,21.692,15.121,49.876,22.602,75.21,14.963,25.294-7.6,45.838-32.498,43.819-58.862,7.205,20.109,35.665,28.778,52.845,16.071,17.219-12.706,17.298-42.474,.158-55.259,37.961,21.93,90.608,17.734,121.563-13.34,21.85-21.969,29.53-56.566,21.059-85.858,15.121,15.873,36.536,26.403,58.426,29.649,34.597,5.106,69.827-5.265,101.137-20.861-25.254,19.911-33.607,55.853-27.709,87.442,10.411,55.853,63.572,100.663,120.415,101.415,56.843,.752,111.152-42.632,123.027-98.248,1.742,21.059,15.438,40.732,34.636,49.638,19.159,8.906,43.028,6.69,60.247-5.542,3.84,15.002,19.832,25.057,35.309,24.582,13.538-.396,26.125-7.719,35.032-17.971-11.044,16.704-7.481,41.445,6.413,56.407,15.319,16.428,39.821,21.89,61.988,18.525,36.655-5.542,66.541-32.736,83.166-66.383,11.123,6.571,19.634,16.863,21.89,29.609,19.673-14.607,43.582-23.276,68.045-25.176Z" fill="#07826d"/></g></g><g><g><path d="M820.264,846.971c1.442,15.315,2.932,30.842,8.341,45.243,7.217,19.214,21.48,35.691,39.46,45.588,17.98,9.897,39.531,13.133,59.626,8.954-2.209-4.747-3.101-10.098-2.551-15.305-10.685-.095-21.358-1.474-31.716-4.098-9.547-2.419-20.039-7.116-22.802-16.57-1.354-4.632-.544-9.594,.415-14.325,4.576-22.574,12.358-44.496,23.041-64.903-8.03-1.062-16.059-2.123-24.089-3.185-.868,14.357-3.568,28.602-8.015,42.28-1.713,5.27-4.717,11.305-10.229,11.87-4.232,.434-8.137-2.889-9.737-6.831-1.6-3.942-1.398-8.358-1.048-12.597,1.398-16.9,4.768-33.637,10.021-49.761-8.849,2.991-17.699,5.982-26.548,8.973-1.723,.582-3.489,1.189-4.884,2.355-4.536,3.794-2.995,11.085-.46,16.427-3.718,3.596-7.436,7.192-11.154,10.787" fill="#917709"/><path d="M1020.614,901.579c-.635,14.684-.872,29.562-4.798,43.726-8.359,30.16-34.417,54.691-65.026,61.216,.162,5.683,.325,11.367,.487,17.05,12.138,.91,23.971-3.945,34.627-9.827,51.415-28.383,86.393-84.472,89.259-143.131,.463-9.479,.159-19.092,2.367-28.322-2.455-.219-4.911-.437-7.366-.656-1.716,34.532-13.897,68.476-34.53,96.22-4.545-8.704-1.741-19.231,.713-28.739,3.858-14.947,6.615-30.178,8.245-45.529,.448-4.219,1.273-8.779,1.063-13.009-6.136-.069-14.978,.547-19.207,5.72-1.999,2.446-2.852,5.615-3.308,8.683-.818,5.506-1.02,11.165-1.406,16.715-.46,6.622-.834,13.25-1.121,19.882Z" fill="#917709"/><path d="M922.722,862.359c7.469,12.366,17.308,24.318,30.957,29.053,15.713,5.452,34.01-.223,45.816-11.939,11.806-11.716,17.58-28.573,18.233-45.192-6.703-.566-13.406-1.131-20.109-1.697,.627,14.275-5.453,28.705-16.109,38.225-2.37,2.118-5.546,4.109-8.542,3.045-3.845-1.365-4.44-6.503-4.114-10.57,1.075-13.409,4.92-26.589,11.224-38.472-6.305-1.478-12.312-4.218-17.561-8.011,.472,13.948-2.65,28.004-8.984,40.44-.674,1.324-1.512,2.74-2.922,3.205-2.711,.892-4.959-2.19-6.086-4.812-5.972-13.893-9.531-28.819-10.469-43.912-4.931,1.71-9.862,3.419-14.793,5.129-2.601,.902-7.238,1.494-8.245,4.535-1.272,3.841-.326,9.208,.352,13.092,.811,4.644,2.231,9.168,4.015,13.526,2.039,4.979,4.559,9.752,7.338,14.354Z" fill="#917709"/><path d="M963.947,1225.72c1.384-.773,2.803-1.682,3.502-3.105,.795-1.619,.489-3.533,.254-5.322-1.191-9.074-.051-18.272,.969-27.367,11.67-104.022-5.367-177.79,3.624-308.991-5.937-.238-33.793-12.192-34.246-10.257-7.732,33.031-24.703,138.348-24.452,172.271,.455,61.413,.91,122.826,1.364,184.239,0,0,35.113,6.275,48.985-1.469Z" fill="#917709"/></g><g><path d="M710.132,698.884c-3.057,.961-5.96,2.346-8.613,4.191-7.671,5.306-13.016,15.13-10.247,24.032,2.768,8.901,15.842,13.554,22.09,6.652" fill="none" stroke="#07838d" stroke-miterlimit="10" stroke-width="1.923"/><path d="M806.624,691.616c.692-1.423,1.48-2.807,2.403-4.095-.538,1.461-1.327,2.845-2.403,4.095Z" fill="none" stroke="#07838d" stroke-miterlimit="10" stroke-width="1.923"/><path d="M851.689,641.996c-2.115,.884-4.326,.923-6.402,.346,2.134-.211,4.287-.308,6.402-.346Z" fill="none" stroke="#07838d" stroke-miterlimit="10" stroke-width="1.923"/><path d="M1080.664,652.8c1.826,.038,3.634,.481,5.306,1.192-1.807-.038-3.595-.442-5.306-1.192Z" fill="none" stroke="#07838d" stroke-miterlimit="10" stroke-width="1.923"/><path d="M1226.527,732.086c-.961,2.768-2.096,5.498-3.403,8.152-8.075,16.342-22.59,29.549-40.393,32.241-10.766,1.634-22.667-1.019-30.107-8.997-6.748-7.267-8.478-19.283-3.115-27.396-4.326,4.979-10.439,8.536-17.014,8.728-7.517,.231-15.284-4.653-17.149-11.939-8.363,5.941-19.956,7.017-29.261,2.691-9.324-4.326-15.976-13.881-16.822-24.109-5.768,27.012-32.145,48.083-59.753,47.718s-53.427-22.129-58.484-49.256c-2.865-15.342,1.192-32.799,13.458-42.469-15.207,7.575-32.318,12.612-49.121,10.132-10.632-1.577-21.033-6.691-28.377-14.4,4.114,14.227,.384,31.03-10.228,41.7-15.034,15.092-40.604,17.13-59.041,6.479,8.325,6.21,8.286,20.667-.077,26.839-8.344,6.171-22.167,1.961-25.666-7.806,.981,12.804-8.997,24.897-21.282,28.588-12.304,3.71-25.993,.077-36.528-7.267-9.594-6.671-16.553-16.63-20.379-27.608-2.711-7.863-4.134-16.765-3.653-25.224,9.055-2.826,19.36-1.788,27.473,3.191,7.748,4.749,14.419,12.977,22.205,16.726,3.191,1.538,6.556,2.326,10.247,1.826-6.056-11.631-9.536-25.358-5.768-37.932,3.768-12.554,16.438-22.936,29.396-20.802,11.305,1.865,19.245,15.534,15.342,25.628,4.691-6.767,12.189-11.593,20.36-12.862-9.478-2.211-11.093-16.534-4.575-23.743,5.114-5.652,12.727-7.825,20.475-8.575-5.96-1.615-10.958-8.248-10.209-14.765,1.019-8.786,9.497-15.265,18.245-16.63,8.728-1.384,17.572,1.269,25.839,4.422-2.249-4.172-2.461-9.382-.538-13.727-5.633,2.999-13.227,1.73-17.553-2.942-4.345-4.691-5.056-12.343-1.634-17.726-3.98,3.461-8.19,7.036-13.362,8.132-5.153,1.096-11.458-1.327-12.785-6.44-1.692-6.498,4.768-11.266,11.439-13.938-12.497,2.538-26.223-11.285-23.686-24.532,2.788-14.631,20.206-23.301,34.664-19.783,7.709,1.884,14.746,6.787,18.956,13.439,.442-4.095,3.845-8.459,8.248-8.594,7.075-.25,12.574,6.594,14.169,13.496,4.402-9.574,10.766-20.341,21.244-21.302,12.958-1.192,21.898,14.9,18.841,27.531-3.057,12.65-13.573,21.879-23.513,30.261,9.171-5.941,21.167-7.306,31.434-3.537,3.96-13.689,24.205-19.052,34.433-9.094-5.249-15.246,6.268-33.856,22.244-35.971,13.439-1.788,26.839,8.478,30.146,21.34,1.538-8.132,9.92-15.303,18.591-14.631,11.343,.904,19.956,12.439,19.899,23.82-.077,11.381-7.248,21.84-16.553,28.377,6.152-2.115,13.669,1.327,16.092,7.383,2.403,6.037-.654,13.708-6.575,16.418,9.44-3.422,20.456-3.48,29.107,1.596,8.671,5.056,14.207,15.784,11.631,25.493-2.096,7.882-10.228,13.804-18.13,13.554,5.306,2.307,9.382,7.633,9.651,13.458,.346,7.652-5.921,15.054-13.535,15.957,10.843-.173,22.321-.211,31.683,5.287,9.344,5.518,15.092,18.668,8.921,27.589,10.459-9.882,27.012-12.727,40.181-6.883,13.169,5.825,22.186,19.975,21.898,34.375,8.613-11.112,23.647-18.437,37.009-14.015,1.692,.557,3.268,1.346,4.749,2.326Z" fill="#46b072"/><path d="M1309.254,757.387c-5.768-7.344-14.708-11.67-23.82-13.708-6.095-1.365-12.401-1.788-18.63-1.288-11.881,.923-23.493,5.133-33.048,12.227-1.096-6.191-5.229-11.189-10.632-14.381-8.075,16.342-22.59,29.549-40.393,32.241-10.766,1.634-22.667-1.019-30.107-8.997-6.748-7.267-8.478-19.283-3.115-27.396-4.326,4.979-10.439,8.536-17.014,8.728-7.517,.231-15.284-4.653-17.149-11.939-8.363,5.941-19.956,7.017-29.261,2.691-9.324-4.326-15.976-13.881-16.822-24.109-5.768,27.012-32.145,48.083-59.753,47.718s-53.427-22.129-58.484-49.256c-2.865-15.342,1.192-32.799,13.458-42.469-15.207,7.575-32.318,12.612-49.121,10.132-10.632-1.577-21.033-6.691-28.377-14.4,4.114,14.227,.384,31.03-10.228,41.7-15.034,15.092-40.604,17.13-59.041,6.479,8.325,6.21,8.286,20.667-.077,26.839-8.344,6.171-22.167,1.961-25.666-7.806,.981,12.804-8.997,24.897-21.282,28.588-12.304,3.71-25.993,.077-36.528-7.267-9.594-6.671-16.553-16.63-20.379-27.608-2.711-7.863-4.134-16.765-3.653-25.224,9.055-2.826,19.36-1.788,27.473,3.191,7.748,4.749,14.419,12.977,22.205,16.726,2.211-15.803-5.018-33.01-18.61-41.662-17.149-10.901-41.931-7.133-55.408,8.075-13.458,15.188-14.4,39.874-2.499,56.331-14.919-9.459-34.817-10.401-50.62-2.538-.711,.346-1.403,.711-2.096,1.096-6.594,3.691-12.65,9.324-14.361,16.707-3.019,12.977,9.228,25.493,22.34,27.877,10.459,1.903,20.956-.75,31.107-4.268-9.997,4.153-19.302,10.016-27.319,17.284-3.499,3.153-6.94,6.96-7.325,11.651-.808,9.67,10.958,15.073,20.571,16.188,14.207,1.673,28.742,.346,42.43-3.787,3.768-1.769,7.825-3.095,11.747-4.345-3.826,1.673-7.748,3.134-11.747,4.345-4.306,1.98-8.248,4.518-11.285,8.132-5.671,6.787-6.21,18.649,1.25,23.436,4.556,2.903,10.44,2.365,15.746,1.365,23.455-4.422,45.564-15.765,62.829-32.222,2.365,19.168,19.495,35.432,38.758,36.798,18.745,1.327,37.49-11.631,43.104-29.53-1.365,5.883,1.999,12.343,6.998,15.919,5.422,3.864,12.304,4.999,18.956,5.422,7.613,.5,15.899-.038,21.821-4.864,5.902-4.845,7.46-15.342,1.231-19.783,15.861,1.423,32.087-1.365,46.564-7.998,3.557,14.227,12.593,27.031,24.82,35.144,6.864,4.556,15.323,7.729,23.321,5.787,5.768-1.403,10.843-6.268,12.266-11.804-.634-2.096-.75-4.326-.115-6.594,.692,2.192,.692,4.441,.115,6.594,1.826,6.056,8.056,11.189,14.112,14.227,16.457,8.267,35.702,10.901,53.773,7.363,7.344-1.423,14.938-4.153,19.475-10.113,2.441-3.211,3.557-7.575,3.057-11.535-2.192-2.422-3.903-5.229-4.903-8.363,2.884,1.884,4.48,4.979,4.903,8.363,4.287,4.806,10.439,8.113,16.803,9.555,9.555,2.172,19.571,.731,29.146-1.442,5.364-1.211,11.266-3.115,13.804-7.998,.904-1.75,.904-3.884,.288-5.768-2.538-1.48-4.999-3.057-7.382-4.749,3.249-1.327,6.287,1.365,7.382,4.749,20.398,11.862,44.988,16.495,68.289,12.593,5.422-.904,11.381-2.711,13.938-7.575,3.076-5.864-.711-13.439-6.421-16.803-.827-.481-1.653-.904-2.519-1.269-5.671-.154-11.305-1-16.765-2.519,5.672,.135,11.593,.346,16.765,2.519,15.919,.462,32.049-4.326,44.911-13.765-5.037-5.402-11.727-9.132-18.899-10.785-4.287,0-8.575-.231-12.843-.692,4.287-.538,8.651-.288,12.843,.692,13.035-.019,26.05-2.192,38.374-6.46,7.882-2.749,15.995-6.787,20.014-14.111,4.48-8.209,2.499-18.937-3.287-26.281Zm-639.495,22.994c2.499-1.038,5.056-1.961,7.632-2.788-2.518,.942-5.056,1.903-7.632,2.788Z" fill="#0f5962"/><path d="M669.759,780.38c2.499-1.038,5.056-1.961,7.632-2.788-2.518,.942-5.056,1.903-7.632,2.788Z" fill="none" stroke="#07838d" stroke-miterlimit="10" stroke-width="1.923"/><path d="M698.02,821.753c3.768-1.769,7.825-3.095,11.747-4.345-3.826,1.673-7.748,3.134-11.747,4.345Z" fill="none" stroke="#07838d" stroke-miterlimit="10" stroke-width="1.923"/><path d="M780.055,724.569h-.019q.019-.038,.038-.058c0,.019,0,.038-.019,.058Z" fill="none" stroke="#07838d" stroke-miterlimit="10" stroke-width="1.923"/><path d="M1254.154,804.239c-4.287,0-8.575-.231-12.843-.692,4.287-.538,8.651-.288,12.843,.692Z" fill="none" stroke="#07838d" stroke-miterlimit="10" stroke-width="1.923"/><path d="M1266.804,742.391c-.327,1.115-.673,2.211-1.038,3.288-4.153,12.458-10.497,24.743-21.033,32.587-10.535,7.844-25.974,10.151-36.817,2.73-4.691,11.92-23.897,14.15-31.184,3.595-7.382,5.479-16.976,7.902-26.07,6.575,9.766,3.557,5.691,20.264-4.268,23.301-9.94,3.038-20.302-2.499-29.165-7.921,3.249,7.94-.5,18.072-8.133,21.994-7.632,3.941-18.052,1.077-22.628-6.191-7.382,12.823-26.916,16.457-38.413,7.133-11.516-9.324-11.997-29.184-.981-39.066-13.746,4.614-29.261,3.749-42.43-2.365,8.748,5.172,9.017,19.052,2.115,26.493-6.902,7.459-18.322,9.151-28.261,6.998-10.939-2.346-21.859-10.343-22.801-21.513-3.345,9.94-16.976,14.015-26.05,8.786-9.094-5.21-12.785-17.399-9.747-27.435,2.595-8.651,9.42-15.553,17.534-19.668-18.975,7.383-42.2,3.038-56.965-11.112-10.478,15.842-30.357,24.935-49.198,22.494,8.632,7.094,8.728,21.859,.846,29.799-7.882,7.921-21.705,8.402-30.78,1.865-9.074-6.537-13.092-18.918-10.708-29.857-13.765,11.574-34.798,13.573-50.505,4.806-.846,16.13-19.706,29.069-34.51,22.628-14.169-6.191-16.784-29.069-4.557-37.836-11.746,7.248-26.3,10.324-39.623,6.767-13.958-3.71-25.974-15.361-28.415-29.607-.154-.865-.269-1.769-.346-2.653,15.803-7.863,35.702-6.921,50.62,2.538-11.9-16.457-10.958-41.142,2.499-56.331,13.477-15.207,38.259-18.975,55.408-8.075,13.592,8.651,20.821,25.858,18.61,41.662-7.786-3.749-14.458-11.978-22.205-16.726-8.113-4.979-18.418-6.018-27.473-3.191-.481,8.459,.942,17.361,3.653,25.224,3.826,10.978,10.785,20.936,20.379,27.608,10.535,7.344,24.224,10.978,36.528,7.267,12.285-3.691,22.263-15.784,21.282-28.588,3.499,9.767,17.322,13.977,25.666,7.806,8.363-6.171,8.401-20.629,.077-26.839,18.437,10.651,44.007,8.613,59.041-6.479,10.612-10.67,14.342-27.473,10.228-41.7,7.344,7.709,17.745,12.823,28.377,14.4,16.803,2.48,33.914-2.557,49.121-10.132-12.266,9.67-16.322,27.127-13.458,42.469,5.057,27.127,30.876,48.89,58.484,49.256s53.985-20.706,59.753-47.718c.846,10.228,7.498,19.783,16.822,24.109,9.305,4.326,20.898,3.249,29.261-2.691,1.865,7.286,9.632,12.17,17.149,11.939,6.575-.192,12.689-3.749,17.014-8.728-5.364,8.113-3.633,20.129,3.115,27.396,7.44,7.979,19.341,10.632,30.107,8.997,17.803-2.692,32.318-15.899,40.393-32.241,5.402,3.191,9.536,8.19,10.632,14.381,9.555-7.094,21.167-11.305,33.048-12.227Z" fill="#07826d"/></g></g><g><g><path d="M634.964,846.971c1.442,15.315,2.932,30.842,8.341,45.243,7.217,19.214,21.48,35.691,39.46,45.588,17.98,9.897,39.531,13.133,59.626,8.954-2.209-4.747-3.101-10.098-2.551-15.305-10.685-.095-21.358-1.474-31.716-4.098-9.547-2.419-20.039-7.116-22.802-16.57-1.354-4.632-.544-9.594,.415-14.325,4.576-22.574,12.358-44.496,23.041-64.903-8.03-1.062-16.059-2.123-24.089-3.185-.868,14.357-3.568,28.602-8.015,42.28-1.713,5.27-4.717,11.305-10.229,11.87-4.232,.434-8.137-2.889-9.737-6.831s-1.398-8.358-1.048-12.597c1.398-16.9,4.768-33.637,10.021-49.761-8.849,2.991-17.699,5.982-26.548,8.973-1.723,.582-3.489,1.189-4.884,2.355-4.536,3.794-2.995,11.085-.46,16.427-3.718,3.596-7.436,7.192-11.154,10.787" fill="#917709"/><path d="M835.314,901.579c-.635,14.684-.872,29.562-4.798,43.726-8.359,30.16-34.417,54.691-65.026,61.216,.162,5.683,.325,11.367,.487,17.05,12.138,.91,23.971-3.945,34.627-9.827,51.415-28.383,86.393-84.472,89.259-143.131,.463-9.479,.159-19.092,2.367-28.322-2.455-.219-4.911-.437-7.366-.656-1.716,34.532-13.897,68.476-34.53,96.22-4.545-8.704-1.741-19.231,.713-28.739,3.858-14.947,6.615-30.178,8.245-45.529,.448-4.219,1.273-8.779,1.063-13.009-6.136-.069-14.978,.547-19.207,5.72-1.999,2.446-2.852,5.615-3.308,8.683-.818,5.506-1.02,11.165-1.406,16.715-.46,6.622-.834,13.25-1.121,19.882Z" fill="#917709"/><path d="M737.422,862.359c7.469,12.366,17.308,24.318,30.957,29.053,15.713,5.452,34.01-.223,45.816-11.939,11.806-11.716,17.58-28.573,18.233-45.192-6.703-.566-13.406-1.131-20.109-1.697,.627,14.275-5.453,28.705-16.109,38.225-2.37,2.118-5.546,4.109-8.542,3.045-3.845-1.365-4.44-6.503-4.114-10.57,1.075-13.409,4.92-26.589,11.224-38.472-6.305-1.478-12.312-4.218-17.561-8.011,.472,13.948-2.65,28.004-8.984,40.44-.674,1.324-1.512,2.74-2.922,3.205-2.711,.892-4.959-2.19-6.086-4.812-5.972-13.893-9.531-28.819-10.469-43.912-4.931,1.71-9.862,3.419-14.793,5.129-2.601,.902-7.238,1.494-8.245,4.535-1.272,3.841-.326,9.208,.352,13.092,.811,4.644,2.231,9.168,4.015,13.526,2.039,4.979,4.559,9.752,7.338,14.354Z" fill="#917709"/><path d="M778.647,1225.72c1.384-.773,2.803-1.682,3.502-3.105,.795-1.619,.489-3.533,.254-5.322-1.191-9.074-.051-18.272,.969-27.367,11.67-104.022-5.367-177.79,3.624-308.991-5.937-.238-33.793-12.192-34.246-10.257-7.732,33.031-24.703,138.348-24.452,172.271,.455,61.413,.91,122.826,1.364,184.239,0,0,35.113,6.275,48.985-1.469Z" fill="#917709"/></g><g><path d="M524.832,698.884c-3.057,.961-5.96,2.346-8.613,4.191-7.671,5.306-13.016,15.13-10.247,24.032,2.768,8.901,15.842,13.554,22.09,6.652" fill="none" stroke="#07838d" stroke-miterlimit="10" stroke-width="1.923"/><path d="M621.324,691.616c.692-1.423,1.48-2.807,2.403-4.095-.538,1.461-1.327,2.845-2.403,4.095Z" fill="none" stroke="#07838d" stroke-miterlimit="10" stroke-width="1.923"/><path d="M666.388,641.996c-2.115,.884-4.326,.923-6.402,.346,2.134-.211,4.287-.308,6.402-.346Z" fill="none" stroke="#07838d" stroke-miterlimit="10" stroke-width="1.923"/><path d="M895.363,652.8c1.826,.038,3.634,.481,5.306,1.192-1.807-.038-3.595-.442-5.306-1.192Z" fill="none" stroke="#07838d" stroke-miterlimit="10" stroke-width="1.923"/><path d="M1041.227,732.086c-.961,2.768-2.096,5.498-3.403,8.152-8.075,16.342-22.59,29.549-40.393,32.241-10.766,1.634-22.667-1.019-30.107-8.997-6.748-7.267-8.478-19.283-3.115-27.396-4.326,4.979-10.439,8.536-17.014,8.728-7.517,.231-15.284-4.653-17.149-11.939-8.363,5.941-19.956,7.017-29.261,2.691-9.324-4.326-15.976-13.881-16.822-24.109-5.768,27.012-32.145,48.083-59.753,47.718s-53.427-22.129-58.484-49.256c-2.865-15.342,1.192-32.799,13.458-42.469-15.207,7.575-32.318,12.612-49.121,10.132-10.632-1.577-21.033-6.691-28.377-14.4,4.114,14.227,.384,31.03-10.228,41.7-15.034,15.092-40.604,17.13-59.041,6.479,8.325,6.21,8.286,20.667-.077,26.839-8.344,6.171-22.167,1.961-25.666-7.806,.981,12.804-8.997,24.897-21.282,28.588-12.304,3.71-25.993,.077-36.528-7.267-9.594-6.671-16.553-16.63-20.379-27.608-2.711-7.863-4.134-16.765-3.653-25.224,9.055-2.826,19.36-1.788,27.473,3.191,7.748,4.749,14.419,12.977,22.205,16.726,3.191,1.538,6.556,2.326,10.247,1.826-6.056-11.631-9.536-25.358-5.768-37.932,3.768-12.554,16.438-22.936,29.396-20.802,11.305,1.865,19.245,15.534,15.342,25.628,4.691-6.767,12.189-11.593,20.36-12.862-9.478-2.211-11.093-16.534-4.575-23.743,5.114-5.652,12.727-7.825,20.475-8.575-5.96-1.615-10.958-8.248-10.209-14.765,1.019-8.786,9.497-15.265,18.245-16.63,8.728-1.384,17.572,1.269,25.839,4.422-2.249-4.172-2.461-9.382-.538-13.727-5.633,2.999-13.227,1.73-17.553-2.942-4.345-4.691-5.056-12.343-1.634-17.726-3.98,3.461-8.19,7.036-13.362,8.132-5.153,1.096-11.458-1.327-12.785-6.44-1.692-6.498,4.768-11.266,11.439-13.938-12.497,2.538-26.223-11.285-23.686-24.532,2.788-14.631,20.206-23.301,34.664-19.783,7.709,1.884,14.746,6.787,18.956,13.439,.442-4.095,3.845-8.459,8.248-8.594,7.075-.25,12.574,6.594,14.169,13.496,4.402-9.574,10.766-20.341,21.244-21.302,12.958-1.192,21.898,14.9,18.841,27.531-3.057,12.65-13.573,21.879-23.513,30.261,9.171-5.941,21.167-7.306,31.434-3.537,3.96-13.689,24.205-19.052,34.433-9.094-5.249-15.246,6.268-33.856,22.244-35.971,13.439-1.788,26.839,8.478,30.146,21.34,1.538-8.132,9.92-15.303,18.591-14.631,11.343,.904,19.956,12.439,19.899,23.82-.077,11.381-7.248,21.84-16.553,28.377,6.152-2.115,13.669,1.327,16.092,7.383,2.403,6.037-.654,13.708-6.575,16.418,9.44-3.422,20.456-3.48,29.107,1.596,8.671,5.056,14.207,15.784,11.631,25.493-2.096,7.882-10.228,13.804-18.13,13.554,5.306,2.307,9.382,7.633,9.651,13.458,.346,7.652-5.921,15.054-13.535,15.957,10.843-.173,22.321-.211,31.683,5.287,9.344,5.518,15.092,18.668,8.921,27.589,10.459-9.882,27.012-12.727,40.181-6.883,13.169,5.825,22.186,19.975,21.898,34.375,8.613-11.112,23.647-18.437,37.009-14.015,1.692,.557,3.268,1.346,4.749,2.326Z" fill="#46b072"/><path d="M1123.954,757.387c-5.768-7.344-14.708-11.67-23.82-13.708-6.095-1.365-12.401-1.788-18.63-1.288-11.881,.923-23.493,5.133-33.048,12.227-1.096-6.191-5.229-11.189-10.632-14.381-8.075,16.342-22.59,29.549-40.393,32.241-10.766,1.634-22.667-1.019-30.107-8.997-6.748-7.267-8.478-19.283-3.115-27.396-4.326,4.979-10.439,8.536-17.014,8.728-7.517,.231-15.284-4.653-17.149-11.939-8.363,5.941-19.956,7.017-29.261,2.691-9.324-4.326-15.976-13.881-16.822-24.109-5.768,27.012-32.145,48.083-59.753,47.718s-53.427-22.129-58.484-49.256c-2.865-15.342,1.192-32.799,13.458-42.469-15.207,7.575-32.318,12.612-49.121,10.132-10.632-1.577-21.033-6.691-28.377-14.4,4.114,14.227,.384,31.03-10.228,41.7-15.034,15.092-40.604,17.13-59.041,6.479,8.325,6.21,8.286,20.667-.077,26.839-8.344,6.171-22.167,1.961-25.666-7.806,.981,12.804-8.997,24.897-21.282,28.588-12.304,3.71-25.993,.077-36.528-7.267-9.594-6.671-16.553-16.63-20.379-27.608-2.711-7.863-4.134-16.765-3.653-25.224,9.055-2.826,19.36-1.788,27.473,3.191,7.748,4.749,14.419,12.977,22.205,16.726,2.211-15.803-5.018-33.01-18.61-41.662-17.149-10.901-41.931-7.133-55.408,8.075-13.458,15.188-14.4,39.874-2.499,56.331-14.919-9.459-34.817-10.401-50.62-2.538-.711,.346-1.403,.711-2.096,1.096-6.594,3.691-12.65,9.324-14.361,16.707-3.019,12.977,9.228,25.493,22.34,27.877,10.459,1.903,20.956-.75,31.107-4.268-9.997,4.153-19.302,10.016-27.319,17.284-3.499,3.153-6.94,6.96-7.325,11.651-.808,9.67,10.958,15.073,20.571,16.188,14.207,1.673,28.742,.346,42.43-3.787,3.768-1.769,7.825-3.095,11.747-4.345-3.826,1.673-7.748,3.134-11.747,4.345-4.306,1.98-8.248,4.518-11.285,8.132-5.671,6.787-6.21,18.649,1.25,23.436,4.556,2.903,10.44,2.365,15.746,1.365,23.455-4.422,45.564-15.765,62.829-32.222,2.365,19.168,19.495,35.432,38.758,36.798,18.745,1.327,37.49-11.631,43.104-29.53-1.365,5.883,1.999,12.343,6.998,15.919,5.422,3.864,12.304,4.999,18.956,5.422,7.613,.5,15.899-.038,21.821-4.864,5.902-4.845,7.46-15.342,1.231-19.783,15.861,1.423,32.087-1.365,46.564-7.998,3.557,14.227,12.593,27.031,24.82,35.144,6.864,4.556,15.323,7.729,23.321,5.787,5.768-1.403,10.843-6.268,12.266-11.804-.634-2.096-.75-4.326-.115-6.594,.692,2.192,.692,4.441,.115,6.594,1.826,6.056,8.056,11.189,14.112,14.227,16.457,8.267,35.702,10.901,53.773,7.363,7.344-1.423,14.938-4.153,19.475-10.113,2.441-3.211,3.557-7.575,3.057-11.535-2.192-2.422-3.903-5.229-4.903-8.363,2.884,1.884,4.48,4.979,4.903,8.363,4.287,4.806,10.439,8.113,16.803,9.555,9.555,2.172,19.571,.731,29.146-1.442,5.364-1.211,11.266-3.115,13.804-7.998,.904-1.75,.904-3.884,.288-5.768-2.538-1.48-4.999-3.057-7.382-4.749,3.249-1.327,6.287,1.365,7.382,4.749,20.398,11.862,44.988,16.495,68.289,12.593,5.422-.904,11.381-2.711,13.938-7.575,3.076-5.864-.711-13.439-6.421-16.803-.827-.481-1.653-.904-2.519-1.269-5.671-.154-11.305-1-16.765-2.519,5.672,.135,11.593,.346,16.765,2.519,15.919,.462,32.049-4.326,44.911-13.765-5.037-5.402-11.727-9.132-18.899-10.785-4.287,0-8.575-.231-12.843-.692,4.287-.538,8.651-.288,12.843,.692,13.035-.019,26.05-2.192,38.374-6.46,7.882-2.749,15.995-6.787,20.014-14.111,4.48-8.209,2.499-18.937-3.287-26.281Zm-639.495,22.994c2.499-1.038,5.056-1.961,7.632-2.788-2.518,.942-5.056,1.903-7.632,2.788Z" fill="#0f5962"/><path d="M484.458,780.38c2.499-1.038,5.056-1.961,7.632-2.788-2.518,.942-5.056,1.903-7.632,2.788Z" fill="none" stroke="#07838d" stroke-miterlimit="10" stroke-width="1.923"/><path d="M512.72,821.753c3.768-1.769,7.825-3.095,11.747-4.345-3.826,1.673-7.748,3.134-11.747,4.345Z" fill="none" stroke="#07838d" stroke-miterlimit="10" stroke-width="1.923"/><path d="M594.755,724.569h-.019q.019-.038,.038-.058c0,.019,0,.038-.019,.058Z" fill="none" stroke="#07838d" stroke-miterlimit="10" stroke-width="1.923"/><path d="M1068.854,804.239c-4.287,0-8.575-.231-12.843-.692,4.287-.538,8.651-.288,12.843,.692Z" fill="none" stroke="#07838d" stroke-miterlimit="10" stroke-width="1.923"/><path d="M1081.504,742.391c-.327,1.115-.673,2.211-1.038,3.288-4.153,12.458-10.497,24.743-21.033,32.587-10.535,7.844-25.974,10.151-36.817,2.73-4.691,11.92-23.897,14.15-31.184,3.595-7.382,5.479-16.976,7.902-26.07,6.575,9.766,3.557,5.691,20.264-4.268,23.301-9.94,3.038-20.302-2.499-29.165-7.921,3.249,7.94-.5,18.072-8.133,21.994-7.632,3.941-18.052,1.077-22.628-6.191-7.382,12.823-26.916,16.457-38.413,7.133-11.516-9.324-11.997-29.184-.981-39.066-13.746,4.614-29.261,3.749-42.43-2.365,8.748,5.172,9.017,19.052,2.115,26.493-6.902,7.459-18.322,9.151-28.261,6.998-10.939-2.346-21.859-10.343-22.801-21.513-3.345,9.94-16.976,14.015-26.05,8.786-9.094-5.21-12.785-17.399-9.747-27.435,2.595-8.651,9.42-15.553,17.534-19.668-18.975,7.383-42.2,3.038-56.965-11.112-10.478,15.842-30.357,24.935-49.198,22.494,8.632,7.094,8.728,21.859,.846,29.799-7.882,7.921-21.705,8.402-30.78,1.865-9.074-6.537-13.092-18.918-10.708-29.857-13.765,11.574-34.798,13.573-50.505,4.806-.846,16.13-19.706,29.069-34.51,22.628-14.169-6.191-16.784-29.069-4.557-37.836-11.746,7.248-26.3,10.324-39.623,6.767-13.958-3.71-25.974-15.361-28.415-29.607-.154-.865-.269-1.769-.346-2.653,15.803-7.863,35.702-6.921,50.62,2.538-11.9-16.457-10.958-41.142,2.499-56.331,13.477-15.207,38.259-18.975,55.408-8.075,13.592,8.651,20.821,25.858,18.61,41.662-7.786-3.749-14.458-11.978-22.205-16.726-8.113-4.979-18.418-6.018-27.473-3.191-.481,8.459,.942,17.361,3.653,25.224,3.826,10.978,10.785,20.936,20.379,27.608,10.535,7.344,24.224,10.978,36.528,7.267,12.285-3.691,22.263-15.784,21.282-28.588,3.499,9.767,17.322,13.977,25.666,7.806,8.363-6.171,8.401-20.629,.077-26.839,18.437,10.651,44.007,8.613,59.041-6.479,10.612-10.67,14.342-27.473,10.228-41.7,7.344,7.709,17.745,12.823,28.377,14.4,16.803,2.48,33.914-2.557,49.121-10.132-12.266,9.67-16.322,27.127-13.458,42.469,5.057,27.127,30.876,48.89,58.484,49.256s53.985-20.706,59.753-47.718c.846,10.228,7.498,19.783,16.822,24.109,9.305,4.326,20.898,3.249,29.261-2.691,1.865,7.286,9.632,12.17,17.149,11.939,6.575-.192,12.689-3.749,17.014-8.728-5.364,8.113-3.633,20.129,3.115,27.396,7.44,7.979,19.341,10.632,30.107,8.997,17.803-2.692,32.318-15.899,40.393-32.241,5.402,3.191,9.536,8.19,10.632,14.381,9.555-7.094,21.167-11.305,33.048-12.227Z" fill="#07826d"/></g></g><g><g><path d="M1264.225,846.971c1.442,15.315,2.932,30.842,8.341,45.243,7.217,19.214,21.48,35.691,39.46,45.588,17.98,9.897,39.531,13.133,59.626,8.954-2.209-4.747-3.101-10.098-2.551-15.305-10.685-.095-21.358-1.474-31.716-4.098-9.547-2.419-20.039-7.116-22.802-16.57-1.354-4.632-.544-9.594,.415-14.325,4.576-22.574,12.358-44.496,23.041-64.903-8.03-1.062-16.059-2.123-24.089-3.185-.868,14.357-3.568,28.602-8.015,42.28-1.713,5.27-4.717,11.305-10.229,11.87-4.232,.434-8.137-2.889-9.737-6.831-1.6-3.942-1.398-8.358-1.048-12.597,1.398-16.9,4.768-33.637,10.021-49.761-8.849,2.991-17.699,5.982-26.548,8.973-1.723,.582-3.489,1.189-4.884,2.355-4.536,3.794-2.995,11.085-.46,16.427-3.718,3.596-7.436,7.192-11.154,10.787" fill="#917709"/><path d="M1464.575,901.579c-.635,14.684-.872,29.562-4.798,43.726-8.359,30.16-34.417,54.691-65.026,61.216,.162,5.683,.325,11.367,.487,17.05,12.138,.91,23.971-3.945,34.627-9.827,51.415-28.383,86.393-84.472,89.259-143.131,.463-9.479,.159-19.092,2.367-28.322-2.455-.219-4.911-.437-7.366-.656-1.716,34.532-13.897,68.476-34.53,96.22-4.545-8.704-1.741-19.231,.713-28.739,3.858-14.947,6.615-30.178,8.245-45.529,.448-4.219,1.273-8.779,1.063-13.009-6.136-.069-14.978,.547-19.207,5.72-1.999,2.446-2.852,5.615-3.308,8.683-.818,5.506-1.02,11.165-1.406,16.715-.46,6.622-.834,13.25-1.121,19.882Z" fill="#917709"/><path d="M1366.682,862.359c7.469,12.366,17.308,24.318,30.957,29.053,15.713,5.452,34.01-.223,45.816-11.939,11.806-11.716,17.58-28.573,18.233-45.192-6.703-.566-13.406-1.131-20.109-1.697,.627,14.275-5.453,28.705-16.109,38.225-2.37,2.118-5.546,4.109-8.542,3.045-3.845-1.365-4.44-6.503-4.114-10.57,1.075-13.409,4.92-26.589,11.224-38.472-6.305-1.478-12.312-4.218-17.561-8.011,.472,13.948-2.65,28.004-8.984,40.44-.674,1.324-1.512,2.74-2.922,3.205-2.711,.892-4.959-2.19-6.086-4.812-5.972-13.893-9.531-28.819-10.469-43.912-4.931,1.71-9.862,3.419-14.793,5.129-2.601,.902-7.238,1.494-8.245,4.535-1.272,3.841-.326,9.208,.352,13.092,.811,4.644,2.231,9.168,4.015,13.526,2.039,4.979,4.559,9.752,7.338,14.354Z" fill="#917709"/><path d="M1407.907,1225.72c1.384-.773,2.803-1.682,3.502-3.105,.795-1.619,.489-3.533,.254-5.322-1.191-9.074-.051-18.272,.969-27.367,11.67-104.022-5.367-177.79,3.624-308.991-5.937-.238-33.793-12.192-34.246-10.257-7.732,33.031-24.703,138.348-24.452,172.271,.455,61.413,.91,122.826,1.364,184.239,0,0,35.113,6.275,48.985-1.469Z" fill="#917709"/></g><g><path d="M1154.092,698.884c-3.057,.961-5.96,2.346-8.613,4.191-7.671,5.306-13.016,15.13-10.247,24.032,2.768,8.901,15.842,13.554,22.09,6.652" fill="none" stroke="#07838d" stroke-miterlimit="10" stroke-width="1.923"/><path d="M1250.585,691.616c.692-1.423,1.48-2.807,2.403-4.095-.538,1.461-1.327,2.845-2.403,4.095Z" fill="none" stroke="#07838d" stroke-miterlimit="10" stroke-width="1.923"/><path d="M1295.649,641.996c-2.115,.884-4.326,.923-6.402,.346,2.134-.211,4.287-.308,6.402-.346Z" fill="none" stroke="#07838d" stroke-miterlimit="10" stroke-width="1.923"/><path d="M1524.624,652.8c1.826,.038,3.634,.481,5.306,1.192-1.807-.038-3.595-.442-5.306-1.192Z" fill="none" stroke="#07838d" stroke-miterlimit="10" stroke-width="1.923"/><path d="M1670.487,732.086c-.961,2.768-2.096,5.498-3.403,8.152-8.075,16.342-22.59,29.549-40.393,32.241-10.766,1.634-22.667-1.019-30.107-8.997-6.748-7.267-8.478-19.283-3.115-27.396-4.326,4.979-10.439,8.536-17.014,8.728-7.517,.231-15.284-4.653-17.149-11.939-8.363,5.941-19.956,7.017-29.261,2.691-9.324-4.326-15.976-13.881-16.822-24.109-5.768,27.012-32.145,48.083-59.753,47.718-27.608-.365-53.427-22.129-58.484-49.256-2.865-15.342,1.192-32.799,13.458-42.469-15.207,7.575-32.318,12.612-49.121,10.132-10.632-1.577-21.033-6.691-28.377-14.4,4.114,14.227,.384,31.03-10.228,41.7-15.034,15.092-40.604,17.13-59.041,6.479,8.325,6.21,8.286,20.667-.077,26.839-8.344,6.171-22.167,1.961-25.666-7.806,.981,12.804-8.997,24.897-21.282,28.588-12.304,3.71-25.993,.077-36.528-7.267-9.594-6.671-16.553-16.63-20.379-27.608-2.711-7.863-4.134-16.765-3.653-25.224,9.055-2.826,19.36-1.788,27.473,3.191,7.748,4.749,14.419,12.977,22.205,16.726,3.191,1.538,6.556,2.326,10.247,1.826-6.056-11.631-9.536-25.358-5.768-37.932,3.768-12.554,16.438-22.936,29.396-20.802,11.305,1.865,19.245,15.534,15.342,25.628,4.691-6.767,12.189-11.593,20.36-12.862-9.478-2.211-11.093-16.534-4.575-23.743,5.114-5.652,12.727-7.825,20.475-8.575-5.96-1.615-10.958-8.248-10.209-14.765,1.019-8.786,9.497-15.265,18.245-16.63,8.728-1.384,17.572,1.269,25.839,4.422-2.249-4.172-2.461-9.382-.538-13.727-5.633,2.999-13.227,1.73-17.553-2.942-4.345-4.691-5.056-12.343-1.634-17.726-3.98,3.461-8.19,7.036-13.362,8.132-5.153,1.096-11.458-1.327-12.785-6.44-1.692-6.498,4.768-11.266,11.439-13.938-12.497,2.538-26.223-11.285-23.686-24.532,2.788-14.631,20.206-23.301,34.664-19.783,7.709,1.884,14.746,6.787,18.956,13.439,.442-4.095,3.845-8.459,8.248-8.594,7.075-.25,12.574,6.594,14.169,13.496,4.402-9.574,10.766-20.341,21.244-21.302,12.958-1.192,21.898,14.9,18.841,27.531-3.057,12.65-13.573,21.879-23.513,30.261,9.171-5.941,21.167-7.306,31.434-3.537,3.96-13.689,24.205-19.052,34.433-9.094-5.249-15.246,6.268-33.856,22.244-35.971,13.439-1.788,26.839,8.478,30.146,21.34,1.538-8.132,9.92-15.303,18.591-14.631,11.343,.904,19.956,12.439,19.899,23.82-.077,11.381-7.248,21.84-16.553,28.377,6.152-2.115,13.669,1.327,16.092,7.383,2.403,6.037-.654,13.708-6.575,16.418,9.44-3.422,20.456-3.48,29.107,1.596,8.671,5.056,14.207,15.784,11.631,25.493-2.096,7.882-10.228,13.804-18.13,13.554,5.306,2.307,9.382,7.633,9.651,13.458,.346,7.652-5.921,15.054-13.535,15.957,10.843-.173,22.321-.211,31.683,5.287,9.344,5.518,15.092,18.668,8.921,27.589,10.459-9.882,27.012-12.727,40.181-6.883,13.169,5.825,22.186,19.975,21.898,34.375,8.613-11.112,23.647-18.437,37.009-14.015,1.692,.557,3.268,1.346,4.749,2.326Z" fill="#46b072"/><path d="M1753.214,757.387c-5.768-7.344-14.708-11.67-23.82-13.708-6.095-1.365-12.401-1.788-18.63-1.288-11.881,.923-23.493,5.133-33.048,12.227-1.096-6.191-5.229-11.189-10.632-14.381-8.075,16.342-22.59,29.549-40.393,32.241-10.766,1.634-22.667-1.019-30.107-8.997-6.748-7.267-8.478-19.283-3.115-27.396-4.326,4.979-10.439,8.536-17.014,8.728-7.517,.231-15.284-4.653-17.149-11.939-8.363,5.941-19.956,7.017-29.261,2.691-9.324-4.326-15.976-13.881-16.822-24.109-5.768,27.012-32.145,48.083-59.753,47.718-27.608-.365-53.427-22.129-58.484-49.256-2.865-15.342,1.192-32.799,13.458-42.469-15.207,7.575-32.318,12.612-49.121,10.132-10.632-1.577-21.033-6.691-28.377-14.4,4.114,14.227,.384,31.03-10.228,41.7-15.034,15.092-40.604,17.13-59.041,6.479,8.325,6.21,8.286,20.667-.077,26.839-8.344,6.171-22.167,1.961-25.666-7.806,.981,12.804-8.997,24.897-21.282,28.588-12.304,3.71-25.993,.077-36.528-7.267-9.594-6.671-16.553-16.63-20.379-27.608-2.711-7.863-4.134-16.765-3.653-25.224,9.055-2.826,19.36-1.788,27.473,3.191,7.748,4.749,14.419,12.977,22.205,16.726,2.211-15.803-5.018-33.01-18.61-41.662-17.149-10.901-41.931-7.133-55.408,8.075-13.458,15.188-14.4,39.874-2.499,56.331-14.919-9.459-34.817-10.401-50.62-2.538-.711,.346-1.403,.711-2.096,1.096-6.594,3.691-12.65,9.324-14.361,16.707-3.019,12.977,9.228,25.493,22.34,27.877,10.459,1.903,20.956-.75,31.107-4.268-9.997,4.153-19.302,10.016-27.319,17.284-3.499,3.153-6.94,6.96-7.325,11.651-.808,9.67,10.958,15.073,20.571,16.188,14.207,1.673,28.742,.346,42.43-3.787,3.768-1.769,7.825-3.095,11.747-4.345-3.826,1.673-7.748,3.134-11.747,4.345-4.306,1.98-8.248,4.518-11.285,8.132-5.671,6.787-6.21,18.649,1.25,23.436,4.556,2.903,10.44,2.365,15.746,1.365,23.455-4.422,45.564-15.765,62.829-32.222,2.365,19.168,19.495,35.432,38.758,36.798,18.745,1.327,37.49-11.631,43.104-29.53-1.365,5.883,1.999,12.343,6.998,15.919,5.422,3.864,12.304,4.999,18.956,5.422,7.613,.5,15.899-.038,21.821-4.864,5.902-4.845,7.46-15.342,1.231-19.783,15.861,1.423,32.087-1.365,46.564-7.998,3.557,14.227,12.593,27.031,24.82,35.144,6.864,4.556,15.323,7.729,23.321,5.787,5.768-1.403,10.843-6.268,12.266-11.804-.634-2.096-.75-4.326-.115-6.594,.692,2.192,.692,4.441,.115,6.594,1.826,6.056,8.056,11.189,14.112,14.227,16.457,8.267,35.702,10.901,53.773,7.363,7.344-1.423,14.938-4.153,19.475-10.113,2.441-3.211,3.557-7.575,3.057-11.535-2.192-2.422-3.903-5.229-4.903-8.363,2.884,1.884,4.48,4.979,4.903,8.363,4.287,4.806,10.439,8.113,16.803,9.555,9.555,2.172,19.571,.731,29.146-1.442,5.364-1.211,11.266-3.115,13.804-7.998,.904-1.75,.904-3.884,.288-5.768-2.538-1.48-4.999-3.057-7.382-4.749,3.249-1.327,6.287,1.365,7.382,4.749,20.398,11.862,44.988,16.495,68.289,12.593,5.422-.904,11.381-2.711,13.938-7.575,3.076-5.864-.711-13.439-6.421-16.803-.827-.481-1.653-.904-2.519-1.269-5.671-.154-11.305-1-16.765-2.519,5.672,.135,11.593,.346,16.765,2.519,15.919,.462,32.049-4.326,44.911-13.765-5.037-5.402-11.727-9.132-18.899-10.785-4.287,0-8.575-.231-12.843-.692,4.287-.538,8.651-.288,12.843,.692,13.035-.019,26.05-2.192,38.374-6.46,7.882-2.749,15.995-6.787,20.014-14.111,4.48-8.209,2.499-18.937-3.287-26.281Zm-639.495,22.994c2.499-1.038,5.056-1.961,7.632-2.788-2.518,.942-5.056,1.903-7.632,2.788Z" fill="#0f5962"/><path d="M1113.719,780.38c2.499-1.038,5.056-1.961,7.632-2.788-2.518,.942-5.056,1.903-7.632,2.788Z" fill="none" stroke="#07838d" stroke-miterlimit="10" stroke-width="1.923"/><path d="M1141.98,821.753c3.768-1.769,7.825-3.095,11.747-4.345-3.826,1.673-7.748,3.134-11.747,4.345Z" fill="none" stroke="#07838d" stroke-miterlimit="10" stroke-width="1.923"/><path d="M1224.015,724.569h-.019q.019-.038,.038-.058c0,.019,0,.038-.019,.058Z" fill="none" stroke="#07838d" stroke-miterlimit="10" stroke-width="1.923"/><path d="M1698.114,804.239c-4.287,0-8.575-.231-12.843-.692,4.287-.538,8.651-.288,12.843,.692Z" fill="none" stroke="#07838d" stroke-miterlimit="10" stroke-width="1.923"/><path d="M1710.764,742.391c-.327,1.115-.673,2.211-1.038,3.288-4.153,12.458-10.497,24.743-21.033,32.587-10.535,7.844-25.974,10.151-36.817,2.73-4.691,11.92-23.897,14.15-31.184,3.595-7.382,5.479-16.976,7.902-26.07,6.575,9.766,3.557,5.691,20.264-4.268,23.301-9.94,3.038-20.302-2.499-29.165-7.921,3.249,7.94-.5,18.072-8.133,21.994-7.632,3.941-18.052,1.077-22.628-6.191-7.382,12.823-26.916,16.457-38.413,7.133-11.516-9.324-11.997-29.184-.981-39.066-13.746,4.614-29.261,3.749-42.43-2.365,8.748,5.172,9.017,19.052,2.115,26.493-6.902,7.459-18.322,9.151-28.261,6.998-10.939-2.346-21.859-10.343-22.801-21.513-3.345,9.94-16.976,14.015-26.05,8.786-9.094-5.21-12.785-17.399-9.747-27.435,2.595-8.651,9.42-15.553,17.534-19.668-18.975,7.383-42.2,3.038-56.965-11.112-10.478,15.842-30.357,24.935-49.198,22.494,8.632,7.094,8.728,21.859,.846,29.799-7.882,7.921-21.705,8.402-30.78,1.865-9.074-6.537-13.092-18.918-10.708-29.857-13.765,11.574-34.798,13.573-50.505,4.806-.846,16.13-19.706,29.069-34.51,22.628-14.169-6.191-16.784-29.069-4.557-37.836-11.746,7.248-26.3,10.324-39.623,6.767-13.958-3.71-25.974-15.361-28.415-29.607-.154-.865-.269-1.769-.346-2.653,15.803-7.863,35.702-6.921,50.62,2.538-11.9-16.457-10.958-41.142,2.499-56.331,13.477-15.207,38.259-18.975,55.408-8.075,13.592,8.651,20.821,25.858,18.61,41.662-7.786-3.749-14.458-11.978-22.205-16.726-8.113-4.979-18.418-6.018-27.473-3.191-.481,8.459,.942,17.361,3.653,25.224,3.826,10.978,10.785,20.936,20.379,27.608,10.535,7.344,24.224,10.978,36.528,7.267,12.285-3.691,22.263-15.784,21.282-28.588,3.499,9.767,17.322,13.977,25.666,7.806,8.363-6.171,8.401-20.629,.077-26.839,18.437,10.651,44.007,8.613,59.041-6.479,10.612-10.67,14.342-27.473,10.228-41.7,7.344,7.709,17.745,12.823,28.377,14.4,16.803,2.48,33.914-2.557,49.121-10.132-12.266,9.67-16.322,27.127-13.458,42.469,5.057,27.127,30.876,48.89,58.484,49.256,27.608,.365,53.985-20.706,59.753-47.718,.846,10.228,7.498,19.783,16.822,24.109,9.305,4.326,20.898,3.249,29.261-2.691,1.865,7.286,9.632,12.17,17.149,11.939,6.575-.192,12.689-3.749,17.014-8.728-5.364,8.113-3.633,20.129,3.115,27.396,7.44,7.979,19.341,10.632,30.107,8.997,17.803-2.692,32.318-15.899,40.393-32.241,5.402,3.191,9.536,8.19,10.632,14.381,9.555-7.094,21.167-11.305,33.048-12.227Z" fill="#07826d"/></g></g><polygon points="3850.067 -2.632 2714.185 625.889 2714.185 629.134 1131.522 629.134 1131.522 625.889 -4.36 -2.633 3850.067 -2.632" fill="#a2a2a2"/><polygon points="3850.067 2155.544 -4.36 2155.543 1130.44 1520.098 1130.44 1522.694 2714.185 1522.695 2714.185 1519.449 3850.067 2155.544" fill="#a2a2a2"/><polygon points="1131.527 625.891 1131.527 1519.451 1130.437 1520.05 -4.363 2155.54 -4.363 1804.711 997.617 1431.891 997.617 712.151 -4.363 273.881 -4.363 -2.629 1131.527 625.891" fill="#c9c9c9"/><polygon points="3850.067 -2.632 3850.067 2155.544 2714.185 1519.449 2714.185 625.889 3850.067 -2.632" fill="#c9c9c9"/><path d="M1130.437,629.131v893.56h1583.75V629.131H1130.437Zm958.47,775.65h-832.98v-481.4h832.98v481.4Zm215.99-44.55c0,37.08-30.17,67.24-67.24,67.24s-67.24-30.16-67.24-67.24v-274.39c0-37.07,30.16-67.24,67.24-67.24s67.24,30.17,67.24,67.24v274.39Zm169.9-207.15c-37.07,0-67.24-30.16-67.24-67.24s30.17-67.24,67.24-67.24,67.24,30.17,67.24,67.24-30.16,67.24-67.24,67.24Zm113.9-264.32H1255.927v-141.71h1332.77v141.71Z" fill="#e5e5e5"/><path d="M1221.311,712.432v726.964s902.215,0,902.215,0v-34.617s-867.598,0-867.598,0V747.049s1332.769,0,1332.769,0v692.347s34.617,0,34.617,0V712.432s-1402.003,0-1402.003,0Z" fill="#b76e3b"/><rect x="2088.909" y="892.918" width="34.617" height="629.777" fill="#b76e3b"/><path d="M2123.527,923.381v599.31h228.26V923.381h-228.26Zm181.37,436.85c0,37.08-30.17,67.24-67.24,67.24s-67.24-30.16-67.24-67.24v-274.39c0-37.07,30.16-67.24,67.24-67.24s67.24,30.17,67.24,67.24v274.39Z" fill="#bb9679"/><path d="M2290.097,1033.401c-13.42-13.42-31.96-21.72-52.44-21.72-40.96,0-74.16,33.2-74.16,74.16v274.39c0,20.48,8.3,39.02,21.72,52.44,13.42,13.43,31.96,21.73,52.44,21.73,40.96,0,74.16-33.21,74.16-74.17v-274.39c0-20.48-8.3-39.02-21.72-52.44Zm14.8,326.83c0,37.08-30.17,67.24-67.24,67.24s-67.24-30.16-67.24-67.24v-274.39c0-37.07,30.16-67.24,67.24-67.24s67.24,30.17,67.24,67.24v274.39Z" fill="#b76e3b"/><rect x="2351.784" y="896.928" width="8.654" height="625.767" fill="#b76e3b"/><path d="M2360.437,923.381v599.31h228.26V923.381h-228.26Zm114.36,229.7c-37.07,0-67.24-30.16-67.24-67.24s30.17-67.24,67.24-67.24,67.24,30.17,67.24,67.24-30.16,67.24-67.24,67.24Z" fill="#bb9679"/><rect x="2588.697" y="712.432" width="34.617" height="810.262" fill="#b76e3b"/><path d="M2527.237,1033.401c-13.42-13.42-31.96-21.72-52.44-21.72s-39.02,8.3-52.44,21.72c-13.42,13.42-21.72,31.96-21.72,52.44s8.3,39.02,21.72,52.44c13.42,13.42,31.96,21.72,52.44,21.72,40.96,0,74.17-33.2,74.17-74.16,0-20.48-8.3-39.02-21.73-52.44Zm-52.44,119.68c-37.07,0-67.24-30.16-67.24-67.24s30.17-67.24,67.24-67.24,67.24,30.17,67.24,67.24-30.16,67.24-67.24,67.24Z" fill="#b76e3b"/><rect x="1237.538" y="888.764" width="1378.204" height="34.617" fill="#b76e3b"/><polygon points="1055.399 688.434 1055.399 1468.596 -4.36 1915.065 -4.36 1838.206 1016.878 1441.837 1016.878 699.122 -4.36 244.604 -4.36 190.445 1055.399 688.434" fill="#b76e3b"/><polygon points="1016.878 699.122 1016.878 1441.837 -4.36 1838.206 -4.36 1804.713 997.614 1431.893 997.614 712.146 -4.36 273.882 -4.36 244.604 1016.878 699.122" fill="#d3834c"/><g><polygon points="997.617 712.151 997.617 1431.891 787.257 1510.16 627.187 1569.721 627.177 1569.721 578.927 1587.681 504.877 1615.23 164.617 1741.841 4.527 1801.401 -4.363 1804.711 -4.363 273.881 364.737 435.331 420.957 459.92 457.597 475.941 579.147 529.11 837.507 642.121 893.727 666.711 930.367 682.73 997.617 712.151" fill="#29abe2" opacity=".5"/><g opacity=".3"><polygon points="997.617 712.151 997.617 894.751 787.257 1510.16 627.187 1569.721 930.367 682.73 997.617 712.151" fill="#fff"/><polygon points="893.727 666.711 578.927 1587.681 504.877 1615.23 837.507 642.121 893.727 666.711" fill="#fff"/><polygon points="579.147 529.11 164.617 1741.841 4.527 1801.401 457.597 475.941 579.147 529.11" fill="#fff"/><polygon points="420.957 459.92 -4.363 1704.221 -4.363 1515.131 364.737 435.331 420.957 459.92" fill="#fff"/></g></g><path d="M1255.927,923.381v481.4h832.98v-481.4h-832.98Zm989.52,95.67c-2.56-.3-5.16-.45-7.79-.45-37.08,0-67.24,30.17-67.24,67.24v274.39c0,37.08,30.16,67.24,67.24,67.24s67.24-30.16,67.24-67.24v-274.39c0-34.44-26.03-62.92-59.45-66.79Zm229.35-.45c-37.07,0-67.24,30.17-67.24,67.24s30.17,67.24,67.24,67.24,67.24-30.16,67.24-67.24-30.16-67.24-67.24-67.24Zm-1218.87-271.55v141.71h1332.77v-141.71H1255.927Z" fill="#29abe2" opacity=".5"/><g opacity=".3"><polygon points="2496.967 747.05 2365.927 888.761 2224.247 888.761 2360.827 747.05 2496.967 747.05" fill="#fff"/><polygon points="2088.907 1029.191 2088.907 1188.341 1888.767 1404.78 1726.917 1404.78 2088.907 1029.191" fill="#fff"/><polygon points="2088.907 923.381 2088.907 977.431 1677.027 1404.78 1600.477 1404.78 2064.457 923.381 2088.907 923.381" fill="#fff"/><polygon points="2310.947 747.05 2174.367 888.761 2097.817 888.761 2234.407 747.05 2310.947 747.05" fill="#fff"/><polygon points="1712.707 923.381 1255.927 1397.321 1255.927 1225.611 1547.217 923.381 1712.707 923.381" fill="#fff"/><polygon points="1882.657 747.05 1746.077 888.761 1580.587 888.761 1717.167 747.05 1882.657 747.05" fill="#fff"/><polygon points="1667.287 747.05 1530.707 888.761 1454.167 888.761 1590.747 747.05 1667.287 747.05" fill="#fff"/><polygon points="1497.337 923.381 1255.927 1173.861 1255.927 1094.441 1420.797 923.381 1497.337 923.381" fill="#fff"/></g></g></g></svg>