<?xml version="1.0" encoding="UTF-8"?><svg id="Layer_2" xmlns="http://www.w3.org/2000/svg" viewBox="0 0 64.807 113.231"><g id="Machnes_and_dividers"><g><path d="M59.713,107.123l-23.71,4.923c-.36-.032-.717-.064-1.067-.1-23.623-2.256-25.734-8.262-25.734-8.262l1.871-4.14c1.238-2.739,3.34-4.995,5.984-6.424l4.401-2.377c.241-3.664,.273-6.742,.186-9.307-.17-4.92-.485-7.423-.961-9.072-.01-.035-.019-.071-.029-.103-17.639,6.646-13.401-20.924-11.453-33.293,1.947-12.372,9.734-18.443,21.075-19.015,11.341-.572,22.106,9.393,21.763,19.931-.344,10.537-7.558,21.534-7.558,21.534-.688,22.678,4.467,26.573,9.965,33.103,.238,.283,.463,.562,.678,.842,.003,0,.003,.003,.003,.003,4.798,6.199,4.586,11.755,4.586,11.755Z" fill="#d9d9db"/><path d="M31.996,113.193s.511-.058,1.401-.161c-.816,.315-1.401,.161-1.401,.161Z" fill="#b9b9b9"/><path d="M59.713,107.123l-23.71,4.923c-.36-.032-.717-.064-1.067-.1,.357-.379,.72-.871,1.067-1.504,1.835-3.32,3.439-9.622,7.218-9.622,3.692,0,5.309-9.522,11.903-5.457,.003,0,.003,.003,.003,.003,4.798,6.199,4.586,11.755,4.586,11.755Z" fill="#b9b9b9"/><path d="M37.722,64.321s-6.511,12.183-16.078,17.116c-.17-4.92-.485-7.423-.961-9.072,3.834-1.244,9.609-3.602,17.039-8.044Z" fill="#b9b9b9"/><path d="M41.553,24.426c3.984,2.253,7.093,6.196,6.817,10.576-.146,2.305-1.903,4.14-4.198,4.401-13.93,1.586-25.735-25.817-2.968-15.157,.118,.055,.236,.115,.349,.179Z" fill="#e6e5ea"/></g><g><path d="M64.43,26.563c-1.113,4.3-4.586,8.135-4,12.538,.022,.159,.047,.316,.079,.473,.42,2.117,1.684,4.006,2.276,6.097,.825,2.911,.329,6.144,1.564,8.907-6.865-2.634-13.75-5.267-20.865-7.123-3.477-.907-7.025-1.635-10.321-3.067-1.904-.826-3.699-1.878-5.489-2.927-6.87-4.026-13.74-8.051-20.61-12.077-1.363-.799-2.728-1.598-4.129-2.33-.608-.318-1.252-.586-1.837-.945-.418-.257-.928-.617-1.065-1.118-.158-.573,.343-.949,.729-1.273,.479-.403,.973-.789,1.482-1.155,2.052-1.481,4.326-2.655,6.726-3.461,.906-.304,1.866-.578,2.557-1.239,.033-.031,.065-.064,.097-.097,.564-.592,.867-1.388,1.174-2.151,1.913-4.754,4.594-9.2,7.909-13.109,.68-.803,1.416-1.605,2.374-2.042C24,.041,25.046-.003,26.062,0c10.077,.032,19.739,4.042,28.507,9.01,1.535,.87,3.058,1.775,4.427,2.889,4.272,3.476,6.816,9.332,5.435,14.663Z" fill="#c3bbab"/><path d="M64.43,26.563c-1.113,4.3-4.586,8.135-4,12.538,.022,.159,.047,.316,.079,.473-1.165-.164-2.333-.484-3.461-.805-3.245-.922-6.488-1.845-9.733-2.767-3.048-.867-6.099-1.735-9.069-2.839-.339-.127-.676-.256-1.013-.387-1.394-.547-2.768-1.144-4.122-1.782-1.342-.632-2.664-1.305-3.969-2.01-1.314-.709-2.61-1.451-3.89-2.217-1.284-.768-2.553-1.561-3.811-2.371-1.26-.811-2.509-1.639-3.751-2.476-1.242-.838-2.476-1.685-3.709-2.535-.781-.539-1.585-1.06-2.36-1.617,.564-.592,.867-1.388,1.174-2.151,1.913-4.754,4.594-9.2,7.909-13.109,.68-.803,1.416-1.605,2.374-2.042C24,.041,25.046-.003,26.062,0c10.077,.032,19.739,4.042,28.507,9.01,1.535,.87,3.058,1.775,4.427,2.889,4.272,3.476,6.816,9.332,5.435,14.663Z" fill="#d1c8b8"/><path d="M43.487,7.863c-1.337-.113-2.764-.102-3.916,.588s-1.862,2.271-1.185,3.43c.245,.419,.632,.732,1.012,1.033,5.5,4.363,11.313,8.329,17.382,11.858,1.641,.954,3.434,1.907,5.324,1.737,.187-.017,.388-.052,.519-.186,.207-.211,.152-.556,.081-.842-.297-1.197-.622-2.387-.947-3.577-.384-1.407-.769-2.814-1.153-4.22-.198-.723-.404-1.451-.815-2.087-.318-.492-.718-.958-1.12-1.384-.682-.722-1.577-1.254-2.397-1.801-1.217-.813-2.496-1.531-3.824-2.146s-2.701-1.124-4.108-1.52-2.857-.678-4.316-.833c-.179-.019-.357-.036-.536-.051Z" fill="#dbd2c6"/><path d="M11.311,20.47c1.824,.013,3.451,1.08,4.959,2.107,.942,.642,1.884,1.284,2.826,1.925,1.187,.809,2.432,1.686,3.007,3.002-.142,.375-.632,.454-1.033,.447-2.914-.056-5.595-1.539-8.446-2.145-2.615-.555-5.321-.362-7.994-.302-1.099,.025-2.401-.08-2.971-1.02,.313-.172,.575-.337,.932-.372,.338-.033,.67-.135,.991-.245,.659-.228,1.282-.548,1.885-.895,1.21-.696,2.358-1.527,3.66-2.05,.695-.279,1.433-.457,2.185-.452Z" fill="#ada699"/></g></g></svg>