<?xml version="1.0" encoding="UTF-8"?><svg id="Layer_2" xmlns="http://www.w3.org/2000/svg" xmlns:xlink="http://www.w3.org/1999/xlink" viewBox="1 1 3840 2159.431"><defs><clipPath id="clippath"><rect width="3844.51" height="2159.431" fill="none"/></clipPath></defs><g id="Layer_14"><g clip-path="url(#clippath)"><polygon points="3847.732 1.15 1920.519 1080.238 -6.695 1.15 3847.732 1.15" fill="#ccc6ba"/><polygon points="3847.728 2159.328 -6.691 2159.328 1128.109 1523.928 1920.519 1080.238 2685.259 1508.428 2685.259 1508.438 2711.849 1523.318 2760.829 1550.748 3847.728 2159.328" fill="#b0b0b0"/><polygon points="1920.519 1080.238 -6.695 2159.325 -6.695 1.15 1920.519 1080.238" fill="#e5ddcf"/><polygon points="3847.728 1.148 3847.728 2159.328 2760.829 1550.748 2760.829 676.658 2711.849 676.658 2711.849 1523.318 2685.259 1508.428 1920.519 1080.238 2711.849 637.158 3847.728 1.148" fill="#8bb9fc"/><rect x="1128.109" y="632.918" width="1583.74" height="893.56" fill="#fef5e2"/><polygon points="2733.171 1301.08 2733.171 1531.688 3659.287 1662.491 4467.944 1337.221 2733.171 1301.08" fill="#07826d"/><g><g><path d="M3374.429,1039.376c2.103,22.329,4.275,44.965,12.161,65.96,10.522,28.012,31.316,52.034,57.53,66.464,26.214,14.429,57.634,19.147,86.929,13.054-3.22-6.92-4.521-14.723-3.719-22.314-15.578-.139-31.138-2.149-46.239-5.975-13.919-3.526-29.215-10.375-33.243-24.158-1.974-6.754-.793-13.988,.605-20.884,6.671-32.912,18.018-64.872,33.592-94.623-11.706-1.548-23.413-3.095-35.119-4.643-1.265,20.931-5.202,41.699-11.685,61.641-2.498,7.683-6.877,16.481-14.913,17.306-6.17,.633-11.863-4.212-14.196-9.959-2.332-5.747-2.038-12.185-1.527-18.366,2.038-24.64,6.952-49.04,14.61-72.547-12.902,4.361-25.803,8.722-38.705,13.083-2.512,.849-5.087,1.733-7.121,3.434-6.614,5.531-4.366,16.16-.67,23.949-5.42,5.242-10.841,10.485-16.261,15.727" fill="#917709"/><path d="M3666.523,1118.99c-.926,21.408-1.271,43.1-6.995,63.749-12.187,43.97-50.178,79.735-94.803,89.248,.237,8.286,.473,16.571,.71,24.857,17.696,1.326,34.948-5.751,50.484-14.327,74.958-41.379,125.954-123.153,130.133-208.673,.675-13.82,.231-27.834,3.451-41.291-3.58-.319-7.159-.638-10.739-.956-2.502,50.345-20.261,99.832-50.341,140.281-6.627-12.69-2.538-28.037,1.039-41.899,5.624-21.792,9.644-43.997,12.021-66.377,.653-6.151,1.856-12.799,1.549-18.966-8.946-.1-21.837,.798-28.002,8.339-2.915,3.566-4.158,8.186-4.823,12.659-1.193,8.028-1.487,16.277-2.049,24.369-.671,9.654-1.215,19.318-1.634,28.986Z" fill="#917709"/><path d="M3523.804,1061.81c10.889,18.029,25.234,35.453,45.132,42.357,22.909,7.949,49.584-.326,66.796-17.406,17.212-17.081,25.63-41.657,26.582-65.887-9.773-.825-19.545-1.649-29.318-2.474,.915,20.813-7.95,41.849-23.485,55.729-3.456,3.088-8.086,5.99-12.453,4.44-5.606-1.991-6.473-9.48-5.998-15.41,1.567-19.549,7.173-38.764,16.364-56.088-9.192-2.155-17.95-6.15-25.603-11.679,.689,20.336-3.864,40.827-13.099,58.958-.983,1.93-2.204,3.995-4.261,4.673-3.953,1.301-7.23-3.192-8.873-7.015-8.707-20.254-13.895-42.016-15.263-64.02-7.189,2.493-14.378,4.985-21.568,7.478-3.792,1.315-10.552,2.178-12.02,6.612-1.854,5.6-.475,13.425,.513,19.087,1.182,6.77,3.252,13.366,5.854,19.719,2.973,7.258,6.646,14.218,10.698,20.928Z" fill="#917709"/><path d="M3583.907,1591.562c2.018-1.127,4.087-2.452,5.106-4.526,1.16-2.361,.713-5.151,.37-7.759-1.737-13.23-.074-26.639,1.413-39.899,17.014-151.656-7.824-259.203,5.283-450.484-8.655-.347-49.268-17.776-49.928-14.955-11.273,48.156-36.016,201.701-35.649,251.157,.663,89.535,1.326,179.071,1.989,268.606,0,0,51.192,9.149,71.416-2.141Z" fill="#917709"/></g><g><path d="M3213.865,823.477c-4.457,1.401-8.689,3.42-12.557,6.11-11.184,7.736-18.976,22.059-14.94,35.036,4.036,12.977,23.096,19.761,32.205,9.698" fill="none" stroke="#07838d" stroke-miterlimit="10" stroke-width="2.803"/><path d="M3354.543,812.882c1.009-2.074,2.158-4.092,3.504-5.97-.785,2.13-1.934,4.148-3.504,5.97Z" fill="none" stroke="#07838d" stroke-miterlimit="10" stroke-width="2.803"/><path d="M3420.244,740.539c-3.083,1.289-6.307,1.345-9.334,.505,3.111-.308,6.25-.448,9.334-.505Z" fill="none" stroke="#07838d" stroke-miterlimit="10" stroke-width="2.803"/><path d="M3754.071,756.291c2.663,.056,5.298,.701,7.736,1.738-2.635-.056-5.241-.645-7.736-1.738Z" fill="none" stroke="#07838d" stroke-miterlimit="10" stroke-width="2.803"/><path d="M3966.728,871.883c-1.401,4.036-3.055,8.016-4.961,11.884-11.772,23.825-32.934,43.081-58.889,47.005-15.696,2.382-33.046-1.485-43.893-13.118-9.838-10.595-12.361-28.113-4.541-39.942-6.307,7.259-15.22,12.445-24.806,12.725-10.959,.336-22.283-6.783-25.002-17.406-12.192,8.661-29.094,10.231-42.66,3.924-13.594-6.307-23.292-20.237-24.525-35.148-8.409,39.381-46.865,70.101-87.114,69.568-40.25-.533-77.893-32.262-85.265-71.811-4.176-22.367,1.738-47.818,19.62-61.916-22.171,11.043-47.117,18.387-71.614,14.771-15.5-2.298-30.664-9.754-41.371-20.994,5.998,20.741,.56,45.239-14.911,60.795-21.919,22.003-59.198,24.974-86.078,9.446,12.136,9.053,12.08,30.131-.112,39.129-12.165,8.997-32.318,2.859-37.419-11.38,1.43,18.668-13.117,36.298-31.028,41.679-17.939,5.41-37.895,.112-53.255-10.595-13.987-9.726-24.133-24.245-29.711-40.25-3.952-11.464-6.026-24.441-5.326-36.774,13.202-4.12,28.225-2.607,40.053,4.653,11.296,6.923,21.022,18.92,32.374,24.385,4.653,2.242,9.558,3.391,14.94,2.663-8.83-16.958-13.903-36.97-8.409-55.302,5.494-18.303,23.965-33.439,42.856-30.328,16.481,2.719,28.057,22.648,22.367,37.363,6.839-9.866,17.77-16.901,29.683-18.752-13.818-3.223-16.173-24.105-6.671-34.616,7.456-8.241,18.555-11.408,29.851-12.501-8.689-2.354-15.976-12.024-14.883-21.526,1.485-12.809,13.847-22.255,26.6-24.245,12.725-2.018,25.619,1.85,37.671,6.447-3.28-6.082-3.588-13.678-.785-20.013-8.213,4.373-19.284,2.523-25.591-4.289-6.334-6.839-7.371-17.995-2.382-25.843-5.802,5.045-11.94,10.259-19.48,11.856-7.512,1.598-16.705-1.934-18.639-9.39-2.466-9.474,6.951-16.425,16.677-20.321-18.219,3.7-38.231-16.453-34.532-35.765,4.064-21.33,29.459-33.971,50.537-28.842,11.24,2.747,21.498,9.894,27.637,19.592,.645-5.97,5.606-12.333,12.025-12.529,10.315-.364,18.331,9.614,20.657,19.677,6.418-13.958,15.696-29.655,30.972-31.056,18.892-1.738,31.926,21.723,27.469,40.138-4.457,18.443-19.789,31.897-34.28,44.118,13.37-8.661,30.86-10.651,45.828-5.157,5.774-19.957,35.289-27.777,50.2-13.258-7.652-22.227,9.138-49.359,32.43-52.442,19.593-2.607,39.129,12.361,43.95,31.112,2.242-11.856,14.463-22.311,27.104-21.33,16.537,1.317,29.095,18.135,29.01,34.728-.112,16.593-10.567,31.841-24.133,41.371,8.97-3.083,19.929,1.934,23.461,10.763,3.504,8.801-.953,19.985-9.586,23.937,13.762-4.989,29.823-5.073,42.436,2.326,12.641,7.372,20.713,23.012,16.958,37.167-3.055,11.492-14.912,20.125-26.432,19.761,7.736,3.364,13.678,11.128,14.07,19.62,.505,11.156-8.633,21.947-19.732,23.264,15.808-.252,32.542-.308,46.192,7.708,13.622,8.044,22.003,27.216,13.006,40.222,15.248-14.407,39.381-18.555,58.581-10.034,19.2,8.493,32.345,29.122,31.925,50.116,12.557-16.201,34.476-26.88,53.956-20.433,2.466,.813,4.765,1.962,6.923,3.391Z" fill="#46b072"/><path d="M4087.337,908.77c-8.409-10.707-21.442-17.014-34.728-19.985-8.885-1.99-18.079-2.607-27.16-1.878-17.322,1.346-34.252,7.484-48.182,17.827-1.598-9.025-7.624-16.313-15.5-20.966-11.772,23.825-32.934,43.081-58.889,47.005-15.696,2.382-33.046-1.485-43.893-13.118-9.838-10.595-12.361-28.113-4.541-39.942-6.307,7.259-15.22,12.445-24.806,12.725-10.959,.336-22.283-6.783-25.002-17.406-12.192,8.661-29.094,10.231-42.66,3.924-13.594-6.307-23.292-20.237-24.525-35.148-8.409,39.381-46.865,70.101-87.114,69.568-40.25-.533-77.893-32.262-85.265-71.811-4.176-22.367,1.738-47.818,19.62-61.916-22.171,11.043-47.117,18.387-71.614,14.771-15.5-2.298-30.664-9.754-41.371-20.994,5.998,20.741,.56,45.239-14.911,60.795-21.919,22.003-59.198,24.974-86.078,9.446,12.136,9.053,12.08,30.131-.112,39.129-12.165,8.997-32.318,2.859-37.419-11.38,1.43,18.668-13.117,36.298-31.028,41.679-17.939,5.41-37.895,.112-53.255-10.595-13.987-9.726-24.133-24.245-29.711-40.25-3.952-11.464-6.026-24.441-5.326-36.774,13.202-4.12,28.225-2.607,40.053,4.653,11.296,6.923,21.022,18.92,32.374,24.385,3.223-23.04-7.316-48.126-27.132-60.739-25.002-15.892-61.132-10.399-80.78,11.772-19.62,22.143-20.994,58.132-3.644,82.125-21.751-13.79-50.76-15.164-73.801-3.7-1.037,.505-2.046,1.037-3.055,1.598-9.614,5.382-18.443,13.594-20.938,24.357-4.401,18.92,13.454,37.167,32.57,40.642,15.248,2.775,30.552-1.093,45.351-6.222-14.575,6.054-28.141,14.603-39.829,25.198-5.101,4.597-10.118,10.147-10.679,16.986-1.178,14.099,15.976,21.975,29.991,23.6,20.713,2.439,41.903,.505,61.86-5.522,5.494-2.579,11.408-4.513,17.126-6.335-5.578,2.439-11.296,4.569-17.126,6.335-6.278,2.887-12.024,6.587-16.453,11.856-8.268,9.894-9.053,27.188,1.822,34.168,6.643,4.232,15.22,3.448,22.956,1.99,34.195-6.447,66.429-22.984,91.599-46.977,3.448,27.945,28.422,51.658,56.506,53.648,27.328,1.934,54.657-16.958,62.842-43.053-1.99,8.577,2.915,17.995,10.202,23.208,7.904,5.634,17.939,7.288,27.637,7.904,11.099,.729,23.18-.056,31.813-7.091,8.605-7.063,10.876-22.367,1.794-28.842,23.124,2.074,46.78-1.99,67.886-11.66,5.185,20.741,18.359,39.409,36.185,51.237,10.007,6.643,22.339,11.268,34,8.437,8.409-2.046,15.808-9.138,17.882-17.21-.925-3.055-1.093-6.307-.168-9.614,1.009,3.195,1.009,6.475,.168,9.614,2.663,8.829,11.744,16.313,20.574,20.742,23.993,12.052,52.05,15.892,78.397,10.735,10.707-2.074,21.779-6.054,28.394-14.743,3.559-4.681,5.185-11.043,4.457-16.817-3.195-3.532-5.69-7.624-7.148-12.193,4.204,2.747,6.531,7.26,7.148,12.193,6.25,7.007,15.22,11.828,24.497,13.93,13.93,3.167,28.533,1.065,42.492-2.102,7.82-1.766,16.425-4.541,20.125-11.66,1.317-2.551,1.317-5.662,.42-8.409-3.7-2.158-7.288-4.457-10.763-6.923,4.737-1.934,9.166,1.99,10.763,6.923,29.739,17.294,65.588,24.049,99.56,18.359,7.904-1.317,16.593-3.952,20.321-11.043,4.485-8.549-1.037-19.592-9.362-24.497-1.205-.701-2.41-1.317-3.672-1.85-8.268-.224-16.481-1.457-24.441-3.672,8.269,.196,16.902,.505,24.441,3.672,23.208,.673,46.725-6.307,65.476-20.069-7.343-7.876-17.098-13.314-27.553-15.724-6.25,0-12.501-.336-18.724-1.009,6.25-.785,12.613-.42,18.724,1.009,19.004-.028,37.979-3.195,55.946-9.418,11.492-4.008,23.32-9.894,29.178-20.573,6.531-11.968,3.644-27.609-4.793-38.316Zm-932.333,33.523c3.644-1.514,7.372-2.859,11.127-4.064-3.672,1.374-7.372,2.775-11.127,4.064Z" fill="#0f5962"/><path d="M3155.004,942.292c3.644-1.514,7.372-2.859,11.127-4.064-3.672,1.374-7.372,2.775-11.127,4.064Z" fill="none" stroke="#07838d" stroke-miterlimit="10" stroke-width="2.803"/><path d="M3196.207,1002.611c5.494-2.579,11.408-4.513,17.126-6.335-5.578,2.439-11.296,4.569-17.126,6.335Z" fill="none" stroke="#07838d" stroke-miterlimit="10" stroke-width="2.803"/><path d="M3315.807,860.924h-.028q.028-.056,.056-.084c0,.028,0,.056-.028,.084Z" fill="none" stroke="#07838d" stroke-miterlimit="10" stroke-width="2.803"/><path d="M4025.449,886.907c-.476,1.626-.981,3.223-1.514,4.793-6.054,18.163-15.304,36.073-30.664,47.509-15.36,11.436-37.867,14.799-53.676,3.98-6.839,17.378-34.84,20.629-45.464,5.241-10.763,7.988-24.75,11.52-38.007,9.586,14.239,5.185,8.297,29.543-6.222,33.971-14.491,4.428-29.599-3.644-42.52-11.548,4.737,11.576-.729,26.347-11.857,32.065-11.127,5.746-26.319,1.57-32.99-9.025-10.763,18.695-39.241,23.993-56.003,10.399-16.789-13.594-17.49-42.548-1.43-56.955-20.041,6.727-42.66,5.466-61.86-3.448,12.753,7.54,13.146,27.777,3.083,38.624-10.062,10.875-26.712,13.342-41.203,10.203-15.948-3.42-31.869-15.08-33.243-31.365-4.877,14.491-24.75,20.433-37.979,12.809-13.258-7.596-18.64-25.367-14.211-39.998,3.784-12.613,13.734-22.676,25.563-28.674-27.665,10.763-61.524,4.428-83.05-16.201-15.276,23.096-44.258,36.354-71.727,32.794,12.585,10.343,12.725,31.869,1.233,43.445-11.492,11.548-31.645,12.249-44.875,2.719-13.23-9.53-19.088-27.581-15.612-43.529-20.069,16.874-50.733,19.789-73.633,7.007-1.233,23.516-28.73,42.38-50.312,32.99-20.658-9.025-24.469-42.38-6.643-55.161-17.125,10.567-38.344,15.052-57.768,9.866-20.349-5.41-37.867-22.395-41.427-43.165-.224-1.261-.392-2.579-.505-3.868,23.04-11.464,52.05-10.091,73.801,3.7-17.35-23.993-15.976-59.982,3.644-82.125,19.648-22.171,55.778-27.665,80.78-11.772,19.816,12.613,30.355,37.699,27.132,60.739-11.352-5.466-21.078-17.462-32.374-24.385-11.828-7.26-26.852-8.773-40.053-4.653-.701,12.333,1.373,25.31,5.326,36.774,5.578,16.005,15.724,30.524,29.711,40.25,15.36,10.707,35.317,16.005,53.255,10.595,17.911-5.382,32.458-23.012,31.028-41.679,5.101,14.239,25.254,20.377,37.419,11.38,12.192-8.997,12.248-30.075,.112-39.129,26.88,15.528,64.159,12.557,86.078-9.446,15.472-15.556,20.91-40.054,14.911-60.795,10.707,11.24,25.871,18.695,41.371,20.994,24.497,3.616,49.443-3.728,71.614-14.771-17.882,14.099-23.797,39.549-19.62,61.916,7.372,39.549,45.015,71.278,85.265,71.811,40.25,.533,78.706-30.187,87.114-69.568,1.233,14.912,10.931,28.842,24.525,35.148,13.566,6.307,30.468,4.737,42.66-3.924,2.719,10.623,14.043,17.742,25.002,17.406,9.586-.28,18.499-5.466,24.806-12.725-7.82,11.828-5.297,29.346,4.541,39.942,10.847,11.632,28.197,15.5,43.893,13.118,25.955-3.924,47.117-23.18,58.889-47.005,7.876,4.653,13.902,11.94,15.5,20.966,13.93-10.343,30.86-16.481,48.182-17.827Z" fill="#07826d"/></g></g><polygon points="3847.728 1526.478 3847.728 2150.458 2760.829 1546.878 2724.099 1526.478 3847.728 1526.478" fill="#622626"/><polygon points="3847.728 1856.148 3847.728 1955.238 2903.369 1526.478 3028.889 1526.478 3847.728 1856.148" fill="#762c2d"/><polygon points="3847.728 1697.948 3847.728 1776.828 3155.099 1526.478 3312.769 1526.478 3847.728 1697.948" fill="#762c2d"/><polygon points="3847.728 1573.228 3847.728 1636.188 3467.409 1526.478 3664.968 1526.478 3847.728 1573.228" fill="#762c2d"/><polyline points="3847.728 2093.258 2711.849 1489.948 2711.849 1468.158 3847.728 2024.978 3847.728 2087.808" fill="#737399"/><polygon points="3847.728 2087.808 3847.728 2158.848 2727.139 1531.688 2711.849 1523.128 2711.849 1489.948 2727.139 1497.998 3115.659 1702.488 3147.438 1719.218 3847.728 2087.808" fill="#444460"/><polygon points="3847.728 1.148 3847.728 97.058 3148.448 453.798 3115.659 470.528 2711.849 676.538 2711.849 637.158 3847.728 1.148" fill="#444460"/><polygon points="3847.728 97.058 3847.728 154.288 2760.718 676.558 2711.849 676.558 2711.849 676.538 3847.728 97.058" fill="#737399"/><polygon points="3148.448 453.798 3148.448 1719.218 3147.438 1719.218 3115.659 1702.488 3115.659 470.528 3148.448 453.798" fill="#444460"/><rect x="3148.448" y="453.278" width="75.57" height="1265.94" fill="#9595bc"/><polygon points="2775.829 668.658 2775.829 1542.748 2726.849 1515.318 2726.849 668.658 2775.829 668.658" fill="#9595bc"/><polygon points="2727.139 668.548 2727.139 1531.688 2711.849 1523.128 2711.849 676.348 2727.139 668.548" fill="#444460"/><polygon points="3840.519 130.298 3840.519 2050.028 3776.938 2017.918 3682.718 1970.318 3594.998 1926.018 3216.039 1734.598 3193.599 1723.268 3193.599 450.368 3216.039 439.268 3232.998 430.878 3301.748 396.858 3375.609 360.318 3578.128 260.118 3840.519 130.298" fill="#00bdff" opacity=".4"/><polygon points="3113.759 489.868 3113.759 1682.938 3098.859 1675.418 3011.139 1631.108 2755.198 1501.828 2755.198 667.268 2775.369 657.288 2844.119 623.278 2917.978 586.738 3113.759 489.868" fill="#00bdff" opacity=".5"/><polygon points="3682.718 1970.318 3594.998 1926.018 3232.998 430.878 3301.748 396.858 3682.718 1970.318" fill="#fff" opacity=".2"/><polygon points="3840.519 1343.818 3840.519 2050.028 3776.938 2017.918 3375.609 360.318 3578.128 260.118 3840.519 1343.818" fill="#fff" opacity=".2"/><polygon points="3098.859 1675.418 3011.139 1631.108 2775.369 657.288 2844.119 623.278 3098.859 1675.418" fill="#fff" opacity=".2"/><polygon points="3113.759 489.868 3113.759 1395.378 2917.978 586.738 3113.759 489.868" fill="#fff" opacity=".2"/></g></g></svg>