<?xml version="1.0" encoding="UTF-8"?><svg id="Layer_2" xmlns="http://www.w3.org/2000/svg" viewBox="0 0 202.39 241.395"><g id="VIVI_Panels"><g><polygon points="0 200.564 68.268 241.395 68.268 146.16 0 105.33 0 200.564" fill="#aa7552"/><polygon points="67.138 146.071 73.775 142.24 74.904 237.529 68.268 241.361 67.138 146.071" fill="#e8b185"/><polygon points="127.486 121.418 195.754 162.248 195.754 67.013 127.486 26.183 127.486 121.418" fill="#aa7552"/><g><g><g><path d="M182.635,87.72h0c1.276,.737,2.311-.045,2.311-1.747v-11.339c0-1.702-1.035-3.679-2.311-4.415h0c-1.276-.737-2.311,.045-2.311,1.747v11.339c0,1.702,1.035,3.679,2.311,4.415Z" fill="#e8b185"/><path d="M189.199,82.758h0c0-1.702-1.035-3.679-2.311-4.416l-8.505-4.91c-1.276-.737-2.311,.045-2.311,1.747h0c0,1.702,1.035,3.679,2.311,4.416l8.505,4.91c1.276,.737,2.311-.045,2.311-1.747Z" fill="#e8b185"/></g><g><path d="M163.033,76.402h0c1.276,.737,2.311-.045,2.311-1.747v-11.339c0-1.702-1.035-3.679-2.311-4.415h0c-1.276-.737-2.311,.045-2.311,1.747v11.339c0,1.702,1.035,3.679,2.311,4.415Z" fill="#e8b185"/><path d="M169.597,71.441h0c0-1.702-1.035-3.679-2.311-4.416l-8.505-4.91c-1.276-.737-2.311,.045-2.311,1.747h0c0,1.702,1.035,3.679,2.311,4.416l8.505,4.91c1.276,.737,2.311-.045,2.311-1.747Z" fill="#e8b185"/></g><g><path d="M143.431,65.085h0c1.276,.737,2.311-.045,2.311-1.747v-11.339c0-1.702-1.035-3.679-2.311-4.415h0c-1.276-.737-2.311,.045-2.311,1.747v11.339c0,1.702,1.035,3.679,2.311,4.415Z" fill="#e8b185"/><path d="M149.995,60.124h0c0-1.702-1.035-3.679-2.311-4.416l-8.505-4.91c-1.276-.737-2.311,.045-2.311,1.747h0c0,1.702,1.035,3.679,2.311,4.416l8.505,4.91c1.276,.737,2.311-.045,2.311-1.747Z" fill="#e8b185"/></g></g><g><g><path d="M182.635,114.102h0c1.276,.737,2.311-.045,2.311-1.747v-11.339c0-1.702-1.035-3.679-2.311-4.415h0c-1.276-.737-2.311,.045-2.311,1.747v11.339c0,1.702,1.035,3.679,2.311,4.415Z" fill="#e8b185"/><path d="M189.199,109.141h0c0-1.702-1.035-3.679-2.311-4.416l-8.505-4.91c-1.276-.737-2.311,.045-2.311,1.747h0c0,1.702,1.035,3.679,2.311,4.416l8.505,4.91c1.276,.737,2.311-.045,2.311-1.747Z" fill="#e8b185"/></g><g><path d="M163.033,102.785h0c1.276,.737,2.311-.045,2.311-1.747v-11.339c0-1.702-1.035-3.679-2.311-4.415h0c-1.276-.737-2.311,.045-2.311,1.747v11.339c0,1.702,1.035,3.679,2.311,4.415Z" fill="#e8b185"/><path d="M169.597,97.824h0c0-1.702-1.035-3.679-2.311-4.416l-8.505-4.91c-1.276-.737-2.311,.045-2.311,1.747h0c0,1.702,1.035,3.679,2.311,4.416l8.505,4.91c1.276,.737,2.311-.045,2.311-1.747Z" fill="#e8b185"/></g><g><path d="M143.431,91.468h0c1.276,.737,2.311-.045,2.311-1.747v-11.339c0-1.702-1.035-3.679-2.311-4.415h0c-1.276-.737-2.311,.045-2.311,1.747v11.339c0,1.702,1.035,3.679,2.311,4.415Z" fill="#e8b185"/><path d="M149.995,86.507h0c0-1.702-1.035-3.679-2.311-4.416l-8.505-4.91c-1.276-.737-2.311,.045-2.311,1.747h0c0,1.702,1.035,3.679,2.311,4.416l8.505,4.91c1.276,.737,2.311-.045,2.311-1.747Z" fill="#e8b185"/></g></g><g><g><path d="M182.635,140.485h0c1.276,.737,2.311-.045,2.311-1.747v-11.339c0-1.702-1.035-3.679-2.311-4.415h0c-1.276-.737-2.311,.045-2.311,1.747v11.339c0,1.702,1.035,3.679,2.311,4.415Z" fill="#e8b185"/><path d="M189.199,135.524h0c0-1.702-1.035-3.679-2.311-4.416l-8.505-4.91c-1.276-.737-2.311,.045-2.311,1.747h0c0,1.702,1.035,3.679,2.311,4.416l8.505,4.91c1.276,.737,2.311-.045,2.311-1.747Z" fill="#e8b185"/></g><g><path d="M163.033,129.168h0c1.276,.737,2.311-.045,2.311-1.747v-11.339c0-1.702-1.035-3.679-2.311-4.415h0c-1.276-.737-2.311,.045-2.311,1.747v11.339c0,1.702,1.035,3.679,2.311,4.415Z" fill="#e8b185"/><path d="M169.597,124.207h0c0-1.702-1.035-3.679-2.311-4.416l-8.505-4.91c-1.276-.737-2.311,.045-2.311,1.747h0c0,1.702,1.035,3.679,2.311,4.416l8.505,4.91c1.276,.737,2.311-.045,2.311-1.747Z" fill="#e8b185"/></g><g><path d="M143.431,117.85h0c1.276,.737,2.311-.045,2.311-1.747v-11.339c0-1.702-1.035-3.679-2.311-4.415h0c-1.276-.737-2.311,.045-2.311,1.747v11.339c0,1.702,1.035,3.679,2.311,4.415Z" fill="#e8b185"/><path d="M149.995,112.889h0c0-1.702-1.035-3.679-2.311-4.416l-8.505-4.91c-1.276-.737-2.311,.045-2.311,1.747h0c0,1.702,1.035,3.679,2.311,4.416l8.505,4.91c1.276,.737,2.311-.045,2.311-1.747Z" fill="#e8b185"/></g></g></g><polygon points="194.624 66.925 201.261 63.093 202.39 158.382 195.754 162.214 194.624 66.925" fill="#e8b185"/><g><polygon points="135.348 24.341 70.157 61.979 134.953 99.311 200.144 61.673 135.348 24.341" fill="#ffcfae"/><polygon points="135.001 99.339 135.001 104.19 200.172 66.539 200.172 61.689 135.001 99.339" fill="#e8b185"/><polygon points="135.001 99.339 135.001 104.19 70.175 66.84 70.175 61.99 135.001 99.339" fill="#e8b185"/></g><g><polygon points="67.67 63.538 .996 102.033 67.266 140.214 133.94 101.719 67.67 63.538" fill="#ffcfae"/><polygon points="67.315 140.242 67.315 145.203 133.968 106.697 133.968 101.736 67.315 140.242" fill="#e8b185"/><polygon points="67.315 140.242 67.315 145.203 1.015 107.004 1.015 102.044 67.315 140.242" fill="#e8b185"/></g><g><path d="M92.909,25.127l3.859,.312c.539,.044,1-.381,1-.922V11.19c0-.54-.461-.965-1-.922l-3.859,.312c-.481,.039-.851,.44-.851,.922v12.704c0,.482,.37,.883,.851,.922Z" fill="#e6e5ea"/><path d="M96.779,8.722V63.245c0,2.053,1.672,3.712,3.727,3.698l69.445-.469c1.988-.013,3.61-1.593,3.675-3.578l.402-12.342,.032-1.008c.028-.874-.255-1.729-.797-2.415l-1.569-1.98c-.689-.869-1.731-1.384-2.84-1.403l-38.984-.661c-.292-.005-.565-.077-.808-.201-.071-.036-.139-.077-.204-.121-.54-.368-.871-1.014-.798-1.717l1.469-14.197c.097-.943,.892-1.66,1.841-1.66h17.561c.775,0,1.467,.482,1.736,1.207l2.206,5.956c.268,.726,.961,1.207,1.735,1.207h14.119c.98,0,1.791-.765,1.847-1.743l1.323-22.885c.029-.492-.041-.966-.19-1.404-.494-1.452-1.87-2.506-3.506-2.506H100.481c-.267,0-.528,.029-.779,.082-1.671,.357-2.923,1.84-2.923,3.616Z" fill="#d9d9db"/><path d="M116.968,49.292l5.299-.418c2.883-.227,5.369-2.11,6.367-4.822l.429-1.167c-.658-.335-1.083-1.05-1.001-1.838l1.469-14.197c.097-.943,.892-1.66,1.841-1.66h17.561c.775,0,1.467,.482,1.736,1.207l2.206,5.956c.268,.726,.961,1.207,1.735,1.207h.889s0-10.743,0-10.743c0-1.201-.975-2.175-2.177-2.175h-20.646c-3.857,0-7.273,2.486-8.455,6.153l-7.253,22.495Z" fill="#9b95c5"/><polygon points="128.404 1.047 119.299 2.057 119.607 5.616 128.404 5.616 128.404 1.047" fill="#9b95c5"/><path d="M127.599,.419l.782,5.856,2.947-.659V2.054c0-.134-.072-.257-.189-.322l-2.991-1.683c-.266-.15-.589,.069-.549,.371Z" fill="#d9d9db"/><ellipse cx="111.162" cy="19.869" rx="5.41" ry="5.405" fill="#fff"/><ellipse cx="111.162" cy="20.424" rx="5.41" ry="5.405" fill="#e6e5ea"/><ellipse cx="111.162" cy="40.162" rx="5.41" ry="5.405" fill="#fff"/><ellipse cx="111.162" cy="40.716" rx="5.41" ry="5.405" fill="#e6e5ea"/><circle cx="111.162" cy="40.716" r="3.581" fill="#9b95c5"/><path d="M103.112,51.693c0,.372,.28,.684,.65,.726,26.119,2.909,50.331,1.661,60.966,.837,3.607-.28,6.667-.242,9.301-2.702l.032-1.008c.028-.874-.255-1.729-.797-2.415l-1.569-1.98c-.689-.869-1.731-1.384-2.84-1.403l-38.984-.661c-.292-.005-.565-.077-.808-.201-.071-.036-.139-.077-.204-.121l-11.891,6.527-13.216,1.676c-.182,.023-.342,.113-.457,.242-.114,.129-.182,.299-.182,.483Z" fill="#e6e5ea"/><path d="M102.785,8.959c37.724,2.964,61.65-.214,68.923-1.429-.494-1.452-1.87-2.506-3.506-2.506H100.481c-.267,0-.528,.029-.779,.082-.269,1.806,1.02,3.692,3.084,3.854Z" fill="#e6e5ea"/><rect x="155.297" y="35.539" width="4.091" height="1.219" rx=".61" ry=".61" transform="translate(314.684 72.297) rotate(-180)" fill="#9a9496"/><rect x="156.484" y="41.273" width="2.342" height="1.219" rx=".61" ry=".61" transform="translate(315.311 83.766) rotate(-180)" fill="#8e888c"/><polygon points="148.435 46.818 164.435 46.818 162.861 44.305 148.99 44.305 148.435 46.818" fill="#9a9496"/><rect x="156.781" y="33.759" width="1.353" height="11.315" transform="translate(314.915 78.834) rotate(-180)" fill="#2d282e"/><rect x="159.658" y="33.463" width=".95" height="1.911" transform="translate(320.266 68.837) rotate(-180)" fill="#9a9496"/><rect x="161.208" y="34.979" width="3.431" height="1.17" transform="translate(325.847 71.128) rotate(-180)" fill="#9a9496"/><circle cx="154.4" cy="36.149" r=".89" fill="#868084"/><rect x="159.361" y="34.979" width="2.309" height="2.537" transform="translate(321.031 72.495) rotate(-180)" fill="#b2b1b1"/><path d="M157.291,5.024l-.023,.351c.388,1.584,.584,3.208,.584,4.838V30.299s2.246,0,2.246,0" fill="none" stroke="#2d282e" stroke-linecap="round" stroke-linejoin="round" stroke-width=".463"/><polyline points="160.591 6.012 160.921 7.989 160.129 33.628" fill="none" stroke="#2d282e" stroke-linecap="round" stroke-miterlimit="10" stroke-width=".463"/><g><path d="M144.75,17.694c.002,.027,.004,.041,.004,.056,0,.363,0,.726,.001,1.088,0,.038-.008,.068-.038,.095-.05,.047-.095,.099-.141,.147,.002,.006,.002,.008,.003,.009,0,.001,.002,.003,.003,.003,.26,0,.52,.001,.779,.002,.006,0,.013-.002,.025-.004-.01-.013-.015-.023-.023-.031-.038-.042-.076-.084-.117-.124-.025-.025-.034-.052-.034-.087,.001-.38,0-.76,0-1.14,0-.167,0-.334,0-.5,0-.032,.008-.055,.03-.078,.042-.043,.082-.088,.123-.132,.007-.007,.012-.016,.023-.032h-.052c-.208,0-.417,.001-.625-.001-.039,0-.062,.013-.085,.044-.315,.415-.631,.83-.947,1.244-.011,.014-.023,.028-.041,.052-.002-.025-.004-.038-.004-.051,0-.349,0-.698,0-1.047,0-.03,.008-.052,.029-.073,.051-.051,.1-.104,.151-.157-.036-.013-.71-.018-.813-.006,.007,.011,.012,.021,.019,.029,.039,.043,.078,.087,.12,.128,.025,.025,.034,.052,.034,.087-.001,.397,0,.794,0,1.192,0,.148,0,.296,0,.444,0,.033-.008,.058-.032,.082-.048,.048-.094,.1-.149,.16,.027,.001,.042,.002,.058,.002,.177,0,.355-.001,.532,.001,.039,0,.063-.012,.086-.042,.276-.351,.554-.702,.832-1.052,.069-.088,.139-.175,.208-.263,.01-.013,.021-.024,.039-.045Z" fill="#9d3438"/><path d="M138.616,16.967c-.019,0-.036,0-.053,0-.439,0-.878-.003-1.317,.002-.165,.002-.322,.051-.463,.142-.113,.073-.175,.182-.207,.31-.04,.163-.04,.326-.003,.49,.037,.162,.129,.279,.278,.351,.043,.021,.087,.039,.134,.06-.011,.017-.021,.031-.031,.044-.128,.171-.255,.342-.383,.512-.018,.024-.041,.046-.065,.065-.062,.048-.126,.094-.192,.143,.039,.013,.811,.012,.937,0-.039-.06-.077-.116-.116-.175,.011-.015,.02-.029,.03-.042,.135-.172,.27-.343,.404-.516,.02-.026,.041-.037,.074-.036,.095,.002,.189,0,.284,0,.015,0,.03,.002,.048,.004,.002,.016,.004,.029,.004,.043,0,.163,0,.327,.002,.49,0,.031-.008,.055-.03,.078-.047,.05-.092,.102-.138,.154,.034,.013,.713,.018,.807,.006-.008-.011-.013-.02-.021-.028-.043-.045-.085-.09-.13-.133-.022-.021-.03-.043-.029-.073,.001-.141,0-.282,0-.423,0-.409,0-.818-.002-1.228,0-.037,.01-.064,.037-.09,.048-.046,.092-.097,.14-.149Zm-.639,.964c-.017,.001-.027,.003-.037,.003-.205,0-.409,0-.614,0-.032,0-.065-.005-.097-.013-.155-.039-.233-.183-.179-.325,.039-.101,.136-.168,.255-.168,.213-.002,.427,0,.64,0,.01,0,.02,.003,.032,.005v.5Z" fill="#9d3438"/><path d="M138.837,18.512v.573c.039,.013,1.708,.019,1.856,.007-.008-.011-.013-.021-.02-.028-.042-.045-.084-.091-.127-.135-.019-.02-.028-.04-.028-.068,0-.552,0-1.103,0-1.655,0-.028,.008-.049,.028-.068,.043-.042,.083-.087,.125-.131,.009-.009,.016-.021,.028-.036h-1.856c-.01,.04-.014,.499-.005,.587,.013-.007,.025-.012,.035-.02,.042-.03,.082-.063,.125-.091,.016-.011,.037-.019,.056-.019,.325-.001,.65,0,.976,0,.007,0,.014,.001,.02,.002,.013,.037,.017,.296,.004,.363-.015,0-.032,.002-.049,.002-.263,0-.527,0-.79,0-.033,0-.059-.007-.083-.031-.03-.029-.063-.056-.102-.089v.706c.046-.035,.086-.063,.124-.095,.029-.025,.06-.034,.099-.034,.248,.003,.496,.003,.743,.004,.019,0,.037,0,.054,0,.014,.045,.015,.318,.002,.373h-.054c-.308,0-.616,0-.924,0-.036,0-.067-.008-.096-.028-.044-.03-.089-.057-.14-.089Z" fill="#9d3438"/><path d="M148.328,19.083v-.718c-.024,.016-.039,.026-.054,.037-.135,.098-.275,.189-.428,.256-.165,.072-.337,.095-.514,.081-.15-.012-.254-.096-.292-.229-.008-.027-.006-.05,.006-.074,.04-.086,.107-.142,.195-.174,.105-.038,.214-.048,.324-.052,.103-.004,.206-.012,.306-.041,.143-.042,.266-.122,.356-.236,.134-.17,.17-.379,.049-.577-.118-.193-.291-.312-.508-.37-.102-.027-.206-.04-.311-.042-.197-.003-.392,.012-.585,.051-.032,.006-.065,.012-.095,.023-.033,.012-.059,.007-.086-.013-.025-.018-.052-.032-.079-.048-.013,.037-.017,.484-.005,.584,.011-.004,.023-.007,.033-.012,.223-.104,.457-.17,.702-.194,.112-.011,.22,0,.317,.064,.023,.015,.046,.031,.065,.051,.066,.066,.067,.146,.005,.216-.038,.044-.086,.076-.141,.092-.071,.02-.143,.038-.215,.051-.115,.02-.231,.034-.346,.052-.077,.012-.149,.038-.22,.071-.056,.027-.1,.066-.137,.114-.153,.2-.168,.48-.036,.709,.062,.108,.147,.193,.261,.249,.223,.111,.459,.154,.706,.131,.127-.011,.249-.052,.367-.1,.053-.021,.105-.044,.156-.068,.024-.011,.041-.009,.061,.006,.046,.036,.094,.069,.146,.107Z" fill="#9d3438"/><path d="M141.177,17.105c-.036-.038-.073-.078-.109-.116-.007,.003-.008,.003-.01,.004-.001,0-.003,.002-.003,.004-.001,.186-.002,.371-.003,.557,0,.017,0,.034,0,.063,.022-.014,.035-.022,.049-.031,.121-.083,.249-.154,.395-.183,.101-.02,.203-.038,.306-.044,.101-.006,.198,.024,.286,.075,.221,.128,.351,.32,.37,.574,.019,.268-.157,.625-.499,.705-.198,.047-.378,0-.542-.116-.075-.053-.075-.054-.075-.147,0-.065,.001-.131,0-.196,0-.03,.008-.052,.03-.073,.048-.046,.095-.095,.143-.143-.041-.013-.639-.018-.809-.007,.008,.011,.014,.02,.022,.028,.036,.037,.071,.076,.11,.109,.033,.029,.043,.062,.043,.104,0,.144,.003,.289,.001,.433,0,.037,.011,.065,.035,.093,.135,.157,.306,.253,.505,.302,.273,.067,.546,.07,.811-.034,.346-.136,.581-.378,.666-.745,.132-.572-.207-1.218-.872-1.353-.222-.045-.442-.027-.656,.049-.063,.022-.122,.055-.192,.088Z" fill="#9d3438"/><path d="M145.543,19.092h.822c-.009-.012-.014-.021-.022-.029-.043-.045-.085-.09-.129-.133-.021-.021-.029-.043-.029-.073,.001-.141,0-.282,0-.423,0-.404,0-.808,0-1.212,0-.039,.008-.068,.038-.095,.049-.046,.094-.095,.139-.142-.001-.005-.001-.007-.002-.009,0-.001-.002-.003-.004-.003-.256,0-.512,0-.769,0-.01,0-.02,.002-.036,.003,.012,.015,.019,.026,.028,.035,.038,.042,.076,.084,.116,.124,.021,.021,.03,.043,.029,.073-.002,.069,0,.137,0,.206,0,.476,.001,.952,.004,1.428,0,.039-.01,.068-.038,.096-.048,.047-.093,.096-.148,.154Z" fill="#9d3438"/></g></g><g><path d="M44.869,108.931l19.346,4.013c.294-.026,.585-.052,.871-.081,19.275-1.839,20.998-6.734,20.998-6.734l-1.527-3.375c-1.01-2.232-2.725-4.072-4.883-5.236l-3.591-1.938c-.197-2.986-.223-5.495-.152-7.586,.139-4.01,.396-6.051,.784-7.395,.008-.029,.016-.058,.024-.084,14.393,5.417,10.934-17.055,9.345-27.137-1.589-10.085-7.942-15.033-17.196-15.499-9.253-.466-18.038,7.656-17.757,16.245,.281,8.589,6.167,17.552,6.167,17.552,.561,18.485-3.645,21.66-8.131,26.982-.194,.231-.378,.458-.553,.686-.003,0-.003,.003-.003,.003-3.915,5.053-3.742,9.582-3.742,9.582Z" fill="#d9d9db"/><path d="M67.485,113.879s-.417-.047-1.143-.131c.666,.257,1.143,.131,1.143,.131Z" fill="#b9b9b9"/><path d="M44.869,108.931l19.346,4.013c.294-.026,.585-.052,.871-.081-.291-.309-.587-.71-.871-1.226-1.497-2.706-2.806-7.842-5.889-7.842-3.013,0-4.332-7.761-9.712-4.448-.003,0-.003,.003-.003,.003-3.915,5.053-3.742,9.582-3.742,9.582Z" fill="#b9b9b9"/><path d="M62.812,74.043s5.312,9.93,13.118,13.951c.139-4.01,.396-6.051,.784-7.395-3.128-1.014-7.84-2.936-13.902-6.556Z" fill="#b9b9b9"/><path d="M59.687,41.525c-3.251,1.836-5.788,5.05-5.562,8.621,.119,1.879,1.553,3.375,3.425,3.588,11.366,1.293,20.999-21.043,2.421-12.354-.096,.045-.192,.094-.285,.146Z" fill="#e6e5ea"/></g><g><path d="M41.021,43.267c.908,3.505,3.742,6.631,3.264,10.22-.018,.13-.038,.258-.064,.385-.342,1.726-1.374,3.265-1.857,4.969-.673,2.373-.268,5.008-1.276,7.26,5.601-2.147,11.219-4.293,17.025-5.806,2.837-.739,5.732-1.332,8.422-2.5,1.553-.673,3.018-1.531,4.479-2.386,5.605-3.282,11.211-6.562,16.816-9.844,1.112-.651,2.226-1.303,3.369-1.899,.496-.259,1.022-.478,1.499-.77,.341-.21,.757-.503,.869-.911,.129-.467-.28-.773-.595-1.038-.391-.329-.794-.643-1.209-.942-1.674-1.207-3.53-2.164-5.488-2.821-.74-.248-1.523-.471-2.086-1.01-.027-.026-.053-.052-.079-.079-.46-.482-.708-1.131-.958-1.753-1.561-3.875-3.748-7.499-6.453-10.685-.555-.654-1.156-1.308-1.937-1.664-.754-.344-1.607-.38-2.436-.377-8.222,.026-16.106,3.294-23.26,7.344-1.252,.709-2.495,1.447-3.612,2.355-3.486,2.834-5.562,7.607-4.434,11.952Z" fill="#c3bbab"/><path d="M41.021,43.267c.908,3.505,3.742,6.631,3.264,10.22-.018,.13-.038,.258-.064,.385,.951-.134,1.904-.395,2.824-.656,2.647-.752,5.294-1.504,7.942-2.255,2.487-.706,4.977-1.414,7.4-2.314,.276-.103,.552-.208,.827-.316,1.137-.446,2.258-.932,3.363-1.453,1.095-.515,2.174-1.064,3.238-1.639,1.072-.578,2.129-1.183,3.174-1.807,1.047-.626,2.083-1.272,3.109-1.932,1.028-.661,2.047-1.336,3.061-2.019,1.013-.683,2.02-1.374,3.026-2.066,.637-.439,1.293-.864,1.925-1.318-.46-.482-.708-1.131-.958-1.753-1.561-3.875-3.748-7.499-6.453-10.685-.555-.654-1.156-1.308-1.937-1.664-.754-.344-1.607-.38-2.436-.377-8.222,.026-16.106,3.294-23.26,7.344-1.252,.709-2.495,1.447-3.612,2.355-3.486,2.834-5.562,7.607-4.434,11.952Z" fill="#d1c8b8"/><path d="M58.109,28.025c1.091-.092,2.255-.083,3.195,.479s1.519,1.851,.967,2.796c-.2,.341-.515,.597-.826,.842-4.487,3.556-9.231,6.789-14.183,9.666-1.339,.778-2.802,1.555-4.344,1.416-.153-.014-.316-.042-.424-.151-.169-.172-.124-.453-.066-.687,.242-.976,.508-1.946,.773-2.916,.314-1.147,.627-2.293,.941-3.44,.161-.589,.33-1.183,.665-1.701,.259-.401,.586-.781,.914-1.128,.557-.588,1.287-1.022,1.955-1.468,.993-.662,2.037-1.248,3.12-1.749s2.204-.916,3.352-1.239,2.332-.553,3.522-.679c.146-.015,.292-.029,.437-.042Z" fill="#dbd2c6"/><path d="M84.363,38.301c-1.488,.011-2.816,.88-4.046,1.718-.768,.523-1.537,1.046-2.305,1.569-.968,.659-1.984,1.374-2.453,2.447,.116,.306,.516,.37,.843,.364,2.377-.045,4.565-1.255,6.891-1.748,2.134-.453,4.342-.295,6.522-.246,.897,.02,1.959-.065,2.424-.831-.256-.14-.469-.274-.76-.303-.276-.027-.547-.11-.809-.2-.538-.186-1.046-.447-1.538-.729-.988-.567-1.924-1.245-2.986-1.671-.567-.227-1.169-.373-1.783-.368Z" fill="#ada699"/></g></g></g></svg>