<?xml version="1.0" encoding="UTF-8"?><svg id="Layer_2" xmlns="http://www.w3.org/2000/svg" viewBox="0 0 431.506 167.494"><g id="Machnes_and_dividers"><g><g><polygon points="4.525 19.785 4.525 167.493 65.048 127.689 65.048 0 4.525 19.785" fill="#aa7552"/><rect x="0" y="19.785" width="4.5" height="147.708" fill="#e8b185"/><polygon points="60.222 0 64.722 0 4.5 19.785 0 19.785 60.222 0" fill="#e8b185"/><g><g><g><path d="M59.718,19.831h0c.418-.153,.753-.541,.749-.866l-.159-12.051c-.004-.323-.345-.47-.763-.328h0c-.418,.142-.754,.521-.749,.845l.156,12.088c.004,.326,.348,.466,.766,.312Z" fill="#7f5640"/><path d="M61.788,13.599l-.031-2.312c-.009-.643-.686-.931-1.514-.642l-1.284,.448c-.835,.292-1.508,1.055-1.5,1.704l.029,2.332c.008,.65,.695,.933,1.531,.634l1.285-.46c.829-.297,1.493-1.06,1.484-1.704Z" fill="#7f5640"/></g><g><path d="M53.21,22.217h0c.429-.157,.773-.551,.769-.881l-.144-12.208c-.004-.328-.353-.475-.781-.329h0c-.428,.146-.773,.531-.769,.859l.141,12.245c.004,.33,.355,.47,.785,.313Z" fill="#7f5640"/><path d="M55.341,15.894l-.028-2.342c-.008-.652-.701-.94-1.55-.643l-1.316,.46c-.857,.299-1.547,1.075-1.54,1.733l.026,2.363c.007,.658,.71,.942,1.568,.635l1.317-.472c.85-.305,1.531-1.08,1.523-1.733Z" fill="#7f5640"/></g><g><path d="M46.537,24.664h0c.44-.161,.793-.562,.789-.896l-.129-12.368c-.003-.332-.361-.48-.8-.33h0c-.439,.15-.793,.541-.79,.874l.125,12.407c.003,.335,.364,.475,.804,.313Z" fill="#7f5640"/><path d="M48.731,18.247l-.025-2.373c-.007-.66-.717-.95-1.588-.645l-1.35,.471c-.878,.307-1.587,1.096-1.581,1.762l.023,2.394c.006,.667,.727,.952,1.606,.637l1.351-.484c.872-.312,1.571-1.101,1.564-1.762Z" fill="#7f5640"/></g><g><path d="M39.693,27.173h0c.451-.165,.814-.573,.811-.911l-.112-12.533c-.003-.336-.369-.485-.819-.331h0c-.451,.154-.814,.552-.811,.889l.108,12.572c.003,.339,.372,.48,.824,.314Z" fill="#7f5640"/><path d="M41.952,20.661l-.022-2.404c-.006-.669-.733-.959-1.627-.647l-1.384,.484c-.901,.315-1.629,1.118-1.624,1.793l.02,2.426c.006,.676,.743,.961,1.645,.638l1.386-.496c.894-.32,1.612-1.123,1.606-1.793Z" fill="#7f5640"/></g><g><path d="M32.671,29.747h0c.463-.17,.835-.585,.833-.927l-.094-12.702c-.003-.341-.378-.49-.84-.332h0c-.462,.158-.836,.563-.833,.905l.09,12.743c.002,.344,.381,.484,.844,.315Z" fill="#7f5640"/><path d="M34.998,23.137l-.019-2.437c-.005-.678-.75-.969-1.667-.649l-1.421,.496c-.925,.323-1.673,1.14-1.668,1.824l.017,2.459c.005,.685,.761,.971,1.687,.639l1.422-.509c.918-.329,1.655-1.145,1.65-1.824Z" fill="#7f5640"/></g><g><path d="M25.463,32.39h0c.475-.174,.858-.597,.856-.944l-.076-12.876c-.002-.345-.387-.495-.861-.333h0c-.475,.162-.858,.574-.856,.921l.071,12.918c.002,.348,.39,.489,.866,.315Z" fill="#7f5640"/><path d="M27.861,25.678l-.015-2.47c-.004-.687-.768-.979-1.709-.65l-1.458,.509c-.949,.332-1.718,1.163-1.715,1.857l.013,2.493c.004,.695,.779,.981,1.729,.641l1.46-.523c.942-.337,1.7-1.168,1.696-1.857Z" fill="#7f5640"/></g><g><path d="M18.063,35.103h0c.488-.179,.881-.609,.88-.961l-.057-13.055c-.002-.35-.396-.5-.883-.334h0c-.487,.166-.882,.586-.88,.937l.052,13.097c.001,.353,.399,.494,.888,.315Z" fill="#7f5640"/><path d="M20.535,28.286l-.012-2.504c-.003-.697-.787-.989-1.753-.651l-1.497,.523c-.975,.34-1.765,1.187-1.763,1.891l.009,2.528c.003,.704,.798,.991,1.774,.642l1.499-.537c.967-.347,1.746-1.192,1.743-1.89Z" fill="#7f5640"/></g><g><path d="M10.463,37.889h0c.501-.184,.906-.622,.905-.979l-.036-13.238c0-.355-.406-.505-.906-.335h0c-.5,.171-.906,.598-.905,.954l.031,13.282c0,.358,.409,.499,.911,.315Z" fill="#7f5640"/><path d="M13.013,30.964l-.008-2.539c-.002-.707-.806-.999-1.798-.653l-1.538,.537c-1.001,.35-1.815,1.212-1.813,1.926l.005,2.563c.001,.714,.818,1.001,1.82,.642l1.54-.552c.993-.356,1.795-1.217,1.792-1.925Z" fill="#7f5640"/></g></g><g><g><path d="M59.98,39.941h0c.42-.17,.756-.574,.752-.902l-.161-12.155c-.004-.326-.347-.462-.765-.303h0c-.419,.159-.756,.554-.752,.881l.157,12.192c.004,.329,.349,.457,.769,.287Z" fill="#7f5640"/><path d="M62.058,33.574l-.031-2.332c-.009-.649-.688-.914-1.52-.591l-1.289,.5c-.839,.325-1.514,1.12-1.506,1.775l.03,2.352c.008,.655,.697,.916,1.537,.583l1.29-.512c.833-.331,1.498-1.125,1.49-1.775Z" fill="#7f5640"/></g><g><path d="M53.447,42.59h0c.43-.175,.776-.585,.772-.917l-.145-12.314c-.004-.33-.355-.466-.784-.303h0c-.43,.163-.776,.564-.772,.896l.142,12.352c.004,.333,.357,.461,.788,.287Z" fill="#7f5640"/><path d="M55.586,36.13l-.029-2.362c-.008-.657-.704-.923-1.556-.592l-1.321,.513c-.86,.334-1.553,1.142-1.546,1.806l.027,2.383c.007,.664,.713,.925,1.574,.583l1.322-.525c.854-.339,1.537-1.147,1.529-1.805Z" fill="#7f5640"/></g><g><path d="M46.748,45.306h0c.441-.179,.796-.597,.792-.933l-.13-12.477c-.003-.335-.363-.471-.803-.304h0c-.441,.167-.796,.575-.793,.911l.126,12.516c.003,.338,.365,.466,.807,.287Z" fill="#7f5640"/><path d="M48.95,38.749l-.026-2.394c-.007-.666-.72-.932-1.594-.592l-1.355,.526c-.882,.342-1.594,1.165-1.587,1.837l.023,2.415c.007,.673,.73,.934,1.612,.583l1.356-.539c.875-.348,1.577-1.169,1.57-1.836Z" fill="#7f5640"/></g><g><path d="M39.876,48.093h0c.453-.184,.817-.609,.814-.95l-.113-12.645c-.003-.339-.371-.475-.823-.304h0c-.452,.172-.817,.587-.814,.927l.109,12.685c.003,.342,.374,.47,.827,.286Z" fill="#7f5640"/><path d="M42.144,41.437l-.022-2.426c-.006-.675-.736-.941-1.634-.593l-1.39,.539c-.905,.351-1.636,1.189-1.63,1.87l.02,2.448c.006,.682,.747,.943,1.652,.583l1.391-.553c.898-.357,1.619-1.193,1.613-1.869Z" fill="#7f5640"/></g><g><path d="M32.824,50.952h0c.465-.188,.839-.621,.836-.967l-.095-12.817c-.003-.344-.38-.48-.843-.304h0c-.464,.176-.839,.599-.837,.944l.091,12.858c.002,.347,.382,.475,.848,.286Z" fill="#7f5640"/><path d="M35.161,44.194l-.019-2.459c-.005-.684-.754-.95-1.674-.593l-1.427,.553c-.929,.36-1.68,1.213-1.675,1.903l.017,2.481c.005,.691,.764,.952,1.694,.583l1.428-.567c.922-.366,1.662-1.217,1.657-1.902Z" fill="#7f5640"/></g><g><path d="M25.586,53.887h0c.477-.193,.862-.634,.86-.985l-.077-12.994c-.002-.349-.389-.485-.865-.304h0c-.477,.181-.862,.611-.86,.961l.072,13.036c.002,.352,.392,.479,.87,.286Z" fill="#7f5640"/><path d="M27.994,47.023l-.016-2.492c-.004-.694-.772-.959-1.717-.593l-1.464,.568c-.953,.37-1.726,1.238-1.722,1.938l.013,2.516c.004,.701,.783,.961,1.737,.582l1.466-.582c.946-.376,1.707-1.242,1.703-1.937Z" fill="#7f5640"/></g><g><path d="M18.154,56.901h0c.49-.199,.885-.648,.884-1.003l-.057-13.176c-.002-.353-.398-.49-.887-.304h0c-.489,.186-.886,.624-.884,.979l.052,13.219c.001,.357,.401,.484,.892,.285Z" fill="#7f5640"/><path d="M20.637,49.928l-.012-2.527c-.003-.703-.79-.969-1.761-.592l-1.504,.584c-.979,.38-1.773,1.264-1.771,1.974l.009,2.551c.003,.711,.802,.971,1.782,.582l1.506-.598c.972-.386,1.754-1.269,1.751-1.973Z" fill="#7f5640"/></g><g><path d="M10.519,59.997h0c.503-.204,.91-.662,.909-1.022l-.036-13.363c0-.358-.408-.495-.91-.304h0c-.503,.191-.91,.637-.909,.997l.031,13.408c0,.362,.411,.489,.915,.284Z" fill="#7f5640"/><path d="M13.08,52.912l-.008-2.563c-.002-.713-.81-.979-1.806-.592l-1.545,.599c-1.006,.39-1.823,1.291-1.821,2.011l.005,2.588c.001,.721,.821,.981,1.828,.581l1.547-.614c.998-.396,1.803-1.296,1.801-2.01Z" fill="#7f5640"/></g></g><g><g><path d="M60.245,60.223h0c.421-.187,.759-.607,.754-.938l-.162-12.259c-.004-.329-.348-.453-.768-.277h0c-.421,.176-.759,.587-.755,.917l.158,12.297c.004,.332,.35,.448,.772,.261Z" fill="#7f5640"/><path d="M62.33,53.721l-.032-2.352c-.009-.655-.691-.897-1.526-.54l-1.294,.552c-.842,.36-1.52,1.187-1.511,1.847l.03,2.373c.008,.661,.7,.898,1.543,.531l1.295-.565c.836-.365,1.504-1.191,1.495-1.846Z" fill="#7f5640"/></g><g><path d="M53.687,63.14h0c.432-.192,.779-.619,.775-.954l-.147-12.421c-.004-.333-.356-.457-.787-.277h0c-.432,.181-.779,.598-.775,.933l.143,12.46c.004,.336,.358,.452,.791,.26Z" fill="#7f5640"/><path d="M55.833,56.541l-.029-2.383c-.008-.663-.706-.905-1.563-.539l-1.326,.566c-.863,.369-1.559,1.211-1.552,1.88l.027,2.404c.007,.67,.716,.907,1.58,.53l1.328-.579c.857-.374,1.543-1.214,1.535-1.878Z" fill="#7f5640"/></g><g><path d="M46.961,66.131h0c.443-.197,.799-.632,.795-.971l-.131-12.587c-.004-.338-.364-.462-.806-.277h0c-.443,.185-.799,.61-.796,.949l.127,12.627c.003,.341,.367,.456,.81,.259Z" fill="#7f5640"/><path d="M49.171,59.432l-.026-2.415c-.007-.672-.723-.914-1.601-.539l-1.36,.581c-.885,.378-1.6,1.235-1.594,1.913l.024,2.436c.007,.679,.733,.915,1.619,.528l1.362-.594c.879-.383,1.583-1.239,1.576-1.912Z" fill="#7f5640"/></g><g><path d="M40.061,69.2h0c.455-.202,.82-.645,.817-.989l-.114-12.758c-.003-.342-.373-.466-.826-.276h0c-.454,.19-.821,.623-.818,.966l.11,12.799c.003,.345,.375,.461,.831,.258Z" fill="#7f5640"/><path d="M42.338,62.397l-.023-2.447c-.006-.681-.739-.922-1.64-.537l-1.396,.596c-.909,.388-1.643,1.261-1.637,1.948l.02,2.47c.006,.688,.75,.924,1.659,.527l1.397-.61c.902-.393,1.625-1.264,1.619-1.946Z" fill="#7f5640"/></g><g><path d="M32.98,72.349h0c.467-.208,.842-.658,.84-1.007l-.096-12.933c-.003-.347-.381-.47-.847-.276h0c-.466,.195-.843,.636-.84,.984l.092,12.975c.002,.35,.384,.465,.852,.257Z" fill="#7f5640"/><path d="M35.326,65.44l-.019-2.481c-.005-.69-.757-.931-1.681-.536l-1.433,.612c-.933,.398-1.687,1.287-1.682,1.984l.017,2.504c.005,.698,.768,.932,1.701,.525l1.434-.626c.925-.404,1.669-1.291,1.664-1.982Z" fill="#7f5640"/></g><g><path d="M25.71,75.582h0c.479-.213,.865-.672,.863-1.026l-.077-13.113c-.002-.352-.391-.475-.868-.275h0c-.479,.2-.866,.649-.864,1.002l.073,13.156c.002,.355,.393,.469,.873,.256Z" fill="#7f5640"/><path d="M28.129,68.564l-.016-2.515c-.004-.7-.775-.94-1.724-.534l-1.471,.628c-.958,.409-1.733,1.314-1.73,2.021l.013,2.539c.004,.707,.786,.941,1.745,.523l1.472-.642c.95-.415,1.715-1.318,1.71-2.019Z" fill="#7f5640"/></g><g><path d="M18.245,78.902h0c.492-.219,.889-.687,.888-1.046l-.058-13.298c-.002-.357-.4-.48-.891-.274h0c-.492,.206-.89,.663-.888,1.021l.053,13.343c.001,.36,.403,.474,.896,.254Z" fill="#7f5640"/><path d="M20.739,71.771l-.012-2.551c-.003-.71-.794-.949-1.769-.532l-1.511,.645c-.984,.42-1.781,1.342-1.779,2.059l.009,2.575c.003,.718,.805,.95,1.79,.521l1.512-.66c.976-.426,1.762-1.346,1.758-2.057Z" fill="#7f5640"/></g><g><path d="M10.575,82.313h0c.506-.225,.914-.702,.913-1.066l-.037-13.489c0-.362-.41-.484-.914-.273h0c-.505,.211-.915,.677-.914,1.04l.032,13.534c0,.365,.413,.478,.92,.253Z" fill="#7f5640"/><path d="M13.148,75.065l-.008-2.587c-.002-.72-.813-.958-1.815-.53l-1.552,.663c-1.011,.432-1.831,1.372-1.83,2.099l.005,2.612c.001,.728,.825,.959,1.837,.518l1.554-.678c1.003-.437,1.811-1.375,1.809-2.096Z" fill="#7f5640"/></g></g><g><g><path d="M60.512,80.681h0c.423-.205,.762-.641,.757-.975l-.163-12.365c-.004-.332-.349-.444-.771-.251h0c-.423,.194-.762,.62-.758,.953l.16,12.404c.004,.335,.352,.439,.775,.234Z" fill="#7f5640"/><path d="M62.604,74.042l-.032-2.372c-.009-.66-.694-.879-1.532-.488l-1.298,.606c-.845,.394-1.525,1.255-1.517,1.921l.03,2.393c.008,.667,.703,.88,1.549,.478l1.3-.618c.839-.399,1.51-1.258,1.501-1.919Z" fill="#7f5640"/></g><g><path d="M53.928,83.87h0c.434-.21,.782-.654,.778-.992l-.148-12.53c-.004-.336-.357-.448-.79-.25h0c-.433,.198-.782,.633-.778,.97l.144,12.569c.004,.339,.36,.443,.794,.233Z" fill="#7f5640"/><path d="M56.083,77.13l-.029-2.404c-.008-.669-.709-.887-1.569-.486l-1.332,.621c-.867,.404-1.565,1.28-1.558,1.955l.027,2.425c.008,.676,.719,.888,1.586,.475l1.333-.634c.86-.409,1.549-1.283,1.541-1.953Z" fill="#7f5640"/></g><g><path d="M47.176,87.141h0c.445-.216,.802-.668,.799-1.01l-.132-12.699c-.004-.341-.366-.452-.809-.249h0c-.444,.204-.803,.646-.799,.988l.128,12.739c.003,.344,.368,.447,.814,.231Z" fill="#7f5640"/><path d="M49.395,80.297l-.026-2.436c-.007-.678-.726-.895-1.607-.484l-1.366,.637c-.889,.415-1.607,1.306-1.6,1.991l.024,2.458c.007,.685,.736,.896,1.625,.473l1.367-.651c.882-.42,1.59-1.31,1.582-1.988Z" fill="#7f5640"/></g><g><path d="M40.247,90.497h0c.457-.221,.824-.682,.821-1.029l-.115-12.872c-.003-.345-.374-.456-.829-.248h0c-.456,.209-.824,.659-.821,1.006l.111,12.914c.003,.348,.377,.451,.834,.229Z" fill="#7f5640"/><path d="M42.533,83.545l-.023-2.469c-.006-.687-.743-.903-1.647-.481l-1.402,.654c-.912,.426-1.65,1.334-1.644,2.027l.021,2.492c.006,.694,.753,.904,1.666,.47l1.403-.668c.905-.431,1.632-1.337,1.626-2.025Z" fill="#7f5640"/></g><g><path d="M33.136,93.941h0c.469-.227,.846-.696,.843-1.048l-.097-13.051c-.003-.35-.383-.461-.85-.246h0c-.468,.214-.846,.673-.844,1.024l.093,13.094c.002,.353,.386,.455,.855,.228Z" fill="#7f5640"/><path d="M35.492,86.879l-.019-2.503c-.005-.697-.76-.911-1.689-.478l-1.439,.671c-.937,.437-1.694,1.362-1.69,2.065l.017,2.527c.005,.704,.771,.912,1.708,.466l1.44-.685c.929-.442,1.676-1.365,1.671-2.063Z" fill="#7f5640"/></g><g><path d="M25.835,97.477h0c.481-.233,.869-.711,.867-1.068l-.078-13.234c-.002-.355-.392-.465-.872-.245h0c-.481,.22-.869,.688-.868,1.044l.073,13.278c.002,.358,.395,.459,.877,.225Z" fill="#7f5640"/><path d="M28.264,90.302l-.016-2.538c-.004-.706-.778-.919-1.732-.475l-1.477,.689c-.962,.449-1.741,1.392-1.737,2.105l.013,2.562c.004,.714,.79,.921,1.752,.462l1.479-.704c.954-.454,1.722-1.395,1.718-2.102Z" fill="#7f5640"/></g><g><path d="M18.337,101.11h0c.494-.239,.893-.727,.892-1.089l-.058-13.423c-.002-.36-.402-.469-.895-.243h0c-.494,.226-.894,.703-.892,1.064l.053,13.468c.001,.363,.405,.463,.9,.223Z" fill="#7f5640"/><path d="M20.842,93.816l-.012-2.575c-.003-.716-.797-.928-1.777-.471l-1.518,.708c-.988,.461-1.789,1.422-1.787,2.145l.009,2.599c.003,.724,.809,.929,1.798,.458l1.519-.723c.98-.466,1.77-1.425,1.766-2.143Z" fill="#7f5640"/></g><g><path d="M10.632,104.842h0c.508-.246,.918-.743,.917-1.111l-.037-13.617c0-.365-.412-.473-.918-.241h0c-.507,.232-.919,.718-.918,1.085l.032,13.663c0,.369,.415,.467,.924,.221Z" fill="#7f5640"/><path d="M13.216,97.427l-.008-2.612c-.002-.727-.817-.936-1.823-.467l-1.559,.728c-1.015,.474-1.84,1.454-1.838,2.187l.005,2.637c.001,.735,.829,.937,1.846,.454l1.561-.743c1.007-.479,1.819-1.457,1.817-2.184Z" fill="#7f5640"/></g></g><g><g><path d="M60.781,101.317h0c.425-.223,.765-.676,.76-1.012l-.165-12.473c-.004-.335-.351-.435-.774-.224h0c-.424,.211-.765,.655-.761,.99l.161,12.512c.004,.337,.353,.43,.778,.207Z" fill="#7f5640"/><path d="M62.881,94.538l-.032-2.393c-.009-.666-.696-.861-1.538-.435l-1.303,.66c-.848,.43-1.531,1.323-1.523,1.995l.03,2.414c.008,.673,.706,.862,1.555,.424l1.305-.673c.842-.434,1.515-1.326,1.506-1.993Z" fill="#7f5640"/></g><g><path d="M54.172,104.782h0c.435-.228,.785-.69,.781-1.031l-.149-12.64c-.004-.339-.359-.439-.793-.223h0c-.435,.217-.785,.668-.781,1.008l.146,12.68c.004,.342,.361,.434,.797,.205Z" fill="#7f5640"/><path d="M56.334,97.899l-.029-2.425c-.008-.675-.712-.869-1.575-.432l-1.337,.677c-.87,.441-1.571,1.351-1.564,2.032l.027,2.447c.008,.682,.722,.869,1.593,.42l1.338-.69c.864-.445,1.555-1.353,1.547-2.029Z" fill="#7f5640"/></g><g><path d="M47.392,108.338h0c.447-.234,.805-.704,.802-1.05l-.133-12.812c-.004-.344-.367-.443-.813-.221h0c-.446,.222-.806,.682-.802,1.027l.129,12.853c.003,.347,.37,.437,.817,.203Z" fill="#7f5640"/><path d="M49.62,101.347l-.026-2.458c-.007-.684-.729-.876-1.614-.428l-1.371,.694c-.893,.452-1.613,1.379-1.606,2.069l.024,2.48c.007,.691,.739,.877,1.632,.416l1.373-.708c.886-.457,1.596-1.382,1.589-2.066Z" fill="#7f5640"/></g><g><path d="M40.436,111.986h0c.458-.24,.827-.719,.824-1.07l-.116-12.989c-.003-.348-.376-.447-.833-.219h0c-.458,.228-.827,.696-.824,1.046l.112,13.031c.003,.352,.378,.441,.838,.2Z" fill="#7f5640"/><path d="M42.731,104.884l-.023-2.492c-.006-.693-.746-.884-1.654-.424l-1.407,.713c-.916,.464-1.656,1.408-1.651,2.108l.021,2.515c.006,.701,.756,.884,1.673,.411l1.409-.727c.909-.469,1.639-1.411,1.632-2.105Z" fill="#7f5640"/></g><g><path d="M33.294,115.731h0c.471-.247,.85-.735,.847-1.09l-.098-13.17c-.003-.353-.385-.451-.854-.217h0c-.47,.234-.85,.711-.847,1.066l.094,13.214c.003,.356,.387,.445,.859,.197Z" fill="#7f5640"/><path d="M35.66,108.514l-.02-2.526c-.005-.703-.763-.891-1.696-.419l-1.445,.732c-.941,.476-1.702,1.439-1.697,2.148l.017,2.55c.005,.711,.774,.892,1.716,.406l1.446-.746c.933-.481,1.683-1.441,1.678-2.145Z" fill="#7f5640"/></g><g><path d="M25.962,119.576h0c.483-.254,.873-.751,.871-1.111l-.079-13.357c-.002-.358-.394-.454-.876-.215h0c-.483,.24-.873,.727-.871,1.086l.074,13.402c.002,.362,.397,.448,.881,.195Z" fill="#7f5640"/><path d="M28.401,112.241l-.016-2.562c-.004-.713-.782-.899-1.739-.414l-1.484,.751c-.966,.489-1.749,1.47-1.745,2.19l.013,2.586c.004,.721,.793,.9,1.76,.401l1.485-.766c.959-.494,1.729-1.473,1.725-2.187Z" fill="#7f5640"/></g><g><path d="M18.429,123.526h0c.497-.26,.897-.768,.896-1.133l-.059-13.549c-.002-.363-.404-.458-.899-.212h0c-.496,.247-.898,.743-.896,1.108l.054,13.595c.001,.367,.407,.452,.904,.191Z" fill="#7f5640"/><path d="M20.946,116.068l-.012-2.599c-.003-.723-.801-.907-1.785-.409l-1.524,.772c-.992,.503-1.798,1.503-1.795,2.233l.009,2.624c.003,.731,.813,.907,1.806,.395l1.526-.787c.985-.508,1.778-1.505,1.774-2.23Z" fill="#7f5640"/></g><g><path d="M10.689,127.585h0c.51-.268,.923-.785,.922-1.156l-.037-13.746c-.001-.369-.414-.463-.923-.209h0c-.51,.254-.923,.76-.922,1.13l.032,13.794c0,.372,.417,.456,.928,.188Z" fill="#7f5640"/><path d="M13.286,120.001l-.008-2.636c-.002-.734-.821-.915-1.832-.403l-1.567,.793c-1.02,.517-1.848,1.537-1.847,2.278l.005,2.662c.001,.742,.833,.915,1.854,.389l1.568-.809c1.012-.522,1.828-1.539,1.826-2.274Z" fill="#7f5640"/></g></g><g><g><path d="M61.052,122.133h0c.426-.241,.768-.711,.763-1.05l-.166-12.582c-.004-.338-.352-.426-.777-.197h0c-.426,.229-.768,.69-.764,1.028l.163,12.621c.004,.34,.355,.421,.781,.18Z" fill="#7f5640"/><path d="M63.16,115.212l-.033-2.414c-.009-.672-.699-.843-1.544-.381l-1.308,.715c-.852,.465-1.537,1.393-1.529,2.071l.031,2.435c.009,.679,.708,.844,1.561,.37l1.31-.728c.845-.47,1.521-1.395,1.512-2.068Z" fill="#7f5640"/></g><g><path d="M54.418,125.88h0c.437-.247,.788-.726,.784-1.07l-.151-12.752c-.004-.342-.36-.43-.796-.195h0c-.437,.235-.788,.704-.784,1.047l.147,12.793c.004,.345,.363,.424,.801,.177Z" fill="#7f5640"/><path d="M56.588,118.851l-.03-2.446c-.008-.681-.715-.85-1.581-.376l-1.342,.734c-.874,.477-1.578,1.423-1.57,2.109l.028,2.469c.008,.688,.725,.85,1.599,.364l1.343-.747c.867-.482,1.561-1.425,1.553-2.106Z" fill="#7f5640"/></g><g><path d="M47.611,129.725h0c.449-.253,.809-.741,.805-1.09l-.134-12.927c-.004-.347-.369-.433-.816-.192h0c-.448,.241-.809,.719-.806,1.067l.13,12.969c.004,.35,.371,.427,.82,.174Z" fill="#7f5640"/><path d="M49.847,122.584l-.027-2.48c-.007-.69-.732-.857-1.62-.371l-1.377,.753c-.896,.49-1.62,1.453-1.613,2.149l.024,2.503c.007,.697,.742,.857,1.639,.358l1.378-.766c.89-.495,1.603-1.455,1.595-2.146Z" fill="#7f5640"/></g><g><path d="M40.625,133.67h0c.46-.26,.831-.757,.827-1.111l-.117-13.106c-.003-.352-.377-.437-.836-.19h0c-.46,.247-.831,.734-.828,1.087l.113,13.15c.003,.355,.38,.431,.841,.17Z" fill="#7f5640"/><path d="M42.93,126.414l-.023-2.514c-.006-.7-.749-.864-1.661-.365l-1.413,.773c-.92,.503-1.663,1.484-1.658,2.19l.021,2.538c.006,.707,.759,.864,1.68,.352l1.415-.787c.913-.508,1.646-1.486,1.639-2.187Z" fill="#7f5640"/></g><g><path d="M33.454,137.721h0c.473-.267,.853-.774,.851-1.132l-.099-13.291c-.003-.357-.386-.44-.858-.187h0c-.472,.254-.854,.75-.851,1.108l.094,13.336c.003,.36,.389,.434,.863,.167Z" fill="#7f5640"/><path d="M35.83,130.346l-.02-2.549c-.006-.709-.767-.871-1.703-.359l-1.451,.793c-.945,.516-1.709,1.517-1.704,2.233l.017,2.574c.005,.717,.778,.871,1.723,.345l1.453-.808c.937-.521,1.69-1.519,1.685-2.229Z" fill="#7f5640"/></g><g><path d="M26.089,141.881h0c.486-.274,.877-.791,.875-1.155l-.08-13.481c-.002-.362-.396-.444-.88-.183h0c-.485,.261-.877,.767-.875,1.13l.075,13.527c.002,.365,.399,.438,.885,.163Z" fill="#7f5640"/><path d="M28.539,134.383l-.016-2.586c-.004-.72-.785-.878-1.747-.352l-1.49,.815c-.97,.53-1.756,1.551-1.753,2.277l.014,2.611c.004,.727,.797,.878,1.768,.338l1.492-.83c.963-.535,1.737-1.552,1.733-2.273Z" fill="#7f5640"/></g><g><path d="M18.523,146.154h0c.499-.282,.901-.809,.9-1.178l-.059-13.677c-.002-.367-.405-.448-.903-.18h0c-.498,.268-.902,.784-.9,1.152l.054,13.724c.001,.37,.408,.441,.908,.159Z" fill="#7f5640"/><path d="M21.051,138.529l-.012-2.623c-.003-.73-.805-.885-1.793-.345l-1.531,.837c-.997,.545-1.806,1.586-1.803,2.323l.01,2.649c.003,.738,.816,.885,1.815,.33l1.533-.852c.989-.55,1.786-1.587,1.782-2.318Z" fill="#7f5640"/></g><g><path d="M10.747,150.546h0c.513-.29,.927-.828,.926-1.202l-.038-13.878c-.001-.372-.416-.451-.927-.176h0c-.512,.276-.927,.802-.926,1.176l.032,13.926c0,.376,.419,.445,.933,.155Z" fill="#7f5640"/><path d="M13.356,142.79l-.008-2.662c-.002-.741-.825-.892-1.84-.337l-1.574,.86c-1.025,.56-1.857,1.622-1.856,2.37l.005,2.688c.001,.749,.837,.892,1.863,.322l1.576-.876c1.017-.565,1.836-1.624,1.834-2.365Z" fill="#7f5640"/></g></g></g></g><g><polygon points="240.053 .177 201.936 22.254 3.287 20.587 67.717 .177 240.053 .177" fill="#e8b185"/><polygon points="201.936 22.254 201.936 25.817 3.287 24.151 3.287 20.587 201.936 22.254" fill="#aa7552"/><polygon points="240.053 3.301 201.936 25.817 201.936 22.254 240.053 .177 240.053 3.301" fill="#f2c2a0"/></g><g><g><polygon points="206.507 23.97 206.507 167.159 243.984 126.506 243.984 1.197 206.507 23.97" fill="#aa7552"/><rect x="201.174" y="23.97" width="5.166" height="143.189" fill="#e8b185"/><polygon points="239.278 1.197 244.445 1.197 206.34 23.97 201.174 23.97 239.278 1.197" fill="#e8b185"/></g><g><g><g><path d="M241.874,19.712h0c.261-.188,.471-.591,.471-.9V7.343c0-.308-.21-.418-.47-.245h0c-.261,.173-.473,.565-.473,.875v11.519c-.001,.31,.211,.408,.472,.219Z" fill="#7f5640"/><path d="M243.207,13.578v-2.198c0-.612-.417-.823-.933-.47l-.801,.548c-.523,.357-.948,1.15-.948,1.77v2.225c0,.62,.425,.823,.948,.455l.801-.564c.516-.363,.933-1.153,.933-1.765Z" fill="#7f5640"/></g><g><path d="M237.792,22.663h0c.27-.196,.489-.609,.489-.923l.002-11.686c0-.314-.219-.424-.489-.244h0c-.271,.18-.491,.582-.491,.898l-.003,11.739c0,.316,.22,.413,.491,.217Z" fill="#7f5640"/><path d="M239.177,16.394v-2.239c0-.623-.432-.833-.968-.467l-.832,.569c-.543,.371-.985,1.185-.985,1.816v2.268c0,.632,.441,.833,.984,.451l.832-.586c.536-.377,.969-1.187,.969-1.811Z" fill="#7f5640"/></g><g><path d="M233.552,25.728h0c.281-.203,.508-.627,.509-.948l.004-11.912c0-.32-.227-.429-.508-.242h0c-.282,.187-.51,.6-.511,.922l-.005,11.967c0,.322,.229,.418,.51,.214Z" fill="#7f5640"/><path d="M234.992,19.319v-2.282c0-.635-.448-.844-1.005-.463l-.864,.591c-.564,.385-1.023,1.221-1.023,1.865v2.312c-.001,.644,.458,.843,1.021,.446l.864-.609c.557-.392,1.006-1.224,1.006-1.859Z" fill="#7f5640"/></g><g><path d="M229.146,28.914h0c.292-.211,.529-.647,.529-.974l.007-12.147c0-.327-.236-.434-.528-.24h0c-.293,.195-.531,.619-.531,.947l-.007,12.204c0,.328,.238,.423,.531,.211Z" fill="#7f5640"/><path d="M230.643,22.358v-2.327c.002-.648-.465-.854-1.044-.459l-.899,.614c-.586,.401-1.064,1.259-1.064,1.916v2.358c-.002,.657,.475,.853,1.062,.44l.899-.633c.579-.407,1.046-1.262,1.046-1.91Z" fill="#7f5640"/></g><g><path d="M224.563,32.227h0c.304-.22,.55-.668,.55-1.001l.009-12.392c0-.333-.245-.44-.549-.238h0c-.305,.202-.552,.638-.553,.973l-.009,12.451c0,.335,.247,.428,.552,.207Z" fill="#7f5640"/><path d="M226.122,25.518l.002-2.374c0-.661-.485-.865-1.087-.453l-.935,.639c-.61,.417-1.107,1.3-1.108,1.97l-.002,2.406c0,.67,.496,.863,1.106,.434l.935-.658c.602-.424,1.088-1.302,1.089-1.963Z" fill="#7f5640"/></g><g><path d="M219.792,35.676h0c.317-.229,.573-.69,.573-1.03l.011-12.646c0-.34-.255-.446-.572-.235h0c-.317,.211-.575,.659-.576,1.001l-.012,12.708c0,.342,.257,.433,.575,.203Z" fill="#7f5640"/><path d="M221.416,28.807l.002-2.422c0-.674-.505-.876-1.131-.447l-.974,.665c-.635,.434-1.153,1.342-1.154,2.026l-.002,2.456c0,.684,.516,.874,1.152,.427l.974-.686c.627-.441,1.133-1.344,1.134-2.019Z" fill="#7f5640"/></g><g><path d="M214.822,39.269h0c.33-.239,.597-.713,.597-1.061l.014-12.911c0-.347-.266-.451-.596-.232h0c-.331,.22-.6,.681-.6,1.03l-.014,12.976c0,.349,.268,.438,.599,.199Z" fill="#7f5640"/><path d="M216.515,32.231l.003-2.473c0-.689-.526-.887-1.179-.44l-1.015,.693c-.662,.453-1.202,1.387-1.203,2.086l-.003,2.508c0,.698,.538,.885,1.2,.419l1.015-.714c.653-.46,1.181-1.389,1.182-2.078Z" fill="#7f5640"/></g><g><path d="M209.64,43.015h0c.344-.249,.623-.738,.623-1.093l.017-13.188c0-.355-.277-.457-.621-.229h0c-.345,.229-.626,.704-.626,1.061l-.017,13.255c0,.357,.28,.443,.625,.194Z" fill="#7f5640"/><path d="M211.407,35.801l.003-2.526c0-.703-.548-.898-1.229-.432l-1.058,.723c-.691,.472-1.255,1.435-1.256,2.149l-.003,2.562c0,.714,.561,.896,1.252,.409l1.059-.745c.681-.48,1.232-1.437,1.233-2.14Z" fill="#7f5640"/></g></g><g><g><path d="M241.872,38.749h0c.261-.211,.472-.633,.472-.942v-11.485c0-.309-.21-.401-.471-.204h0c-.261,.197-.474,.608-.474,.918v11.536c-.001,.31,.211,.39,.473,.178Z" fill="#7f5640"/><path d="M243.207,32.489v-2.201c0-.613-.417-.788-.933-.389l-.802,.619c-.523,.403-.949,1.235-.949,1.856v2.229c0,.621,.425,.786,.948,.372l.802-.635c.517-.409,.934-1.237,.934-1.849Z" fill="#7f5640"/></g><g><path d="M237.787,42.062h0c.271-.22,.49-.653,.49-.967l.003-11.703c0-.315-.219-.405-.489-.201h0c-.271,.204-.492,.626-.492,.942l-.003,11.756c0,.316,.22,.394,.492,.174Z" fill="#7f5640"/><path d="M239.173,35.663v-2.242c0-.624-.432-.797-.968-.383l-.833,.642c-.543,.419-.985,1.273-.985,1.905v2.271c0,.633,.441,.795,.984,.365l.833-.66c.536-.425,.969-1.274,.969-1.899Z" fill="#7f5640"/></g><g><path d="M233.544,45.504h0c.281-.228,.509-.673,.509-.994l.004-11.93c0-.321-.227-.41-.508-.198h0c-.282,.212-.511,.646-.511,.968l-.005,11.985c0,.323,.229,.398,.511,.17Z" fill="#7f5640"/><path d="M234.985,38.959v-2.286c0-.636-.448-.805-1.005-.376l-.865,.667c-.564,.435-1.024,1.312-1.024,1.957v2.316c-.001,.645,.458,.804,1.022,.357l.865-.685c.557-.441,1.007-1.314,1.007-1.95Z" fill="#7f5640"/></g><g><path d="M229.135,49.081h0c.292-.237,.529-.694,.529-1.022l.007-12.166c0-.327-.236-.414-.528-.194h0c-.293,.221-.531,.666-.531,.995l-.007,12.223c0,.329,.238,.402,.531,.165Z" fill="#7f5640"/><path d="M230.633,42.384v-2.331c.002-.649-.466-.814-1.045-.368l-.899,.694c-.587,.453-1.065,1.354-1.065,2.012v2.362c-.002,.658,.476,.812,1.062,.348l.899-.713c.579-.459,1.047-1.355,1.047-2.004Z" fill="#7f5640"/></g><g><path d="M224.548,52.802h0c.304-.247,.55-.717,.551-1.051l.009-12.411c0-.334-.245-.419-.55-.19h0c-.305,.229-.553,.688-.553,1.023l-.009,12.47c0,.336,.247,.407,.552,.159Z" fill="#7f5640"/><path d="M226.108,45.946l.002-2.377c0-.662-.485-.823-1.088-.359l-.936,.722c-.611,.471-1.108,1.399-1.109,2.07l-.002,2.41c0,.671,.496,.821,1.107,.337l.936-.741c.603-.477,1.089-1.399,1.09-2.062Z" fill="#7f5640"/></g><g><path d="M219.773,56.675h0c.317-.257,.573-.741,.574-1.082l.011-12.666c0-.341-.256-.424-.572-.186h0c-.317,.239-.576,.711-.576,1.053l-.012,12.728c0,.343,.258,.411,.575,.153Z" fill="#7f5640"/><path d="M221.398,49.652l.002-2.426c0-.676-.505-.833-1.132-.349l-.974,.752c-.636,.491-1.154,1.446-1.155,2.13l-.002,2.46c0,.685,.517,.83,1.153,.326l.975-.772c.627-.497,1.134-1.446,1.135-2.122Z" fill="#7f5640"/></g><g><path d="M214.799,60.71h0c.33-.268,.598-.767,.598-1.115l.014-12.932c0-.348-.266-.429-.596-.18h0c-.331,.249-.6,.735-.601,1.084l-.014,12.997c0,.35,.268,.415,.599,.147Z" fill="#7f5640"/><path d="M216.493,53.513l.003-2.477c0-.69-.526-.842-1.18-.337l-1.016,.784c-.663,.511-1.204,1.495-1.204,2.195l-.003,2.512c0,.7,.539,.839,1.202,.314l1.016-.805c.654-.518,1.182-1.495,1.183-2.185Z" fill="#7f5640"/></g><g><path d="M209.612,64.917h0c.344-.279,.623-.794,.624-1.149l.017-13.21c0-.355-.278-.434-.622-.174h0c-.345,.26-.626,.76-.627,1.117l-.017,13.277c0,.357,.28,.419,.625,.139Z" fill="#7f5640"/><path d="M211.381,57.537l.003-2.53c0-.704-.548-.851-1.23-.325l-1.059,.817c-.692,.534-1.256,1.548-1.257,2.262l-.003,2.566c0,.715,.562,.848,1.253,.3l1.06-.839c.682-.54,1.233-1.547,1.234-2.252Z" fill="#7f5640"/></g></g><g><g><path d="M241.871,57.813h0c.261-.235,.472-.675,.472-.985v-11.501c0-.309-.21-.383-.471-.163h0c-.261,.22-.474,.65-.474,.961v11.552c-.001,.311,.211,.372,.473,.137Z" fill="#7f5640"/><path d="M243.206,51.427v-2.204c0-.614-.417-.752-.934-.308l-.802,.69c-.523,.45-.95,1.32-.95,1.941v2.232c0,.622,.426,.75,.949,.289l.803-.707c.517-.455,.934-1.32,.934-1.934Z" fill="#7f5640"/></g><g><path d="M237.783,61.49h0c.271-.244,.49-.696,.49-1.012l.003-11.72c0-.315-.219-.386-.49-.159h0c-.271,.228-.492,.67-.492,.987l-.003,11.773c0,.317,.22,.375,.492,.131Z" fill="#7f5640"/><path d="M239.17,54.96v-2.246c0-.625-.432-.76-.969-.298l-.833,.716c-.543,.467-.986,1.361-.986,1.994v2.275c0,.633,.442,.757,.985,.279l.833-.734c.537-.473,.97-1.361,.97-1.986Z" fill="#7f5640"/></g><g><path d="M233.537,65.309h0c.281-.253,.509-.719,.509-1.04l.004-11.948c0-.321-.227-.39-.509-.154h0c-.282,.237-.511,.691-.511,1.014l-.005,12.003c0,.323,.229,.379,.511,.125Z" fill="#7f5640"/><path d="M234.978,58.629v-2.289c.001-.637-.449-.767-1.006-.288l-.866,.744c-.565,.486-1.025,1.404-1.025,2.05v2.319c-.001,.646,.458,.765,1.023,.267l.866-.762c.558-.491,1.008-1.404,1.008-2.042Z" fill="#7f5640"/></g><g><path d="M229.123,69.279h0c.293-.263,.529-.742,.53-1.07l.007-12.184c0-.328-.236-.394-.529-.148h0c-.293,.247-.532,.714-.532,1.043l-.007,12.241c0,.329,.238,.382,.531,.118Z" fill="#7f5640"/><path d="M230.623,62.441v-2.334c.002-.65-.466-.775-1.045-.276l-.9,.774c-.587,.505-1.066,1.45-1.066,2.109v2.365c-.002,.659,.476,.772,1.063,.255l.9-.793c.58-.51,1.048-1.449,1.048-2.099Z" fill="#7f5640"/></g><g><path d="M224.533,73.408h0c.304-.274,.551-.767,.551-1.101l.009-12.43c0-.334-.246-.398-.55-.142h0c-.305,.257-.553,.737-.554,1.073l-.009,12.489c0,.336,.248,.385,.553,.111Z" fill="#7f5640"/><path d="M226.094,66.405l.002-2.381c0-.663-.486-.782-1.089-.264l-.937,.805c-.611,.525-1.109,1.498-1.11,2.17l-.002,2.414c0,.672,.497,.779,1.108,.241l.937-.825c.603-.531,1.09-1.497,1.091-2.16Z" fill="#7f5640"/></g><g><path d="M219.754,77.707h0c.317-.285,.574-.793,.574-1.134l.011-12.686c0-.341-.256-.402-.573-.136h0c-.318,.267-.576,.762-.577,1.105l-.012,12.748c0,.343,.258,.389,.576,.103Z" fill="#7f5640"/><path d="M221.381,70.531l.002-2.43c0-.677-.506-.789-1.133-.25l-.975,.839c-.636,.547-1.155,1.549-1.156,2.235l-.002,2.464c0,.686,.517,.786,1.154,.225l.976-.859c.628-.553,1.135-1.548,1.136-2.224Z" fill="#7f5640"/></g><g><path d="M214.775,82.185h0c.331-.297,.598-.82,.598-1.169l.014-12.953c0-.348-.266-.406-.597-.128h0c-.331,.279-.601,.789-.601,1.139l-.014,13.017c0,.35,.269,.392,.6,.094Z" fill="#7f5640"/><path d="M216.472,74.828l.003-2.481c0-.691-.527-.797-1.181-.234l-1.017,.874c-.663,.57-1.205,1.603-1.205,2.304l-.003,2.516c0,.701,.539,.793,1.203,.209l1.017-.895c.654-.576,1.183-1.601,1.184-2.292Z" fill="#7f5640"/></g><g><path d="M209.584,86.855h0c.345-.31,.624-.85,.624-1.206l.017-13.231c0-.356-.278-.41-.622-.12h0c-.346,.291-.627,.817-.627,1.174l-.017,13.299c0,.358,.28,.395,.626,.084Z" fill="#7f5640"/><path d="M211.354,79.308l.003-2.534c0-.705-.549-.804-1.231-.217l-1.06,.912c-.692,.595-1.257,1.66-1.258,2.376l-.003,2.571c0,.716,.562,.8,1.255,.19l1.061-.934c.683-.601,1.234-1.658,1.235-2.364Z" fill="#7f5640"/></g></g><g><g><path d="M241.869,76.904h0c.261-.258,.472-.718,.472-1.028v-11.518c0-.31-.21-.365-.471-.122h0c-.262,.243-.474,.693-.474,1.004v11.569c-.001,.311,.211,.354,.473,.095Z" fill="#7f5640"/><path d="M243.206,70.391v-2.207c0-.615-.417-.717-.935-.226l-.803,.761c-.524,.497-.95,1.405-.95,2.028v2.235c0,.622,.426,.714,.95,.206l.803-.778c.517-.501,.935-1.404,.935-2.019Z" fill="#7f5640"/></g><g><path d="M237.778,80.946h0c.271-.268,.49-.741,.49-1.056l.003-11.737c0-.316-.219-.368-.49-.116h0c-.272,.252-.492,.714-.492,1.032l-.003,11.79c0,.317,.221,.356,.492,.088Z" fill="#7f5640"/><path d="M239.166,74.284v-2.249c0-.626-.433-.723-.97-.214l-.834,.791c-.544,.516-.987,1.45-.987,2.084v2.278c0,.634,.442,.72,.986,.193l.834-.808c.537-.52,.971-1.448,.971-2.075Z" fill="#7f5640"/></g><g><path d="M233.529,85.144h0c.282-.278,.51-.764,.51-1.086l.004-11.965c0-.322-.227-.371-.509-.109h0c-.282,.262-.512,.737-.512,1.061l-.005,12.02c0,.324,.229,.359,.512,.08Z" fill="#7f5640"/><path d="M234.972,78.327v-2.292c.001-.638-.449-.729-1.007-.2l-.866,.821c-.565,.536-1.026,1.496-1.026,2.143v2.323c-.001,.647,.459,.725,1.024,.178l.866-.84c.558-.541,1.009-1.495,1.009-2.133Z" fill="#7f5640"/></g><g><path d="M229.112,89.507h0c.293-.289,.53-.79,.53-1.118l.007-12.202c0-.328-.236-.374-.529-.102h0c-.293,.273-.532,.762-.532,1.091l-.007,12.26c0,.33,.238,.362,.532,.072Z" fill="#7f5640"/><path d="M230.613,82.527v-2.338c.002-.651-.466-.735-1.046-.185l-.901,.854c-.588,.557-1.067,1.546-1.067,2.205v2.369c-.002,.66,.476,.731,1.064,.161l.901-.873c.58-.562,1.049-1.544,1.049-2.195Z" fill="#7f5640"/></g><g><path d="M224.518,94.046h0c.305-.301,.551-.816,.552-1.151l.009-12.449c0-.335-.246-.377-.55-.094h0c-.305,.284-.554,.787-.554,1.123l-.009,12.509c0,.337,.248,.364,.553,.062Z" fill="#7f5640"/><path d="M226.08,86.896l.002-2.385c0-.664-.486-.74-1.09-.168l-.937,.889c-.612,.58-1.11,1.598-1.111,2.271l-.002,2.417c0,.673,.497,.736,1.109,.144l.938-.908c.604-.585,1.091-1.595,1.092-2.259Z" fill="#7f5640"/></g><g><path d="M219.735,98.771h0c.317-.314,.574-.844,.575-1.186l.011-12.706c0-.342-.256-.38-.573-.085h0c-.318,.296-.577,.814-.577,1.157l-.012,12.768c0,.344,.258,.367,.576,.052Z" fill="#7f5640"/><path d="M221.363,91.442l.002-2.434c0-.678-.506-.746-1.134-.15l-.976,.926c-.637,.604-1.156,1.653-1.157,2.34l-.002,2.468c0,.687,.518,.742,1.155,.124l.976-.946c.629-.609,1.136-1.65,1.137-2.328Z" fill="#7f5640"/></g><g><path d="M214.752,103.695h0c.331-.327,.599-.874,.599-1.223l.014-12.974c0-.349-.267-.383-.597-.076h0c-.332,.308-.601,.843-.602,1.193l-.015,13.038c0,.351,.269,.369,.601,.041Z" fill="#7f5640"/><path d="M216.45,96.178l.003-2.485c0-.692-.527-.752-1.182-.131l-1.017,.965c-.664,.63-1.206,1.711-1.207,2.413l-.003,2.52c0,.702,.54,.747,1.204,.103l1.018-.986c.655-.635,1.184-1.708,1.185-2.4Z" fill="#7f5640"/></g><g><path d="M209.556,108.828h0c.345-.341,.625-.906,.625-1.262l.017-13.253c0-.356-.278-.386-.623-.066h0c-.346,.321-.627,.873-.628,1.231l-.017,13.32c0,.359,.28,.371,.626,.029Z" fill="#7f5640"/><path d="M211.327,101.114l.003-2.538c0-.707-.549-.757-1.233-.109l-1.061,1.006c-.693,.657-1.258,1.773-1.259,2.49l-.003,2.575c0,.717,.563,.751,1.256,.08l1.062-1.029c.683-.662,1.235-1.769,1.236-2.476Z" fill="#7f5640"/></g></g><g><g><path d="M241.868,96.022h0c.261-.281,.473-.76,.473-1.071v-11.534c0-.31-.211-.347-.472-.081h0c-.262,.266-.475,.735-.475,1.047v11.585c-.001,.312,.212,.335,.474,.053Z" fill="#7f5640"/><path d="M243.205,89.383v-2.21c0-.615-.418-.681-.935-.144l-.804,.833c-.524,.543-.951,1.491-.951,2.114v2.238c0,.623,.426,.677,.95,.123l.804-.85c.518-.548,.936-1.488,.936-2.104Z" fill="#7f5640"/></g><g><path d="M237.774,100.43h0c.271-.292,.491-.785,.491-1.101l.003-11.754c0-.316-.219-.349-.49-.073h0c-.272,.277-.493,.759-.493,1.076l-.003,11.807c0,.318,.221,.338,.493,.045Z" fill="#7f5640"/><path d="M239.163,93.637v-2.252c0-.627-.433-.686-.971-.129l-.834,.865c-.544,.564-.988,1.539-.988,2.174v2.281c0,.635,.442,.682,.987,.106l.835-.882c.538-.568,.971-1.536,.972-2.163Z" fill="#7f5640"/></g><g><path d="M233.521,105.008h0c.282-.303,.51-.81,.51-1.133l.004-11.983c0-.322-.228-.351-.509-.065h0c-.282,.287-.512,.783-.512,1.107l-.005,12.038c0,.324,.229,.339,.512,.035Z" fill="#7f5640"/><path d="M234.965,98.054v-2.296c.001-.639-.449-.69-1.008-.111l-.867,.899c-.566,.586-1.026,1.589-1.027,2.236v2.326c-.001,.648,.459,.686,1.025,.088l.867-.917c.558-.591,1.009-1.586,1.01-2.225Z" fill="#7f5640"/></g><g><path d="M229.101,109.766h0c.293-.316,.53-.837,.53-1.166l.007-12.221c0-.329-.237-.354-.53-.056h0c-.294,.299-.533,.809-.533,1.14l-.007,12.278c0,.33,.238,.341,.532,.025Z" fill="#7f5640"/><path d="M230.603,102.644v-2.341c.002-.652-.467-.695-1.047-.093l-.901,.935c-.588,.61-1.067,1.642-1.068,2.302v2.373c-.002,.661,.477,.69,1.065,.068l.902-.953c.581-.614,1.049-1.638,1.05-2.29Z" fill="#7f5640"/></g><g><path d="M224.503,114.716h0c.305-.328,.552-.866,.552-1.202l.009-12.468c0-.335-.246-.356-.551-.046h0c-.306,.311-.554,.837-.554,1.174l-.009,12.528c0,.337,.248,.343,.554,.014Z" fill="#7f5640"/><path d="M226.067,107.418l.002-2.388c0-.665-.487-.699-1.091-.073l-.938,.973c-.612,.635-1.111,1.698-1.112,2.372l-.002,2.421c0,.674,.498,.694,1.11,.046l.938-.992c.604-.639,1.092-1.694,1.092-2.359Z" fill="#7f5640"/></g><g><path d="M219.716,119.87h0c.318-.342,.575-.896,.575-1.239l.011-12.726c0-.342-.256-.358-.574-.035h0c-.318,.324-.577,.866-.578,1.21l-.012,12.788c0,.344,.258,.345,.577,.002Z" fill="#7f5640"/><path d="M221.345,112.386l.002-2.438c0-.679-.506-.703-1.135-.051l-.977,1.013c-.638,.661-1.157,1.757-1.158,2.445l-.002,2.472c0,.688,.518,.697,1.156,.023l.977-1.033c.629-.665,1.137-1.752,1.138-2.431Z" fill="#7f5640"/></g><g><path d="M214.728,125.239h0c.331-.356,.599-.928,.6-1.278l.014-12.994c0-.349-.267-.36-.598-.024h0c-.332,.338-.602,.897-.602,1.248l-.015,13.059c0,.351,.269,.346,.601-.011Z" fill="#7f5640"/><path d="M216.428,117.561l.003-2.489c0-.693-.527-.706-1.183-.027l-1.018,1.056c-.665,.689-1.207,1.82-1.208,2.523l-.003,2.524c0,.703,.54,.7,1.205-.003l1.019-1.077c.656-.693,1.185-1.815,1.186-2.508Z" fill="#7f5640"/></g><g><path d="M209.527,130.838h0c.345-.372,.625-.962,.626-1.319l.017-13.275c0-.357-.278-.362-.624-.011h0c-.346,.352-.628,.929-.628,1.288l-.017,13.342c0,.359,.281,.347,.627-.026Z" fill="#7f5640"/><path d="M211.301,122.956l.003-2.542c0-.708-.55-.71-1.234,0l-1.062,1.101c-.694,.719-1.259,1.887-1.26,2.605l-.004,2.579c0,.718,.563,.703,1.257-.031l1.063-1.124c.684-.723,1.236-1.881,1.237-2.589Z" fill="#7f5640"/></g></g><g><g><path d="M241.866,115.168h0c.261-.305,.473-.803,.473-1.114v-11.551c0-.311-.211-.328-.472-.039h0c-.262,.29-.475,.778-.475,1.09v11.602c-.001,.312,.212,.317,.474,.012Z" fill="#7f5640"/><path d="M243.205,108.402v-2.213c0-.616-.418-.645-.936-.062l-.804,.905c-.524,.59-.952,1.577-.952,2.201v2.241c0,.624,.427,.641,.951,.04l.804-.922c.518-.594,.936-1.573,.936-2.189Z" fill="#7f5640"/></g><g><path d="M237.769,119.942h0c.272-.316,.491-.829,.491-1.146l.003-11.771c0-.317-.219-.33-.491-.03h0c-.272,.301-.493,.803-.493,1.121l-.003,11.825c0,.318,.221,.319,.493,.001Z" fill="#7f5640"/><path d="M239.159,113.017v-2.255c0-.628-.433-.649-.971-.043l-.835,.94c-.545,.613-.988,1.628-.988,2.264v2.285c0,.636,.443,.644,.987,.019l.835-.957c.538-.617,.972-1.623,.972-2.252Z" fill="#7f5640"/></g><g><path d="M233.513,124.901h0c.282-.329,.51-.856,.51-1.179l.004-12.001c0-.323-.228-.332-.51-.02h0c-.283,.313-.512,.83-.513,1.154l-.005,12.056c0,.324,.23,.32,.512-.01Z" fill="#7f5640"/><path d="M234.959,117.81v-2.299c.001-.64-.45-.652-1.009-.023l-.868,.976c-.566,.637-1.027,1.681-1.027,2.33v2.329c-.001,.649,.459,.646,1.025-.002l.868-.995c.559-.641,1.01-1.677,1.01-2.317Z" fill="#7f5640"/></g><g><path d="M229.09,130.056h0c.293-.342,.531-.885,.531-1.215l.007-12.239c0-.329-.237-.334-.53-.009h0c-.294,.325-.533,.857-.533,1.188l-.007,12.297c0,.331,.239,.321,.533-.022Z" fill="#7f5640"/><path d="M230.593,122.791v-2.345c.002-.653-.467-.654-1.048,0l-.902,1.015c-.589,.662-1.068,1.738-1.069,2.4v2.376c-.002,.662,.477,.649,1.066-.026l.902-1.034c.581-.666,1.05-1.733,1.051-2.386Z" fill="#7f5640"/></g><g><path d="M224.488,135.418h0c.305-.356,.552-.916,.553-1.252l.009-12.487c0-.336-.246-.335-.551,.003h0c-.306,.338-.555,.887-.555,1.224l-.009,12.547c0,.338,.248,.322,.554-.035Z" fill="#7f5640"/><path d="M226.053,127.971l.002-2.392c0-.666-.487-.657-1.091,.023l-.939,1.057c-.613,.689-1.112,1.798-1.113,2.473l-.002,2.425c0,.675,.498,.651,1.111-.051l.939-1.076c.605-.693,1.093-1.792,1.093-2.458Z" fill="#7f5640"/></g><g><path d="M219.697,141.001h0c.318-.37,.575-.948,.576-1.291l.011-12.746c0-.343-.256-.336-.574,.015h0c-.319,.352-.578,.918-.578,1.262l-.012,12.808c0,.345,.258,.322,.577-.049Z" fill="#7f5640"/><path d="M221.328,133.363l.002-2.441c0-.68-.507-.659-1.136,.049l-.978,1.1c-.638,.718-1.158,1.862-1.159,2.551l-.002,2.475c0,.689,.519,.652,1.157-.079l.978-1.121c.63-.722,1.138-1.855,1.139-2.535Z" fill="#7f5640"/></g><g><path d="M214.705,146.818h0c.331-.386,.6-.982,.6-1.333l.014-13.015c0-.35-.267-.337-.598,.029h0c-.332,.367-.602,.951-.603,1.303l-.015,13.08c0,.352,.269,.323,.602-.064Z" fill="#7f5640"/><path d="M216.406,138.979l.003-2.493c0-.694-.528-.661-1.184,.077l-1.019,1.147c-.665,.749-1.208,1.929-1.209,2.633l-.003,2.528c0,.704,.541,.654,1.206-.109l1.02-1.168c.656-.752,1.186-1.922,1.187-2.616Z" fill="#7f5640"/></g><g><path d="M209.499,152.884h0c.346-.403,.626-1.019,.626-1.377l.017-13.296c0-.358-.279-.338-.624,.044h0c-.346,.383-.628,.986-.629,1.346l-.017,13.364c0,.36,.281,.323,.628-.081Z" fill="#7f5640"/><path d="M211.274,144.833l.003-2.546c0-.709-.55-.662-1.235,.108l-1.063,1.197c-.694,.781-1.261,2.001-1.262,2.72l-.004,2.583c0,.719,.564,.654,1.258-.141l1.064-1.219c.685-.785,1.237-1.992,1.238-2.702Z" fill="#7f5640"/></g></g></g></g></g><g><g><polygon points="256.086 .074 256.086 128.787 221.613 167.494 221.613 19.784 256.086 .074" fill="#aa7552"/><rect x="217.088" y="19.785" width="4.5" height="147.708" fill="#e8b185"/><polygon points="251.775 0 256.275 0 221.587 19.785 217.088 19.785 251.775 0" fill="#e8b185"/><g><g><g><path d="M251.773,22.086h0c.223-.154,.403-.564,.403-.915l-.002-13.094c0-.353-.181-.521-.404-.374h0c-.223,.147-.405,.553-.405,.907l.004,13.118c0,.352,.181,.512,.404,.358Z" fill="#7f5640"/><path d="M252.915,15.391v-2.515c0-.701-.358-1.029-.802-.733l-.686,.458c-.446,.298-.807,1.111-.807,1.816v2.528c.001,.704,.363,1.028,.808,.724l.685-.466c.443-.301,.801-1.112,.801-1.812Z" fill="#7f5640"/></g><g><path d="M248.324,24.473h0c.226-.157,.409-.57,.409-.924l-.011-13.198c0-.356-.184-.524-.411-.375h0c-.227,.149-.411,.56-.411,.916l.014,13.222c0,.355,.185,.515,.411,.358Z" fill="#7f5640"/><path d="M249.481,17.718l-.002-2.535c0-.706-.365-1.035-.816-.734l-.697,.466c-.453,.303-.821,1.125-.82,1.835l.003,2.548c0,.709,.369,1.033,.822,.725l.696-.474c.45-.307,.814-1.126,.814-1.832Z" fill="#7f5640"/></g><g><path d="M244.817,26.901h0c.23-.159,.416-.578,.416-.934l-.021-13.303c0-.359-.188-.527-.419-.375h0c-.231,.152-.418,.567-.418,.926l.024,13.328c0,.358,.188,.518,.419,.358Z" fill="#7f5640"/><path d="M245.989,20.085l-.004-2.555c-.001-.712-.373-1.041-.831-.735l-.709,.474c-.461,.308-.834,1.139-.833,1.855l.005,2.569c.001,.715,.376,1.039,.837,.726l.708-.482c.458-.312,.827-1.14,.826-1.851Z" fill="#7f5640"/></g><g><path d="M241.25,29.37h0c.234-.162,.423-.585,.422-.945l-.032-13.41c0-.362-.192-.53-.427-.376h0c-.235,.155-.425,.574-.424,.936l.034,13.435c0,.36,.192,.521,.426,.359Z" fill="#7f5640"/><path d="M242.438,22.492l-.006-2.576c-.002-.718-.38-1.048-.846-.736l-.721,.482c-.469,.313-.848,1.153-.846,1.875l.007,2.589c.002,.721,.384,1.046,.852,.727l.721-.491c.466-.317,.841-1.154,.84-1.871Z" fill="#7f5640"/></g><g><path d="M237.621,31.882h0c.238-.165,.43-.592,.429-.955l-.042-13.519c-.001-.365-.196-.533-.435-.376h0c-.239,.157-.432,.581-.431,.946l.045,13.545c.001,.363,.196,.524,.434,.359Z" fill="#7f5640"/><path d="M238.825,24.941l-.008-2.596c-.002-.724-.388-1.054-.862-.737l-.734,.491c-.477,.319-.862,1.168-.86,1.895l.009,2.611c.003,.726,.392,1.052,.868,.727l.733-.499c.474-.323,.855-1.169,.853-1.892Z" fill="#7f5640"/></g><g><path d="M233.929,34.438h0c.242-.168,.437-.6,.436-.965l-.053-13.629c-.001-.368-.199-.536-.443-.377h0c-.243,.16-.44,.588-.438,.957l.056,13.656c.001,.366,.2,.527,.442,.359Z" fill="#7f5640"/><path d="M235.15,27.432l-.01-2.618c-.003-.729-.395-1.06-.878-.737l-.747,.499c-.485,.324-.877,1.183-.874,1.916l.011,2.632c.003,.732,.399,1.058,.884,.728l.746-.508c.482-.328,.87-1.184,.867-1.913Z" fill="#7f5640"/></g><g><path d="M230.172,37.039h0c.247-.171,.445-.608,.443-.976l-.064-13.742c-.002-.371-.204-.54-.451-.377h0c-.248,.163-.447,.596-.445,.968l.067,13.769c.002,.369,.204,.53,.451,.359Z" fill="#7f5640"/><path d="M231.41,29.967l-.012-2.639c-.003-.735-.403-1.066-.894-.738l-.76,.508c-.494,.33-.892,1.198-.889,1.938l.013,2.654c.004,.738,.408,1.064,.901,.728l.759-.517c.491-.334,.885-1.199,.881-1.934Z" fill="#7f5640"/></g><g><path d="M226.349,39.685h0c.251-.174,.453-.616,.451-.987l-.076-13.856c-.002-.374-.208-.543-.46-.377h0c-.252,.166-.455,.604-.453,.978l.079,13.883c.002,.372,.208,.533,.459,.359Z" fill="#7f5640"/><path d="M227.604,32.547l-.014-2.661c-.004-.742-.412-1.073-.911-.738l-.773,.517c-.503,.336-.908,1.214-.903,1.96l.016,2.676c.004,.745,.416,1.07,.918,.728l.773-.526c.499-.34,.9-1.215,.896-1.956Z" fill="#7f5640"/></g></g><g><g><path d="M251.778,43.603h0c.222-.165,.401-.581,.401-.929l-.002-12.975c0-.35-.18-.506-.402-.348h0c-.222,.158-.403,.57-.403,.921l.004,12.999c0,.349,.18,.497,.402,.332Z" fill="#7f5640"/><path d="M252.915,36.906v-2.492c0-.694-.357-1-.798-.682l-.683,.492c-.444,.32-.804,1.146-.803,1.844v2.505c.001,.697,.362,.998,.805,.673l.682-.5c.441-.323,.797-1.147,.797-1.84Z" fill="#7f5640"/></g><g><path d="M248.345,46.16h0c.225-.168,.407-.588,.407-.939l-.011-13.077c0-.353-.184-.509-.41-.348h0c-.226,.161-.409,.577-.409,.931l.014,13.101c0,.351,.184,.5,.409,.332Z" fill="#7f5640"/><path d="M249.497,39.402l-.002-2.512c0-.7-.364-1.006-.812-.682l-.694,.501c-.451,.325-.817,1.16-.816,1.864l.003,2.525c0,.703,.367,1.004,.818,.673l.693-.508c.448-.329,.81-1.161,.81-1.86Z" fill="#7f5640"/></g><g><path d="M244.854,48.76h0c.229-.171,.414-.595,.414-.949l-.021-13.181c0-.356-.187-.512-.417-.349h0c-.23,.163-.416,.585-.416,.941l.023,13.205c0,.354,.187,.503,.417,.332Z" fill="#7f5640"/><path d="M246.021,41.941l-.004-2.532c-.001-.705-.371-1.011-.827-.682l-.706,.509c-.459,.331-.83,1.175-.829,1.884l.005,2.545c.001,.708,.375,1.009,.833,.673l.705-.517c.456-.334,.824-1.176,.823-1.88Z" fill="#7f5640"/></g><g><path d="M241.304,51.404h0c.233-.174,.421-.603,.42-.959l-.031-13.286c0-.358-.191-.515-.425-.349h0c-.234,.166-.423,.592-.422,.951l.034,13.311c0,.357,.191,.505,.424,.332Z" fill="#7f5640"/><path d="M242.486,44.523l-.006-2.552c-.002-.711-.378-1.017-.842-.682l-.718,.518c-.467,.337-.844,1.19-.842,1.904l.007,2.565c.002,.714,.382,1.015,.848,.673l.717-.526c.463-.34,.837-1.19,.836-1.901Z" fill="#7f5640"/></g><g><path d="M237.692,54.093h0c.237-.177,.428-.611,.427-.97l-.042-13.392c-.001-.361-.195-.518-.432-.349h0c-.238,.169-.43,.6-.429,.962l.044,13.418c.001,.36,.195,.508,.432,.331Z" fill="#7f5640"/><path d="M238.891,47.149l-.008-2.572c-.002-.717-.386-1.023-.858-.682l-.73,.527c-.475,.342-.858,1.205-.856,1.925l.009,2.586c.002,.72,.39,1.02,.864,.673l.729-.535c.471-.346,.851-1.206,.849-1.921Z" fill="#7f5640"/></g><g><path d="M234.019,56.829h0c.241-.18,.435-.619,.434-.981l-.053-13.501c-.001-.364-.198-.52-.44-.349h0c-.242,.172-.438,.607-.436,.972l.055,13.527c.001,.363,.199,.511,.44,.331Z" fill="#7f5640"/><path d="M235.233,49.821l-.01-2.593c-.003-.723-.393-1.028-.874-.682l-.743,.536c-.483,.348-.873,1.22-.87,1.947l.011,2.607c.003,.725,.397,1.026,.88,.672l.742-.544c.48-.352,.866-1.221,.863-1.943Z" fill="#7f5640"/></g><g><path d="M230.28,59.613h0c.245-.183,.443-.627,.441-.992l-.064-13.611c-.002-.367-.202-.523-.449-.349h0c-.246,.175-.445,.615-.443,.983l.067,13.637c.002,.366,.203,.514,.448,.331Z" fill="#7f5640"/><path d="M231.512,52.539l-.012-2.614c-.003-.728-.401-1.034-.89-.682l-.756,.545c-.492,.354-.888,1.236-.884,1.969l.013,2.628c.004,.731,.405,1.032,.896,.672l.755-.554c.488-.358,.88-1.237,.877-1.965Z" fill="#7f5640"/></g><g><path d="M226.476,62.446h0c.25-.186,.45-.635,.448-1.003l-.075-13.723c-.002-.37-.207-.526-.457-.349h0c-.251,.178-.453,.623-.451,.994l.078,13.75c.002,.369,.207,.517,.457,.33Z" fill="#7f5640"/><path d="M227.725,55.305l-.014-2.636c-.004-.734-.409-1.04-.907-.681l-.77,.555c-.5,.361-.903,1.253-.899,1.991l.016,2.65c.004,.737,.414,1.037,.913,.671l.769-.564c.497-.364,.895-1.253,.892-1.987Z" fill="#7f5640"/></g></g><g><g><path d="M251.782,64.927h0c.221-.176,.399-.598,.399-.943l-.002-12.859c0-.347-.179-.492-.4-.323h0c-.221,.169-.401,.588-.401,.935l.004,12.882c0,.346,.179,.483,.4,.307Z" fill="#7f5640"/><path d="M252.914,58.227v-2.47c0-.688-.355-.971-.794-.632l-.679,.525c-.442,.342-.8,1.18-.8,1.872v2.483c.001,.691,.36,.969,.801,.623l.679-.533c.439-.345,.794-1.181,.794-1.868Z" fill="#7f5640"/></g><g><path d="M248.365,67.65h0c.224-.179,.406-.605,.405-.953l-.011-12.958c0-.35-.183-.494-.408-.323h0c-.225,.172-.408,.595-.407,.945l.013,12.982c0,.348,.183,.485,.407,.307Z" fill="#7f5640"/><path d="M249.512,60.889l-.002-2.489c0-.694-.362-.977-.809-.631l-.691,.534c-.449,.347-.813,1.195-.812,1.892l.003,2.502c0,.696,.366,.974,.814,.622l.69-.542c.446-.35,.807-1.195,.806-1.888Z" fill="#7f5640"/></g><g><path d="M244.891,70.418h0c.228-.182,.412-.613,.412-.963l-.021-13.06c0-.352-.186-.497-.415-.322h0c-.229,.175-.414,.602-.414,.955l.023,13.084c0,.351,.186,.488,.415,.306Z" fill="#7f5640"/><path d="M246.052,63.597l-.004-2.508c-.001-.699-.369-.982-.823-.63l-.703,.543c-.457,.353-.826,1.21-.825,1.912l.005,2.522c.001,.702,.373,.979,.829,.621l.702-.551c.454-.356,.82-1.21,.819-1.908Z" fill="#7f5640"/></g><g><path d="M241.357,73.233h0c.232-.185,.419-.621,.418-.974l-.031-13.163c0-.355-.19-.499-.423-.322h0c-.233,.178-.421,.61-.42,.966l.033,13.188c0,.354,.19,.49,.422,.305Z" fill="#7f5640"/><path d="M242.534,66.35l-.006-2.528c-.002-.704-.376-.987-.838-.63l-.714,.553c-.464,.359-.84,1.225-.838,1.934l.007,2.542c.002,.707,.38,.984,.844,.62l.714-.561c.461-.362,.833-1.226,.832-1.929Z" fill="#7f5640"/></g><g><path d="M237.763,76.097h0c.236-.188,.426-.629,.425-.984l-.041-13.268c-.001-.358-.194-.502-.43-.322h0c-.237,.181-.428,.618-.427,.977l.044,13.293c.001,.357,.194,.493,.43,.305Z" fill="#7f5640"/><path d="M238.956,69.15l-.008-2.548c-.002-.71-.384-.992-.854-.629l-.727,.562c-.472,.365-.854,1.241-.852,1.955l.009,2.562c.002,.713,.388,.99,.86,.619l.726-.57c.469-.369,.847-1.242,.845-1.951Z" fill="#7f5640"/></g><g><path d="M234.107,79.01h0c.24-.191,.433-.637,.432-.996l-.052-13.374c-.001-.361-.198-.505-.438-.321h0c-.241,.184-.435,.626-.434,.987l.055,13.399c.001,.359,.198,.495,.438,.304Z" fill="#7f5640"/><path d="M235.316,71.999l-.01-2.569c-.003-.716-.391-.997-.869-.628l-.739,.572c-.481,.372-.869,1.257-.865,1.977l.011,2.582c.003,.719,.395,.995,.876,.618l.739-.58c.477-.375,.861-1.258,.859-1.972Z" fill="#7f5640"/></g><g><path d="M230.387,81.974h0c.244-.195,.441-.645,.439-1.007l-.063-13.482c-.002-.364-.201-.507-.446-.321h0c-.245,.187-.443,.634-.441,.999l.066,13.508c.002,.362,.202,.498,.446,.303Z" fill="#7f5640"/><path d="M231.613,74.897l-.012-2.589c-.003-.722-.399-1.002-.885-.626l-.752,.582c-.489,.378-.883,1.274-.88,1.999l.013,2.603c.004,.724,.403,1,.892,.616l.751-.59c.486-.382,.876-1.274,.873-1.995Z" fill="#7f5640"/></g><g><path d="M226.603,84.989h0c.248-.198,.448-.654,.446-1.018l-.075-13.592c-.002-.367-.206-.51-.455-.32h0c-.25,.19-.45,.643-.448,1.01l.077,13.618c.002,.365,.206,.5,.454,.302Z" fill="#7f5640"/><path d="M227.845,77.845l-.014-2.61c-.004-.727-.407-1.008-.902-.625l-.766,.592c-.498,.385-.899,1.291-.894,2.022l.015,2.625c.004,.73,.412,1.005,.909,.615l.765-.601c.494-.388,.891-1.291,.887-2.017Z" fill="#7f5640"/></g></g><g><g><path d="M251.787,86.059h0c.22-.186,.397-.614,.397-.956l-.002-12.743c0-.344-.178-.477-.399-.298h0c-.22,.179-.399,.604-.399,.949l.004,12.766c0,.342,.179,.469,.398,.282Z" fill="#7f5640"/><path d="M252.914,79.356v-2.448c0-.682-.354-.943-.791-.582l-.676,.558c-.44,.363-.796,1.213-.796,1.899v2.46c.001,.685,.358,.941,.797,.573l.676-.566c.437-.366,.79-1.214,.79-1.895Z" fill="#7f5640"/></g><g><path d="M248.385,88.945h0c.223-.189,.404-.622,.403-.966l-.011-12.841c0-.346-.182-.48-.406-.297h0c-.224,.182-.406,.612-.405,.959l.013,12.865c0,.345,.182,.471,.405,.281Z" fill="#7f5640"/><path d="M249.527,82.182l-.002-2.467c0-.687-.36-.948-.805-.581l-.688,.567c-.447,.369-.809,1.229-.808,1.919l.003,2.479c0,.69,.364,.945,.811,.572l.687-.575c.444-.372,.803-1.229,.802-1.915Z" fill="#7f5640"/></g><g><path d="M244.927,91.879h0c.227-.193,.41-.63,.41-.977l-.021-12.941c0-.349-.185-.482-.413-.297h0c-.228,.186-.412,.62-.412,.969l.023,12.965c0,.348,.185,.473,.413,.281Z" fill="#7f5640"/><path d="M246.083,85.055l-.004-2.486c0-.693-.367-.953-.819-.58l-.699,.577c-.454,.375-.823,1.244-.821,1.94l.005,2.499c.001,.695,.371,.95,.825,.57l.698-.585c.451-.378,.816-1.244,.815-1.936Z" fill="#7f5640"/></g><g><path d="M241.41,94.862h0c.231-.196,.417-.638,.416-.988l-.031-13.042c0-.352-.189-.484-.421-.296h0c-.232,.189-.419,.628-.418,.98l.033,13.066c0,.35,.189,.476,.42,.28Z" fill="#7f5640"/><path d="M242.581,87.977l-.005-2.505c-.002-.698-.375-.957-.834-.578l-.711,.587c-.462,.381-.836,1.26-.834,1.962l.007,2.518c.002,.701,.378,.955,.84,.568l.71-.595c.459-.384,.829-1.26,.828-1.957Z" fill="#7f5640"/></g><g><path d="M237.833,97.897h0c.235-.199,.424-.646,.423-.999l-.041-13.145c-.001-.355-.193-.487-.428-.295h0c-.236,.192-.426,.636-.425,.991l.043,13.169c.001,.353,.193,.478,.428,.278Z" fill="#7f5640"/><path d="M239.02,90.948l-.007-2.525c-.002-.704-.382-.962-.849-.576l-.723,.597c-.47,.388-.85,1.277-.848,1.984l.009,2.538c.002,.706,.386,.959,.855,.566l.722-.605c.467-.391,.843-1.277,.841-1.979Z" fill="#7f5640"/></g><g><path d="M234.195,100.983h0c.239-.203,.431-.655,.43-1.01l-.052-13.249c-.001-.357-.197-.489-.436-.294h0c-.24,.195-.433,.644-.432,1.002l.054,13.274c.001,.356,.197,.48,.436,.277Z" fill="#7f5640"/><path d="M235.398,93.97l-.009-2.545c-.003-.709-.389-.967-.865-.574l-.736,.607c-.478,.395-.864,1.293-.861,2.006l.011,2.558c.003,.712,.393,.964,.871,.564l.735-.615c.475-.398,.857-1.293,.855-2.001Z" fill="#7f5640"/></g><g><path d="M230.493,104.123h0c.243-.206,.438-.663,.437-1.022l-.063-13.355c-.002-.36-.2-.492-.444-.293h0c-.244,.199-.441,.653-.439,1.014l.065,13.38c.002,.359,.201,.482,.444,.276Z" fill="#7f5640"/><path d="M231.713,97.044l-.012-2.565c-.003-.715-.397-.971-.881-.572l-.749,.618c-.487,.402-.879,1.31-.875,2.029l.013,2.579c.004,.718,.401,.969,.887,.562l.748-.626c.483-.405,.872-1.31,.868-2.024Z" fill="#7f5640"/></g><g><path d="M226.727,107.317h0c.247-.21,.446-.672,.444-1.033l-.074-13.463c-.002-.363-.204-.494-.453-.292h0c-.248,.202-.448,.661-.446,1.025l.077,13.488c.002,.362,.205,.485,.452,.275Z" fill="#7f5640"/><path d="M227.963,100.171l-.014-2.586c-.004-.721-.405-.976-.898-.57l-.762,.629c-.495,.409-.894,1.328-.89,2.052l.015,2.6c.004,.723,.409,.973,.904,.559l.761-.637c.492-.412,.886-1.328,.883-2.047Z" fill="#7f5640"/></g></g><g><g><path d="M251.792,107.002h0c.219-.197,.396-.63,.395-.969l-.002-12.63c0-.341-.178-.463-.397-.273h0c-.219,.19-.397,.621-.397,.962l.004,12.652c0,.339,.178,.455,.397,.258Z" fill="#7f5640"/><path d="M252.913,100.298v-2.426c0-.676-.352-.915-.787-.534l-.673,.59c-.438,.384-.793,1.246-.792,1.925v2.438c.001,.679,.357,.913,.794,.525l.673-.598c.435-.386,.787-1.246,.787-1.921Z" fill="#7f5640"/></g><g><path d="M248.405,110.048h0c.222-.2,.402-.638,.402-.98l-.011-12.726c0-.343-.181-.465-.404-.273h0c-.223,.193-.404,.629-.403,.973l.013,12.749c0,.342,.181,.457,.404,.257Z" fill="#7f5640"/><path d="M249.542,103.283l-.002-2.444c0-.681-.359-.92-.801-.532l-.685,.6c-.445,.39-.806,1.262-.805,1.946l.003,2.457c0,.684,.362,.917,.807,.522l.684-.607c.442-.393,.799-1.262,.799-1.942Z" fill="#7f5640"/></g><g><path d="M244.963,113.144h0c.226-.203,.408-.647,.408-.991l-.021-12.824c0-.346-.185-.468-.411-.271h0c-.227,.196-.41,.637-.41,.983l.023,12.847c0,.345,.185,.459,.411,.255Z" fill="#7f5640"/><path d="M246.114,106.319l-.004-2.463c0-.686-.366-.924-.816-.53l-.696,.61c-.452,.396-.819,1.278-.817,1.968l.005,2.476c.001,.689,.369,.921,.821,.52l.695-.618c.449-.399,.812-1.278,.811-1.963Z" fill="#7f5640"/></g><g><path d="M241.462,116.293h0c.23-.207,.415-.655,.414-1.002l-.03-12.923c0-.349-.188-.47-.419-.27h0c-.231,.2-.417,.645-.416,.994l.033,12.946c0,.347,.188,.461,.418,.254Z" fill="#7f5640"/><path d="M242.628,109.405l-.005-2.482c-.002-.692-.373-.928-.83-.527l-.708,.62c-.46,.403-.832,1.295-.83,1.99l.007,2.495c.002,.694,.377,.925,.836,.517l.707-.628c.457-.406,.825-1.294,.824-1.985Z" fill="#7f5640"/></g><g><path d="M237.902,119.495h0c.234-.21,.422-.663,.421-1.013l-.041-13.024c-.001-.351-.192-.472-.426-.269h0c-.235,.203-.424,.653-.423,1.005l.043,13.047c.001,.35,.192,.463,.426,.253Z" fill="#7f5640"/><path d="M239.084,112.544l-.007-2.501c-.002-.697-.38-.932-.845-.525l-.72,.631c-.468,.41-.846,1.311-.844,2.012l.009,2.515c.002,.7,.384,.93,.851,.514l.719-.639c.465-.413,.839-1.311,.837-2.007Z" fill="#7f5640"/></g><g><path d="M234.281,122.751h0c.238-.214,.429-.672,.428-1.024l-.051-13.126c-.001-.354-.196-.474-.434-.268h0c-.239,.207-.431,.662-.43,1.017l.054,13.15c.001,.353,.196,.465,.434,.251Z" fill="#7f5640"/><path d="M235.479,115.736l-.009-2.521c-.003-.703-.388-.937-.861-.522l-.732,.642c-.476,.417-.86,1.329-.857,2.035l.011,2.534c.003,.705,.392,.934,.867,.511l.731-.65c.473-.42,.853-1.328,.85-2.03Z" fill="#7f5640"/></g><g><path d="M230.598,126.064h0c.242-.217,.436-.681,.435-1.036l-.062-13.23c-.002-.357-.199-.476-.442-.266h0c-.243,.21-.438,.671-.437,1.028l.065,13.254c.002,.356,.2,.467,.442,.249Z" fill="#7f5640"/><path d="M231.812,118.983l-.011-2.541c-.003-.708-.395-.941-.877-.519l-.745,.653c-.484,.424-.875,1.346-.871,2.058l.013,2.555c.004,.711,.399,.938,.883,.508l.744-.661c.481-.427,.867-1.346,.864-2.053Z" fill="#7f5640"/></g><g><path d="M226.851,129.434h0c.246-.221,.444-.69,.442-1.048l-.073-13.335c-.002-.36-.203-.479-.45-.265h0c-.247,.214-.446,.68-.444,1.04l.076,13.36c.002,.358,.204,.469,.45,.248Z" fill="#7f5640"/><path d="M228.081,122.286l-.014-2.561c-.004-.714-.403-.945-.893-.516l-.758,.664c-.493,.432-.889,1.364-.885,2.082l.015,2.575c.004,.717,.407,.942,.899,.505l.757-.673c.489-.435,.882-1.364,.878-2.077Z" fill="#7f5640"/></g></g><g><g><path d="M251.796,127.759h0c.218-.207,.394-.646,.394-.982l-.002-12.517c0-.338-.177-.449-.395-.249h0c-.218,.2-.396,.637-.396,.975l.004,12.54c0,.336,.177,.441,.395,.234Z" fill="#7f5640"/><path d="M252.913,121.053v-2.404c0-.67-.35-.888-.784-.486l-.67,.622c-.436,.404-.789,1.278-.789,1.952v2.417c.001,.672,.355,.886,.79,.477l.67-.629c.433-.407,.783-1.278,.783-1.947Z" fill="#7f5640"/></g><g><path d="M248.425,130.962h0c.221-.21,.4-.655,.4-.993l-.011-12.612c0-.34-.18-.451-.402-.248h0c-.222,.204-.402,.645-.402,.986l.013,12.634c0,.339,.18,.443,.402,.233Z" fill="#7f5640"/><path d="M249.556,124.196l-.002-2.423c0-.675-.357-.892-.798-.483l-.681,.632c-.443,.411-.802,1.294-.801,1.973l.003,2.435c0,.678,.361,.889,.803,.474l.681-.639c.44-.413,.796-1.294,.795-1.968Z" fill="#7f5640"/></g><g><path d="M244.998,134.218h0c.225-.214,.407-.663,.406-1.004l-.02-12.708c0-.343-.184-.453-.409-.247h0c-.226,.207-.409,.653-.408,.997l.023,12.731c0,.342,.184,.445,.409,.231Z" fill="#7f5640"/><path d="M246.144,127.391l-.004-2.441c0-.68-.364-.896-.812-.48l-.693,.642c-.45,.418-.815,1.311-.814,1.995l.005,2.453c.001,.683,.368,.893,.817,.471l.692-.65c.447-.42,.808-1.311,.807-1.99Z" fill="#7f5640"/></g><g><path d="M241.514,137.528h0c.229-.217,.413-.672,.412-1.015l-.03-12.805c0-.345-.187-.455-.417-.245h0c-.23,.21-.415,.662-.414,1.008l.032,12.828c0,.344,.187,.447,.416,.229Z" fill="#7f5640"/><path d="M242.674,130.639l-.005-2.46c-.001-.685-.371-.899-.826-.477l-.704,.653c-.458,.425-.828,1.328-.826,2.017l.007,2.472c.002,.688,.375,.897,.832,.467l.704-.661c.455-.427,.822-1.327,.82-2.012Z" fill="#7f5640"/></g><g><path d="M237.971,140.894h0c.233-.221,.42-.68,.419-1.026l-.04-12.904c-.001-.348-.191-.457-.424-.243h0c-.234,.214-.422,.67-.421,1.019l.043,12.927c.001,.347,.191,.448,.424,.227Z" fill="#7f5640"/><path d="M239.147,133.942l-.007-2.479c-.002-.691-.378-.903-.841-.474l-.716,.664c-.466,.432-.842,1.346-.839,2.04l.009,2.491c.002,.693,.382,.9,.847,.464l.716-.672c.463-.434,.835-1.345,.833-2.035Z" fill="#7f5640"/></g><g><path d="M234.367,144.317h0c.236-.225,.427-.689,.426-1.038l-.051-13.004c-.001-.351-.195-.459-.432-.242h0c-.238,.218-.429,.679-.428,1.031l.053,13.028c.001,.349,.195,.45,.431,.225Z" fill="#7f5640"/><path d="M235.559,137.301l-.009-2.498c-.003-.696-.386-.907-.857-.47l-.729,.676c-.474,.439-.856,1.363-.853,2.063l.011,2.511c.003,.699,.39,.904,.863,.46l.728-.684c.47-.442,.849-1.363,.846-2.058Z" fill="#7f5640"/></g><g><path d="M230.702,147.8h0c.241-.229,.434-.699,.432-1.05l-.061-13.106c-.002-.354-.198-.461-.44-.24h0c-.242,.221-.436,.688-.435,1.043l.064,13.13c.002,.352,.199,.452,.439,.223Z" fill="#7f5640"/><path d="M231.91,140.717l-.011-2.517c-.003-.701-.393-.911-.872-.467l-.741,.687c-.482,.447-.87,1.382-.867,2.087l.013,2.531c.004,.704,.397,.908,.879,.456l.74-.695c.479-.449,.863-1.381,.86-2.081Z" fill="#7f5640"/></g><g><path d="M226.974,151.342h0c.245-.233,.441-.708,.439-1.062l-.073-13.21c-.002-.356-.202-.463-.448-.238h0c-.246,.225-.444,.698-.442,1.055l.075,13.234c.002,.355,.202,.454,.447,.221Z" fill="#7f5640"/><path d="M228.198,144.193l-.013-2.537c-.004-.707-.401-.915-.888-.463l-.754,.699c-.49,.455-.885,1.4-.881,2.111l.015,2.551c.004,.71,.405,.911,.895,.452l.753-.707c.487-.457,.878-1.399,.874-2.105Z" fill="#7f5640"/></g></g></g></g><g><polygon points="425.713 .177 416.356 20.587 221.04 20.587 256.713 .177 425.713 .177" fill="#e8b185"/><rect x="221.041" y="20.587" width="195.317" height="3.563" fill="#aa7552"/><polygon points="425.713 3.272 416.356 24.151 416.356 20.587 425.713 .177 425.713 3.272" fill="#f2c2a0"/></g><g><g><polygon points="431.506 .177 431.506 121.18 420.93 167.494 420.93 24.304 431.44 .177 431.506 .177" fill="#aa7552"/><rect x="415.595" y="24.303" width="5.166" height="143.189" fill="#e8b185"/><polygon points="431.33 .177 420.763 24.304 415.596 24.304 426.953 .177 431.33 .177" fill="#e8b185"/></g><g><g><g><path d="M430.58,20.891h0c.066-.186,.119-.593,.119-.909V8.235c0-.316-.053-.432-.119-.259h0c-.066,.173-.12,.571-.12,.888v11.791c0,.317,.053,.423,.119,.236Z" fill="#7f5640"/><path d="M430.918,14.638v-2.252c0-.627-.106-.852-.236-.5l-.203,.545c-.132,.355-.24,1.158-.24,1.792v2.276c0,.634,.107,.851,.24,.486l.203-.56c.131-.361,.236-1.161,.236-1.788Z" fill="#7f5640"/></g><g><path d="M429.549,23.801h0c.068-.192,.123-.608,.123-.93V10.936c0-.321-.054-.437-.122-.258h0c-.068,.179-.124,.585-.124,.908v11.981c0,.322,.055,.427,.123,.235Z" fill="#7f5640"/><path d="M429.898,17.432v-2.288c0-.637-.109-.861-.244-.498l-.209,.563c-.136,.367-.247,1.187-.248,1.831v2.313c0,.644,.111,.86,.247,.484l.209-.578c.135-.373,.244-1.19,.244-1.827Z" fill="#7f5640"/></g><g><path d="M428.486,26.806h0c.07-.199,.127-.624,.127-.95V13.724c.001-.326-.056-.441-.126-.257h0c-.07,.185-.128,.6-.128,.928v12.178c-.001,.328,.056,.432,.126,.233Z" fill="#7f5640"/><path d="M428.846,20.317v-2.326c0-.648-.112-.87-.252-.495l-.216,.581c-.141,.379-.256,1.218-.256,1.873v2.351c0,.655,.114,.869,.255,.48l.216-.597c.139-.385,.252-1.221,.252-1.868Z" fill="#7f5640"/></g><g><path d="M427.386,29.91h0c.073-.205,.131-.64,.132-.972l.002-12.332c0-.332-.059-.446-.131-.256h0c-.073,.191-.132,.616-.132,.949l-.002,12.381c0,.333,.059,.436,.132,.231Z" fill="#7f5640"/><path d="M427.759,23.297v-2.364c0-.658-.116-.879-.26-.492l-.223,.601c-.146,.392-.264,1.25-.264,1.915v2.391c0,.666,.118,.879,.264,.477l.223-.617c.144-.398,.26-1.252,.261-1.911Z" fill="#7f5640"/></g><g><path d="M426.25,33.118h0c.075-.212,.136-.657,.136-.995l.002-12.541c0-.337-.061-.451-.136-.254h0c-.075,.197-.136,.632-.136,.971l-.002,12.591c0,.339,.061,.441,.136,.228Z" fill="#7f5640"/><path d="M426.636,26.376v-2.404c0-.669-.12-.889-.269-.488l-.231,.621c-.151,.405-.273,1.283-.273,1.96v2.431c0,.677,.122,.888,.272,.472l.231-.638c.149-.411,.269-1.286,.269-1.955Z" fill="#7f5640"/></g><g><path d="M425.076,36.437h0c.078-.22,.141-.675,.141-1.019l.003-12.756c0-.343-.063-.456-.14-.252h0c-.078,.204-.141,.649-.141,.994l-.003,12.808c0,.345,.063,.445,.141,.225Z" fill="#7f5640"/><path d="M425.475,29.56v-2.445c0-.681-.124-.898-.278-.484l-.239,.643c-.156,.419-.283,1.318-.283,2.007v2.474c0,.689,.126,.897,.282,.468l.239-.66c.154-.425,.279-1.32,.279-2.001Z" fill="#7f5640"/></g><g><path d="M423.86,39.871h0c.08-.227,.146-.694,.146-1.044l.003-12.979c0-.349-.065-.461-.145-.25h0c-.081,.211-.146,.667-.146,1.018l-.004,13.033c0,.351,.065,.45,.146,.222Z" fill="#7f5640"/><path d="M424.273,32.855v-2.488c0-.693-.128-.908-.287-.48l-.247,.665c-.161,.434-.293,1.355-.293,2.056v2.517c0,.701,.13,.907,.292,.462l.247-.683c.159-.44,.288-1.357,.289-2.05Z" fill="#7f5640"/></g><g><path d="M422.601,43.426h0c.083-.235,.151-.714,.151-1.07l.004-13.211c0-.355-.067-.466-.15-.248h0c-.083,.219-.151,.686-.151,1.043l-.004,13.266c0,.357,.068,.455,.151,.219Z" fill="#7f5640"/><path d="M423.029,36.265v-2.532c0-.705-.132-.918-.297-.474l-.256,.689c-.167,.449-.303,1.393-.303,2.107v2.562c-.001,.714,.135,.917,.302,.456l.256-.707c.165-.456,.299-1.395,.299-2.1Z" fill="#7f5640"/></g></g><g><g><path d="M430.579,40.383h0c.066-.206,.119-.63,.119-.947v-11.763c0-.316-.053-.417-.119-.223h0c-.066,.193-.12,.608-.12,.925v11.808c0,.318,.053,.407,.12,.201Z" fill="#7f5640"/><path d="M430.917,34.019v-2.256c0-.628-.106-.821-.237-.429l-.203,.607c-.132,.396-.24,1.232-.24,1.867v2.28c0,.635,.108,.82,.24,.415l.203-.622c.131-.401,.237-1.234,.237-1.862Z" fill="#7f5640"/></g><g><path d="M429.548,43.607h0c.068-.213,.123-.646,.123-.968v-11.953c0-.321-.054-.421-.123-.221h0c-.068,.2-.124,.623-.124,.946v11.999c0,.323,.055,.411,.123,.198Z" fill="#7f5640"/><path d="M429.897,37.125v-2.292c0-.638-.109-.829-.244-.425l-.21,.627c-.137,.408-.248,1.264-.248,1.909v2.317c0,.645,.111,.828,.247,.41l.21-.642c.135-.414,.244-1.265,.244-1.904Z" fill="#7f5640"/></g><g><path d="M428.484,46.937h0c.07-.22,.127-.663,.127-.99v-12.149c.001-.327-.056-.425-.126-.219h0c-.07,.206-.128,.64-.128,.968v12.196c-.001,.328,.056,.415,.127,.195Z" fill="#7f5640"/><path d="M428.844,40.33v-2.329c0-.648-.112-.837-.252-.42l-.216,.647c-.141,.422-.256,1.297-.256,1.952v2.355c0,.656,.114,.836,.255,.404l.216-.663c.14-.427,.252-1.298,.252-1.947Z" fill="#7f5640"/></g><g><path d="M427.384,50.376h0c.073-.227,.132-.681,.132-1.013l.002-12.351c0-.332-.059-.429-.131-.217h0c-.073,.213-.132,.657-.132,.99l-.002,12.399c0,.334,.059,.419,.132,.191Z" fill="#7f5640"/><path d="M427.757,43.642v-2.368c0-.659-.116-.845-.26-.414l-.224,.669c-.146,.436-.264,1.331-.265,1.998v2.394c0,.667,.118,.844,.264,.398l.224-.685c.144-.441,.261-1.333,.261-1.992Z" fill="#7f5640"/></g><g><path d="M426.247,53.932h0c.075-.235,.136-.699,.136-1.037l.002-12.56c0-.338-.061-.434-.136-.214h0c-.075,.22-.137,.674-.137,1.013l-.002,12.61c0,.339,.061,.423,.136,.187Z" fill="#7f5640"/><path d="M426.633,47.064v-2.408c0-.67-.12-.854-.269-.408l-.231,.692c-.151,.451-.273,1.367-.274,2.045v2.435c0,.678,.122,.852,.273,.391l.231-.708c.149-.456,.27-1.369,.27-2.039Z" fill="#7f5640"/></g><g><path d="M425.071,57.609h0c.078-.243,.141-.719,.141-1.063l.003-12.776c0-.344-.063-.438-.141-.21h0c-.078,.228-.141,.693-.141,1.038l-.003,12.828c0,.345,.063,.427,.141,.183Z" fill="#7f5640"/><path d="M425.47,50.603v-2.449c0-.682-.124-.862-.278-.401l-.239,.715c-.156,.466-.283,1.405-.283,2.095v2.477c0,.69,.126,.861,.282,.383l.239-.733c.154-.472,.279-1.406,.279-2.088Z" fill="#7f5640"/></g><g><path d="M423.854,61.415h0c.081-.252,.146-.739,.146-1.089l.003-13c0-.35-.065-.442-.145-.207h0c-.081,.236-.146,.712-.146,1.063l-.004,13.054c0,.351,.065,.431,.146,.179Z" fill="#7f5640"/><path d="M424.268,54.264v-2.492c0-.694-.128-.871-.287-.393l-.248,.741c-.161,.483-.293,1.445-.293,2.147v2.521c0,.702,.13,.869,.292,.375l.248-.758c.16-.489,.289-1.446,.289-2.14Z" fill="#7f5640"/></g><g><path d="M422.594,65.355h0c.083-.261,.151-.76,.151-1.117l.004-13.232c0-.356-.067-.447-.151-.203h0c-.084,.244-.151,.733-.152,1.09l-.004,13.287c0,.358,.068,.435,.151,.174Z" fill="#7f5640"/><path d="M423.023,58.054v-2.536c0-.706-.132-.879-.298-.385l-.256,.767c-.167,.5-.304,1.487-.304,2.201v2.566c-.001,.715,.135,.877,.302,.365l.257-.785c.165-.506,.299-1.487,.299-2.194Z" fill="#7f5640"/></g></g><g><g><path d="M430.579,59.902h0c.066-.227,.12-.667,.12-.984v-11.78c0-.317-.053-.401-.119-.188h0c-.066,.214-.12,.645-.12,.963v11.824c0,.318,.053,.392,.12,.165Z" fill="#7f5640"/><path d="M430.917,53.428v-2.259c0-.629-.106-.79-.237-.359l-.203,.669c-.132,.436-.24,1.306-.24,1.942v2.283c0,.636,.108,.789,.24,.343l.203-.684c.131-.441,.237-1.307,.237-1.936Z" fill="#7f5640"/></g><g><path d="M429.547,63.442h0c.068-.234,.123-.684,.123-1.007v-11.97c0-.322-.054-.405-.123-.185h0c-.068,.221-.124,.662-.124,.985v12.016c0,.323,.055,.395,.123,.161Z" fill="#7f5640"/><path d="M429.897,56.845v-2.295c0-.639-.109-.797-.244-.352l-.21,.691c-.137,.45-.248,1.34-.248,1.986v2.32c0,.646,.111,.796,.248,.336l.21-.706c.135-.455,.244-1.341,.244-1.98Z" fill="#7f5640"/></g><g><path d="M428.482,67.098h0c.07-.242,.127-.703,.127-1.03v-12.166c.001-.327-.056-.408-.126-.181h0c-.071,.228-.128,.679-.128,1.007v12.214c-.001,.329,.056,.399,.127,.156Z" fill="#7f5640"/><path d="M428.843,60.373v-2.332c0-.649-.112-.804-.252-.345l-.217,.713c-.141,.465-.256,1.376-.256,2.032v2.358c0,.657,.114,.803,.256,.328l.217-.729c.14-.47,.252-1.376,.253-2.026Z" fill="#7f5640"/></g><g><path d="M427.381,70.874h0c.073-.25,.132-.722,.132-1.054l.002-12.369c0-.333-.059-.412-.132-.177h0c-.073,.235-.132,.697-.132,1.031l-.002,12.418c0,.334,.059,.402,.132,.152Z" fill="#7f5640"/><path d="M427.754,64.017v-2.371c0-.66-.116-.812-.26-.336l-.224,.737c-.146,.481-.265,1.413-.265,2.08v2.398c0,.668,.118,.81,.264,.319l.224-.753c.144-.486,.261-1.413,.261-2.074Z" fill="#7f5640"/></g><g><path d="M426.243,74.777h0c.075-.258,.136-.741,.136-1.08l.002-12.579c0-.338-.061-.416-.136-.173h0c-.075,.243-.137,.716-.137,1.056l-.002,12.629c0,.34,.061,.405,.137,.147Z" fill="#7f5640"/><path d="M426.629,67.783v-2.411c0-.671-.12-.819-.269-.327l-.231,.762c-.151,.497-.274,1.452-.274,2.131v2.439c0,.679,.122,.817,.273,.309l.231-.779c.149-.502,.27-1.452,.27-2.123Z" fill="#7f5640"/></g><g><path d="M425.066,78.815h0c.078-.267,.141-.762,.141-1.107l.003-12.796c0-.344-.063-.42-.141-.168h0c-.078,.252-.141,.736-.141,1.082l-.003,12.848c0,.346,.063,.409,.141,.141Z" fill="#7f5640"/><path d="M425.466,71.677v-2.453c0-.683-.124-.826-.278-.318l-.239,.789c-.156,.514-.283,1.493-.283,2.183v2.481c0,.691,.126,.824,.282,.298l.239-.806c.154-.519,.279-1.492,.279-2.176Z" fill="#7f5640"/></g><g><path d="M423.848,82.993h0c.081-.276,.146-.784,.146-1.135l.003-13.02c0-.35-.065-.423-.146-.163h0c-.081,.261-.146,.757-.146,1.109l-.004,13.074c0,.352,.065,.412,.146,.135Z" fill="#7f5640"/><path d="M424.262,75.707v-2.496c0-.695-.128-.833-.288-.307l-.248,.816c-.162,.532-.293,1.535-.293,2.238v2.525c0,.703,.13,.831,.292,.287l.248-.834c.16-.538,.289-1.535,.289-2.23Z" fill="#7f5640"/></g><g><path d="M422.587,87.319h0c.083-.286,.151-.807,.151-1.164l.004-13.253c0-.356-.067-.427-.151-.158h0c-.084,.27-.152,.779-.152,1.137l-.004,13.309c0,.358,.068,.415,.151,.128Z" fill="#7f5640"/><path d="M423.016,79.878v-2.54c0-.707-.132-.841-.298-.296l-.257,.846c-.167,.551-.304,1.58-.304,2.296v2.571c-.001,.716,.135,.838,.302,.274l.257-.864c.165-.557,.299-1.58,.299-2.287Z" fill="#7f5640"/></g></g><g><g><path d="M430.579,79.45h0c.066-.247,.12-.704,.12-1.021v-11.797c0-.317-.053-.385-.119-.152h0c-.066,.234-.12,.682-.12,1v11.841c0,.319,.054,.376,.12,.129Z" fill="#7f5640"/><path d="M430.917,72.865v-2.262c0-.63-.106-.759-.237-.288l-.203,.731c-.132,.476-.24,1.38-.24,2.017v2.286c0,.637,.108,.757,.24,.271l.203-.746c.131-.481,.237-1.38,.237-2.01Z" fill="#7f5640"/></g><g><path d="M429.546,83.306h0c.068-.255,.123-.723,.123-1.045v-11.988c0-.322-.055-.389-.123-.148h0c-.068,.241-.124,.7-.124,1.023v12.033c0,.324,.055,.379,.123,.124Z" fill="#7f5640"/><path d="M429.896,76.594v-2.298c0-.64-.109-.766-.244-.279l-.21,.755c-.137,.492-.248,1.417-.248,2.064v2.323c0,.647,.111,.763,.248,.262l.21-.77c.135-.496,.245-1.416,.245-2.056Z" fill="#7f5640"/></g><g><path d="M428.48,87.288h0c.07-.263,.128-.742,.128-1.07v-12.184c.001-.328-.056-.392-.126-.143h0c-.071,.249-.128,.719-.128,1.047v12.232c-.001,.329,.056,.382,.127,.118Z" fill="#7f5640"/><path d="M428.841,80.445v-2.336c0-.65-.113-.772-.252-.269l-.217,.78c-.141,.508-.256,1.455-.256,2.112v2.362c0,.658,.115,.769,.256,.251l.217-.795c.14-.513,.253-1.454,.253-2.105Z" fill="#7f5640"/></g><g><path d="M427.378,91.402h0c.073-.272,.132-.762,.132-1.096l.002-12.388c0-.333-.059-.395-.132-.138h0c-.073,.258-.132,.738-.132,1.073l-.002,12.437c0,.335,.059,.385,.132,.112Z" fill="#7f5640"/><path d="M427.752,84.422v-2.375c0-.661-.116-.778-.261-.258l-.224,.806c-.146,.525-.265,1.495-.265,2.163v2.402c0,.669,.118,.775,.264,.239l.224-.822c.144-.53,.261-1.494,.261-2.155Z" fill="#7f5640"/></g><g><path d="M426.239,95.654h0c.075-.281,.136-.784,.136-1.123l.002-12.598c0-.339-.061-.398-.136-.132h0c-.075,.267-.137,.759-.137,1.099l-.002,12.649c0,.34,.061,.387,.137,.106Z" fill="#7f5640"/><path d="M426.626,88.533v-2.415c0-.672-.12-.784-.269-.247l-.232,.833c-.151,.543-.274,1.536-.274,2.217v2.443c0,.68,.122,.781,.273,.227l.232-.85c.149-.548,.27-1.535,.27-2.208Z" fill="#7f5640"/></g><g><path d="M425.061,100.053h0c.078-.291,.141-.806,.141-1.151l.003-12.816c0-.345-.063-.401-.141-.126h0c-.078,.276-.142,.78-.142,1.126l-.003,12.868c0,.346,.063,.39,.141,.099Z" fill="#7f5640"/><path d="M425.462,92.784v-2.456c0-.684-.124-.79-.278-.234l-.24,.862c-.156,.562-.283,1.58-.284,2.272v2.485c0,.692,.126,.787,.282,.214l.24-.879c.154-.567,.279-1.579,.279-2.263Z" fill="#7f5640"/></g><g><path d="M423.843,104.605h0c.081-.301,.146-.829,.146-1.18l.003-13.041c0-.351-.065-.404-.146-.12h0c-.081,.285-.147,.803-.147,1.155l-.004,13.095c0,.352,.065,.393,.146,.091Z" fill="#7f5640"/><path d="M424.257,97.183v-2.499c0-.696-.128-.796-.288-.221l-.248,.892c-.162,.582-.293,1.626-.294,2.33v2.529c0,.704,.131,.792,.292,.199l.248-.91c.16-.587,.289-1.625,.289-2.321Z" fill="#7f5640"/></g><g><path d="M422.58,109.319h0c.084-.312,.151-.854,.151-1.211l.004-13.274c0-.357-.067-.408-.151-.113h0c-.084,.296-.152,.826-.152,1.185l-.004,13.33c0,.359,.068,.396,.152,.083Z" fill="#7f5640"/><path d="M423.01,101.737v-2.544c0-.708-.133-.802-.298-.206l-.257,.924c-.168,.603-.304,1.674-.304,2.391v2.575c-.001,.717,.135,.798,.303,.183l.257-.943c.166-.608,.299-1.672,.3-2.381Z" fill="#7f5640"/></g></g><g><g><path d="M430.578,99.025h0c.066-.267,.12-.741,.12-1.059v-11.814c0-.318-.053-.37-.119-.116h0c-.066,.254-.12,.719-.12,1.038v11.858c0,.319,.054,.36,.12,.093Z" fill="#7f5640"/><path d="M430.917,92.328v-2.265c0-.631-.106-.729-.237-.217l-.203,.794c-.133,.517-.24,1.455-.24,2.092v2.289c0,.638,.108,.726,.24,.199l.203-.808c.131-.521,.237-1.454,.237-2.084Z" fill="#7f5640"/></g><g><path d="M429.545,103.199h0c.068-.276,.124-.761,.124-1.084v-12.005c0-.323-.055-.373-.123-.111h0c-.068,.262-.124,.738-.124,1.062v12.051c0,.324,.055,.363,.123,.086Z" fill="#7f5640"/><path d="M429.895,96.372v-2.302c0-.641-.109-.734-.245-.205l-.21,.819c-.137,.534-.248,1.494-.248,2.141v2.327c0,.648,.111,.731,.248,.187l.21-.834c.135-.538,.245-1.492,.245-2.133Z" fill="#7f5640"/></g><g><path d="M428.478,107.508h0c.071-.285,.128-.782,.128-1.11v-12.202c.001-.328-.056-.375-.126-.105h0c-.071,.271-.128,.758-.128,1.088v12.25c-.001,.33,.056,.365,.127,.08Z" fill="#7f5640"/><path d="M428.839,100.546v-2.339c0-.651-.113-.739-.252-.193l-.217,.846c-.141,.552-.256,1.534-.257,2.193v2.365c0,.659,.115,.736,.256,.174l.217-.862c.14-.556,.253-1.533,.253-2.184Z" fill="#7f5640"/></g><g><path d="M427.375,111.961h0c.073-.294,.132-.803,.132-1.137l.002-12.406c0-.334-.059-.378-.132-.098h0c-.073,.28-.132,.779-.132,1.114l-.002,12.455c0,.335,.059,.367,.132,.072Z" fill="#7f5640"/><path d="M427.749,104.858v-2.378c0-.662-.116-.744-.261-.18l-.224,.875c-.146,.57-.265,1.577-.265,2.247v2.405c0,.67,.118,.74,.264,.16l.224-.891c.145-.574,.261-1.575,.261-2.237Z" fill="#7f5640"/></g><g><path d="M426.236,116.563h0c.075-.304,.136-.826,.136-1.166l.002-12.617c0-.339-.061-.38-.136-.091h0c-.076,.29-.137,.801-.137,1.142l-.002,12.668c0,.341,.061,.37,.137,.064Z" fill="#7f5640"/><path d="M426.622,109.315v-2.419c0-.673-.12-.749-.269-.166l-.232,.904c-.151,.589-.274,1.621-.274,2.303v2.446c0,.681,.122,.745,.273,.145l.232-.921c.149-.594,.27-1.619,.27-2.293Z" fill="#7f5640"/></g><g><path d="M425.057,121.324h0c.078-.315,.141-.85,.141-1.195l.003-12.835c0-.345-.063-.383-.141-.084h0c-.078,.3-.142,.824-.142,1.171l-.003,12.888c0,.347,.063,.372,.142,.056Z" fill="#7f5640"/><path d="M425.457,113.924v-2.46c0-.685-.124-.753-.279-.15l-.24,.936c-.156,.61-.284,1.668-.284,2.361v2.489c0,.693,.126,.75,.283,.128l.24-.953c.155-.614,.28-1.666,.28-2.351Z" fill="#7f5640"/></g><g><path d="M423.837,126.251h0c.081-.326,.146-.875,.146-1.226l.003-13.061c0-.351-.065-.385-.146-.076h0c-.081,.31-.147,.848-.147,1.201l-.004,13.116c0,.353,.066,.374,.146,.047Z" fill="#7f5640"/><path d="M424.252,118.693v-2.503c0-.697-.128-.758-.288-.134l-.248,.969c-.162,.631-.294,1.717-.294,2.423v2.533c0,.705,.131,.754,.293,.111l.248-.987c.16-.636,.289-1.714,.29-2.411Z" fill="#7f5640"/></g><g><path d="M422.573,131.353h0c.084-.338,.151-.901,.151-1.259l.004-13.295c0-.357-.067-.388-.151-.067h0c-.084,.321-.152,.873-.152,1.232l-.004,13.352c0,.359,.068,.376,.152,.037Z" fill="#7f5640"/><path d="M423.003,123.63v-2.548c0-.709-.133-.763-.298-.116l-.257,1.003c-.168,.654-.304,1.769-.305,2.487v2.579c-.001,.718,.135,.758,.303,.092l.257-1.022c.166-.658,.3-1.765,.3-2.475Z" fill="#7f5640"/></g></g><g><g><path d="M430.578,118.629h0c.066-.288,.12-.778,.12-1.097v-11.831c0-.318-.053-.354-.12-.08h0c-.066,.275-.12,.756-.12,1.076v11.875c0,.32,.054,.345,.12,.057Z" fill="#7f5640"/><path d="M430.917,111.82v-2.268c0-.632-.106-.698-.237-.146l-.204,.856c-.133,.558-.241,1.529-.241,2.168v2.293c0,.639,.108,.694,.24,.127l.204-.871c.131-.562,.237-1.527,.237-2.159Z" fill="#7f5640"/></g><g><path d="M429.544,123.12h0c.068-.297,.124-.799,.124-1.123v-12.022c0-.323-.055-.356-.123-.074h0c-.068,.283-.124,.777-.124,1.101v12.068c0,.325,.055,.347,.123,.049Z" fill="#7f5640"/><path d="M429.894,116.177v-2.305c0-.642-.109-.702-.245-.132l-.21,.884c-.137,.576-.248,1.571-.248,2.219v2.33c0,.649,.111,.698,.248,.112l.21-.899c.136-.58,.245-1.568,.245-2.21Z" fill="#7f5640"/></g><g><path d="M428.476,127.758h0c.071-.307,.128-.821,.128-1.15v-12.22c.001-.329-.056-.359-.126-.066h0c-.071,.293-.128,.798-.128,1.128v12.268c-.001,.33,.056,.348,.127,.041Z" fill="#7f5640"/><path d="M428.838,120.677v-2.343c0-.652-.113-.706-.253-.117l-.217,.913c-.141,.595-.257,1.614-.257,2.273v2.369c0,.66,.115,.702,.256,.097l.217-.929c.14-.599,.253-1.611,.253-2.264Z" fill="#7f5640"/></g><g><path d="M427.373,132.55h0c.073-.317,.132-.844,.132-1.179l.002-12.425c0-.334-.059-.361-.132-.059h0c-.073,.303-.132,.82-.133,1.156l-.002,12.474c0,.336,.059,.35,.132,.032Z" fill="#7f5640"/><path d="M427.747,125.324v-2.382c0-.663-.116-.71-.261-.101l-.224,.944c-.146,.615-.265,1.659-.265,2.33v2.409c0,.671,.118,.706,.265,.08l.224-.96c.145-.619,.262-1.656,.262-2.319Z" fill="#7f5640"/></g><g><path d="M426.232,137.504h0c.075-.328,.137-.868,.137-1.209l.002-12.636c0-.34-.061-.363-.136-.05h0c-.076,.313-.137,.844-.137,1.185l-.002,12.687c0,.341,.061,.352,.137,.023Z" fill="#7f5640"/><path d="M426.619,130.128v-2.422c0-.674-.12-.713-.27-.084l-.232,.976c-.151,.636-.274,1.707-.274,2.389v2.45c0,.682,.122,.709,.274,.062l.232-.992c.15-.64,.27-1.703,.271-2.378Z" fill="#7f5640"/></g><g><path d="M425.052,142.628h0c.078-.339,.141-.894,.141-1.24l.003-12.855c0-.346-.063-.365-.141-.041h0c-.078,.324-.142,.868-.142,1.215l-.003,12.908c0,.347,.063,.353,.142,.013Z" fill="#7f5640"/><path d="M425.453,135.096v-2.464c0-.686-.124-.717-.279-.066l-.24,1.01c-.156,.658-.284,1.756-.284,2.451v2.493c0,.694,.126,.712,.283,.043l.24-1.027c.155-.662,.28-1.753,.28-2.439Z" fill="#7f5640"/></g><g><path d="M423.831,147.931h0c.081-.351,.146-.92,.146-1.272l.003-13.082c0-.352-.065-.366-.146-.032h0c-.081,.335-.147,.894-.147,1.247l-.004,13.136c0,.354,.066,.354,.147,.003Z" fill="#7f5640"/><path d="M424.246,140.236v-2.507c0-.698-.128-.72-.288-.047l-.248,1.045c-.162,.681-.294,1.809-.294,2.515v2.537c0,.707,.131,.715,.293,.022l.249-1.063c.16-.685,.29-1.804,.29-2.503Z" fill="#7f5640"/></g><g><path d="M422.567,153.423h0c.084-.364,.151-.948,.152-1.307l.004-13.316c0-.358-.067-.368-.151-.022h0c-.084,.347-.152,.921-.152,1.28l-.004,13.373c0,.36,.068,.356,.152-.009Z" fill="#7f5640"/><path d="M422.997,145.558v-2.552c0-.711-.133-.723-.299-.026l-.257,1.083c-.168,.706-.305,1.864-.305,2.583v2.583c-.001,.719,.135,.718,.303,0l.257-1.101c.166-.71,.3-1.859,.3-2.569Z" fill="#7f5640"/></g></g></g></g></g></g></svg>