<?xml version="1.0" encoding="UTF-8"?><svg id="Layer_2" xmlns="http://www.w3.org/2000/svg" viewBox="0 0 210.484 214.042"><g id="VIVI_Panels"><polygon points="0 173.212 68.268 214.042 68.268 118.807 2.345 80.024 0 173.212" fill="#aa7552"/><polygon points="67.138 118.719 73.775 114.887 74.904 210.177 68.268 214.008 67.138 118.719" fill="#e8b185"/><polygon points="135.58 97.077 203.848 137.907 203.848 42.672 135.58 1.842 135.58 97.077" fill="#aa7552"/><g><g><g><path d="M190.729,63.379h0c1.276,.737,2.311-.045,2.311-1.747v-11.339c0-1.702-1.035-3.679-2.311-4.415h0c-1.276-.737-2.311,.045-2.311,1.747v11.339c0,1.702,1.035,3.679,2.311,4.415Z" fill="#e8b185"/><path d="M197.293,58.418h0c0-1.702-1.035-3.679-2.311-4.416l-8.505-4.91c-1.276-.737-2.311,.045-2.311,1.747h0c0,1.702,1.035,3.679,2.311,4.416l8.505,4.91c1.276,.737,2.311-.045,2.311-1.747Z" fill="#e8b185"/></g><g><path d="M171.127,52.062h0c1.276,.737,2.311-.045,2.311-1.747v-11.339c0-1.702-1.035-3.679-2.311-4.415h0c-1.276-.737-2.311,.045-2.311,1.747v11.339c0,1.702,1.035,3.679,2.311,4.415Z" fill="#e8b185"/><path d="M177.691,47.101h0c0-1.702-1.035-3.679-2.311-4.416l-8.505-4.91c-1.276-.737-2.311,.045-2.311,1.747h0c0,1.702,1.035,3.679,2.311,4.416l8.505,4.91c1.276,.737,2.311-.045,2.311-1.747Z" fill="#e8b185"/></g><g><path d="M151.525,40.744h0c1.276,.737,2.311-.045,2.311-1.747v-11.339c0-1.702-1.035-3.679-2.311-4.415h0c-1.276-.737-2.311,.045-2.311,1.747v11.339c0,1.702,1.035,3.679,2.311,4.415Z" fill="#e8b185"/><path d="M158.089,35.783h0c0-1.702-1.035-3.679-2.311-4.416l-8.505-4.91c-1.276-.737-2.311,.045-2.311,1.747h0c0,1.702,1.035,3.679,2.311,4.416l8.505,4.91c1.276,.737,2.311-.045,2.311-1.747Z" fill="#e8b185"/></g></g><g><g><path d="M190.729,89.762h0c1.276,.737,2.311-.045,2.311-1.747v-11.339c0-1.702-1.035-3.679-2.311-4.415h0c-1.276-.737-2.311,.045-2.311,1.747v11.339c0,1.702,1.035,3.679,2.311,4.415Z" fill="#e8b185"/><path d="M197.293,84.801h0c0-1.702-1.035-3.679-2.311-4.416l-8.505-4.91c-1.276-.737-2.311,.045-2.311,1.747h0c0,1.702,1.035,3.679,2.311,4.416l8.505,4.91c1.276,.737,2.311-.045,2.311-1.747Z" fill="#e8b185"/></g><g><path d="M171.127,78.444h0c1.276,.737,2.311-.045,2.311-1.747v-11.339c0-1.702-1.035-3.679-2.311-4.415h0c-1.276-.737-2.311,.045-2.311,1.747v11.339c0,1.702,1.035,3.679,2.311,4.415Z" fill="#e8b185"/><path d="M177.691,73.483h0c0-1.702-1.035-3.679-2.311-4.416l-8.505-4.91c-1.276-.737-2.311,.045-2.311,1.747h0c0,1.702,1.035,3.679,2.311,4.416l8.505,4.91c1.276,.737,2.311-.045,2.311-1.747Z" fill="#e8b185"/></g><g><path d="M151.525,67.127h0c1.276,.737,2.311-.045,2.311-1.747v-11.339c0-1.702-1.035-3.679-2.311-4.415h0c-1.276-.737-2.311,.045-2.311,1.747v11.339c0,1.702,1.035,3.679,2.311,4.415Z" fill="#e8b185"/><path d="M158.089,62.166h0c0-1.702-1.035-3.679-2.311-4.416l-8.505-4.91c-1.276-.737-2.311,.045-2.311,1.747h0c0,1.702,1.035,3.679,2.311,4.416l8.505,4.91c1.276,.737,2.311-.045,2.311-1.747Z" fill="#e8b185"/></g></g><g><g><path d="M190.729,116.145h0c1.276,.737,2.311-.045,2.311-1.747v-11.339c0-1.702-1.035-3.679-2.311-4.415h0c-1.276-.737-2.311,.045-2.311,1.747v11.339c0,1.702,1.035,3.679,2.311,4.415Z" fill="#e8b185"/><path d="M197.293,111.183h0c0-1.702-1.035-3.679-2.311-4.416l-8.505-4.91c-1.276-.737-2.311,.045-2.311,1.747h0c0,1.702,1.035,3.679,2.311,4.416l8.505,4.91c1.276,.737,2.311-.045,2.311-1.747Z" fill="#e8b185"/></g><g><path d="M171.127,104.827h0c1.276,.737,2.311-.045,2.311-1.747v-11.339c0-1.702-1.035-3.679-2.311-4.415h0c-1.276-.737-2.311,.045-2.311,1.747v11.339c0,1.702,1.035,3.679,2.311,4.415Z" fill="#e8b185"/><path d="M177.691,99.866h0c0-1.702-1.035-3.679-2.311-4.416l-8.505-4.91c-1.276-.737-2.311,.045-2.311,1.747h0c0,1.702,1.035,3.679,2.311,4.416l8.505,4.91c1.276,.737,2.311-.045,2.311-1.747Z" fill="#e8b185"/></g><g><path d="M151.525,93.51h0c1.276,.737,2.311-.045,2.311-1.747v-11.339c0-1.702-1.035-3.679-2.311-4.415h0c-1.276-.737-2.311,.045-2.311,1.747v11.339c0,1.702,1.035,3.679,2.311,4.415Z" fill="#e8b185"/><path d="M158.089,88.549h0c0-1.702-1.035-3.679-2.311-4.416l-8.505-4.91c-1.276-.737-2.311,.045-2.311,1.747h0c0,1.702,1.035,3.679,2.311,4.416l8.505,4.91c1.276,.737,2.311-.045,2.311-1.747Z" fill="#e8b185"/></g></g></g><polygon points="202.718 42.584 209.355 38.752 210.484 134.042 203.848 137.873 202.718 42.584" fill="#e8b185"/><g><polygon points="143.442 0 78.251 37.638 143.047 74.971 208.238 37.332 143.442 0" fill="#ffcfae"/><polygon points="143.095 74.998 143.095 79.849 208.266 42.199 208.266 37.348 143.095 74.998" fill="#e8b185"/><polygon points="143.095 74.998 143.095 79.849 78.269 42.5 78.269 37.649 143.095 74.998" fill="#e8b185"/></g><g><polygon points="75.011 37.315 8.337 75.81 74.607 113.991 141.281 75.497 75.011 37.315" fill="#ffcfae"/><polygon points="74.656 114.019 74.656 118.98 141.309 80.474 141.309 75.513 74.656 114.019" fill="#e8b185"/><polygon points="74.656 114.019 74.656 118.98 8.356 80.781 8.356 75.821 74.656 114.019" fill="#e8b185"/></g><polygon points="67.287 118.706 74.485 114.235 8.557 75.788 1.921 79.62 67.287 118.706" fill="#ffcfae"/><g><g><g><path d="M53.883,137.732h0c1.276,.737,2.311-.045,2.311-1.747v-11.339c0-1.702-1.035-3.679-2.311-4.415h0c-1.276-.737-2.311,.045-2.311,1.747v11.339c0,1.702,1.035,3.679,2.311,4.415Z" fill="#e8b185"/><path d="M60.446,132.771h0c0-1.702-1.035-3.679-2.311-4.416l-8.505-4.91c-1.276-.737-2.311,.045-2.311,1.747h0c0,1.702,1.035,3.679,2.311,4.416l8.505,4.91c1.276,.737,2.311-.045,2.311-1.747Z" fill="#e8b185"/></g><g><path d="M34.28,126.414h0c1.276,.737,2.311-.045,2.311-1.747v-11.339c0-1.702-1.035-3.679-2.311-4.415h0c-1.276-.737-2.311,.045-2.311,1.747v11.339c0,1.702,1.035,3.679,2.311,4.415Z" fill="#e8b185"/><path d="M40.844,121.453h0c0-1.702-1.035-3.679-2.311-4.416l-8.505-4.91c-1.276-.737-2.311,.045-2.311,1.747h0c0,1.702,1.035,3.679,2.311,4.416l8.505,4.91c1.276,.737,2.311-.045,2.311-1.747Z" fill="#e8b185"/></g><g><path d="M14.678,115.097h0c1.276,.737,2.311-.045,2.311-1.747v-11.339c0-1.702-1.035-3.679-2.311-4.415h0c-1.276-.737-2.311,.045-2.311,1.747v11.339c0,1.702,1.035,3.679,2.311,4.415Z" fill="#e8b185"/><path d="M21.242,110.136h0c0-1.702-1.035-3.679-2.311-4.416l-8.505-4.91c-1.276-.737-2.311,.045-2.311,1.747h0c0,1.702,1.035,3.679,2.311,4.416l8.505,4.91c1.276,.737,2.311-.045,2.311-1.747Z" fill="#e8b185"/></g></g><g><g><path d="M53.883,164.115h0c1.276,.737,2.311-.045,2.311-1.747v-11.339c0-1.702-1.035-3.679-2.311-4.415h0c-1.276-.737-2.311,.045-2.311,1.747v11.339c0,1.702,1.035,3.679,2.311,4.415Z" fill="#e8b185"/><path d="M60.446,159.153h0c0-1.702-1.035-3.679-2.311-4.416l-8.505-4.91c-1.276-.737-2.311,.045-2.311,1.747h0c0,1.702,1.035,3.679,2.311,4.416l8.505,4.91c1.276,.737,2.311-.045,2.311-1.747Z" fill="#e8b185"/></g><g><path d="M34.28,152.797h0c1.276,.737,2.311-.045,2.311-1.747v-11.339c0-1.702-1.035-3.679-2.311-4.415h0c-1.276-.737-2.311,.045-2.311,1.747v11.339c0,1.702,1.035,3.679,2.311,4.415Z" fill="#e8b185"/><path d="M40.844,147.836h0c0-1.702-1.035-3.679-2.311-4.416l-8.505-4.91c-1.276-.737-2.311,.045-2.311,1.747h0c0,1.702,1.035,3.679,2.311,4.416l8.505,4.91c1.276,.737,2.311-.045,2.311-1.747Z" fill="#e8b185"/></g><g><path d="M14.678,141.48h0c1.276,.737,2.311-.045,2.311-1.747v-11.339c0-1.702-1.035-3.679-2.311-4.415h0c-1.276-.737-2.311,.045-2.311,1.747v11.339c0,1.702,1.035,3.679,2.311,4.415Z" fill="#e8b185"/><path d="M21.242,136.519h0c0-1.702-1.035-3.679-2.311-4.416l-8.505-4.91c-1.276-.737-2.311,.045-2.311,1.747h0c0,1.702,1.035,3.679,2.311,4.416l8.505,4.91c1.276,.737,2.311-.045,2.311-1.747Z" fill="#e8b185"/></g></g><g><g><path d="M53.883,190.497h0c1.276,.737,2.311-.045,2.311-1.747v-11.339c0-1.702-1.035-3.679-2.311-4.415h0c-1.276-.737-2.311,.045-2.311,1.747v11.339c0,1.702,1.035,3.679,2.311,4.415Z" fill="#e8b185"/><path d="M60.446,185.536h0c0-1.702-1.035-3.679-2.311-4.416l-8.505-4.91c-1.276-.737-2.311,.045-2.311,1.747h0c0,1.702,1.035,3.679,2.311,4.416l8.505,4.91c1.276,.737,2.311-.045,2.311-1.747Z" fill="#e8b185"/></g><g><path d="M34.28,179.18h0c1.276,.737,2.311-.045,2.311-1.747v-11.339c0-1.702-1.035-3.679-2.311-4.415h0c-1.276-.737-2.311,.045-2.311,1.747v11.339c0,1.702,1.035,3.679,2.311,4.415Z" fill="#e8b185"/><path d="M40.844,174.219h0c0-1.702-1.035-3.679-2.311-4.416l-8.505-4.91c-1.276-.737-2.311,.045-2.311,1.747h0c0,1.702,1.035,3.679,2.311,4.416l8.505,4.91c1.276,.737,2.311-.045,2.311-1.747Z" fill="#e8b185"/></g><g><path d="M14.678,167.863h0c1.276,.737,2.311-.045,2.311-1.747v-11.339c0-1.702-1.035-3.679-2.311-4.415h0c-1.276-.737-2.311,.045-2.311,1.747v11.339c0,1.702,1.035,3.679,2.311,4.415Z" fill="#e8b185"/><path d="M21.242,162.902h0c0-1.702-1.035-3.679-2.311-4.416l-8.505-4.91c-1.276-.737-2.311,.045-2.311,1.747h0c0,1.702,1.035,3.679,2.311,4.416l8.505,4.91c1.276,.737,2.311-.045,2.311-1.747Z" fill="#e8b185"/></g></g></g></g></svg>